<mxfile host="65bd71144e">
    <diagram id="HIP3nbAZw_EuaXWnEj3U" name="Page-1">
        <mxGraphModel dx="606" dy="563" grid="1" gridSize="10" guides="1" tooltips="1" connect="1" arrows="1" fold="1" page="1" pageScale="1" pageWidth="850" pageHeight="1100" math="0" shadow="0">
            <root>
                <mxCell id="0"/>
                <mxCell id="1" parent="0"/>
                <mxCell id="7" value="http://ics2o.mths.ca" style="swimlane;whiteSpace=wrap;html=1;" parent="1" vertex="1">
                    <mxGeometry x="40" y="40" width="800" height="480" as="geometry"/>
                </mxCell>
                <mxCell id="8" value="Guess the Number" style="rounded=1;whiteSpace=wrap;html=1;" parent="7" vertex="1">
                    <mxGeometry y="20" width="800" height="40" as="geometry"/>
                </mxCell>
                <mxCell id="9" value="Menu from 1 to 6" style="whiteSpace=wrap;html=1;" vertex="1" parent="7">
                    <mxGeometry x="20" y="140" width="120" height="20" as="geometry"/>
                </mxCell>
                <mxCell id="10" value="Pick&amp;nbsp; A&amp;nbsp; Number" style="text;html=1;align=center;verticalAlign=middle;resizable=0;points=[];autosize=1;strokeColor=none;fillColor=none;" vertex="1" parent="7">
                    <mxGeometry x="20" y="90" width="110" height="30" as="geometry"/>
                </mxCell>
                <mxCell id="12" value="Guess" style="rounded=1;whiteSpace=wrap;html=1;" vertex="1" parent="7">
                    <mxGeometry x="20" y="190" width="100" height="30" as="geometry"/>
                </mxCell>
                <mxCell id="13" value="" style="shape=image;verticalLabelPosition=bottom;labelBackgroundColor=default;verticalAlign=top;aspect=fixed;imageAspect=0;image=data:image/png,iVBORw0KGgoAAAANSUhEUgAACOgAAAX6CAYAAABDTMUKAAAACXBIWXMAACE3AAAhNwEzWJ96AAAgAElEQVR42uzdy44ky5YY1m3+iMhqNEgBPZAgaChxoAn1K/pKfQinmhAEKIAtiGioIZCDBsQGoVMR4e6mgWdUZr2zMsPdzd3WAi5unXPPPVXpDzPb5tv2Tv/3//a/5gAAAAAAAAAAABbRuAQAAAAAAAAAALAcCToAAAAAAAAAALAgCToAAAAAAAAAALAgCToAAAAAAAAAALAgCToAAAAAAAAAALAgCToAAAAAAAAAALAgCToAAAAAAAAAALAgCToAAAAAAAAAALAgCToAAAAAAAAAALAgCToAAAAAAAAAALAgCToAAAAAAAAAALAgCToAAAAAAAAAALAgCToAAAAAAAAAALAgCToAAAAAAAAAALAgCToAAAAAAAAAALAgCToAAAAAAAAAALAgCToAAAAAAAAAALAgCToAAAAAAAAAALAgCToAAAAAAAAAALAgCToAAAAAAAAAALAgCToAAAAAAAAAALAgCToAAAAAAAAAALAgCToAAAAAAAAAALAgCToAAAAAAAAAALAgCToAAAAAAAAAALAgCToAAAAAAAAAALAgCToAAAAAAAAAALAgCToAAAAAAAAAALAgCToAAAAAAAAAALAgCToAAAAAAAAAALAgCToAAAAAAAAAALAgCToAAAAAAAAAALAgCToAAAAAAAAAALAgCToAAAAAAAAAALAgCToAAAAAAAAAALAgCToAAAAAAAAAALAgCToAAAAAAAAAALAgCToAAAAAAAAAALAgCToAAAAAAAAAALAgCToAAAAAAAAAALAgCToAAAAAAAAAALAgCToAAAAAAAAAALAgCToAAAAAAAAAALAgCToAAAAAAAAAALAgCToAAAAAAAAAALAgCToAAAAAAAAAALAgCToAAAAAAAAAALAgCToAAAAAAAAAALAgCToAAAAAAAAAALAgCToAAAAAAAAAALAgCToAAAAAAAAAALAgCToAAAAAAAAAALAgCToAAAAAAAAAALCgziUAAIBjan6Sjp9SRJPSh//9U47IOf/4f5tcfwAAAAAAuJOgAwAAO3BPtkkpRZPuv57/8/LPpA3+ZG/7PXPO8TqX53UCzzjl538m4if5PgAAAAAAsGsSdAAAYGP35Jv2OcHmnngz/ycd4mdMKX2TTPQ6KPn+Z5yek3amHBE5YnpO8FGZBwAAAACAPZKgAwAAK7gn3LRNikgRTdqq4s0+3K/NSx7P19dqmvKXijv3VluSdwAAAAAAKJUEHQAAeLCmmRNx7kk5EnGWuMbfXtP5r/OrSjuq7gAAAAAAUAoJOgAA8AGvk3Ga5jgtqfbq3kprbqH1ci+mKcf0nKyj2g4AAAAAAGuToAMAAG/UNHPllkYyzg7vXZrbZbUR98SdaZoTdcZJwg4AAAAAAMuSoAMAAD/xOiGnbSXjHO/+pmiaiO6esPNcWWeacoyj6wMAAAAAwONI0AEAgGdza6QUbSMhp0ZNStG0EdGmiP45YWdUYQcAAAAAgI+ToAMAQNXa9iUpR8sqXmtSiqZ7qbAzjjnG5wo7Obs+AAAAAAC8nQQdAACq07aq5PDO56aNiEiq6wAAAAAA8Eck6AAAUAVJOTzS6+o6Oc+VdcZRsg4AAAAAAD8mQQcAgMOSlMMaUkrRtRFdK1kHAAAAAIAfk6ADAMChtG1E2yRJOWzidbLOlHOM45ysk7NrAwAAAABQMwk6AADsXkoRXTdXy0lJYg5luLfB6rsU45hjnOaEHQAAAAAA6iNBBwCA3WrbuVpJ00jKofxntW1TRB8xjDmGQVUdAAAAAICaSNABAGBX7tVyOi2s2GsQ1s7Pr6o6AAAAAAD1kKADAMAuNM2c2NBKzOEg7lV1cpdjGCOGQUkdAAAAAICjkqADAEDR2jZF10U0SWIOx5RSir6L6LsUw5BjGLW/AgAAAAA4Ggk6AAAUqW3npIUkMYeaArQuRdfN7a9ug0QdAAAAAICjkKADAEBR+ucEBajZvf3VOM4VdabJNQEAAAAA2DMJOgAAFEFiDnzvnqgzTXNFHYk6AAAAAAD7JEEHAIBNScyB32uaFOeTRB0AAAAAgL2SoAMAwCYk5sCfe52oc73lyNk1AQAAAADYAwk6rK5p5v9OKUWTvv/7b5FzfPUxYsoR+flvOE0MAGVr2xSnXmIOfGxNneLpnGIc54o6EnUAAAAAAMomQYdFNM1LAk56/k/TLP0h7ut//zS9JOzcE3gk7wDAdtp2rpqTkuQceNx7laJtUwxjjttNlg4AAAAAQKkk6PBhc/LNnIDTrJKI8zb3P8dLZZ75r6ecI08R4yRpBwDWmZPnxJxS1ghwyMCuTdG1KYZhrqgDAAAAAEBZJOjwLm07J8C0z5Vy9qRJKaKdf4Z70s445hinueqO9gAA8BgpzYk5bSsxB1YL8LoUbRtxvUlEByh9nfSr7RRjOAAAAByPBB3erG3nhJwjfmSbWwNERKSYco5pjBgnHzUA4L36LkXXScyBLaSU4nxKMU05rjcJ6ABruVfwbZ+rBr5OwvloJcGcX8bzKUdE1s4bAAAA9kaCDr/UtvPGUk0n35uUoukiukiRc45hnCvs+LABAG+YR5uIU592V2EPjvk+png6a3sFsNSap23SnITTPFfrXVBK6SXZ5+v/5cuvpik/J+08/1riDgAAbBIrPJJ1PRyLBB2+k1JE91xRpvaPayml6Lu5CsDcBivHOHpGAOBHTr12VlBk0KftFcCH3Vt9Nysk47xX06RXyTvzn/GeqDNl+xlACePUY/991rYALOF1JcyUUnwphpkiviqMmbaLDaacI/KP58RxyuZKKJgEHb6acPrOh7WfmdtgpcjdvKnlFDIAvMyRp976Acpe689tr8ZxbnsFwO/GzZdW3x9tT7Wle1JRRIro54SdcVIpGPjY+Hj/Ftm+Gh9f//37+LOF6dVHyfxcVSxi/oZ5/99e/30A6tM085zVpPRV0s2e1v33P/vrn+mui/TT+fGlXW5+rrzpeYC1SdAhmmZOzNnzhtO6QWiKrptPImsXAEDdc+JcNccaAvajbVN8alNcb5NKCgA/WNu0zxWFm4NWFL4n7PRd+lJVR7IO8PU4se+Plr/+c/7ig+XzB8rxm78GYM/z2Vz9Zq22tHuYH5ufzInTlL8ksI6vfg08ngSdivmo9oAXqEsSdQCodg7sO2sI2KtT38TYqKYDEDEn5XRtVLc/0qQUTfeSrDMMc7IOcHz3ajdtk778utY94i8fLJ+/WL6uOpBfVReY8vzXEncAShvHXxJxmiZ88/zgfPjtXDhNOabnudA8CI8hQadSp14rq4e+SBJ1AKiEBF84DtV0gNrXNF07x/LMyTqnPiL6uR3ibVBVBw7zfj9/rGwqT8R531yRnq/Zl78TES8fKPNzixBraYD15rSU5ja05rS1rnmaq+60L/PgS9LOy3wIvJ0EndpuuNPui1/fto243mSRAnA8bTtX3QCORTUdeJv7x7kvbT/+0L1lRoS2GVtKaa4Y49DSr9Z88/WZpjlRx/MK+5qrvny4rLyVx7JzybwH/PxXEf3XSTvjZOwEeMy69Lnqo8o4ha037kk7XyeujtNLqyzg5yToVBSc9X0SlK0UoJ1P84kzHzkAOArV9+DY2jbFUyPRHL4tjx7pcR83X5cJv7tvXvqYt0asLjHnz9+HeX9Dog6UPW+1jQ+XZcwzL0k73esKA5M5HuCt2ue2s40k013Oge1zlZ3XCTta6ML3JOhUoO+UbN5mIaFlAAD71zRzck4SFMPh3RPNtW2lrrjtpe3HFh82X/+eXTh9uJS+T9FJzPnQcypRB8qJz5pmrpAjIWcf42fTSNgB+NW81rYSco7mq4SdPsV0j3FH8x9ESNA5+AAYcTqpmrM1LQMA2O1CUWtMqPbdb5qIy9X6lePZwwbwj04f3pN1HP6wltn2/XmpGHwbJI/BWtp2TshRAewY4+jrhJ1xzKoLAFVJ6TkeS+a1qua/lKJp48uhiXn+E99SLwk6Bw7cTr3JraT7oWUAAHuipRXUrWlSfHpKcblO1q8cIB6b23/sdV5LKUXXRkSbIvp5M3Nw8vA3Y5g238u+U/P7pOIaLDXu398z1QTqGE8jop+TH6c8z/MSIIGjrc3bZk7QMK/xOp64x7eSdaiNBJ0DUrq51OB6Pml2G3IMNrAAKDho1tIKuDufGh9g2Wn8NZ/Oa9s43Jx238zMOccwhvjyG/ZE1tN18zvmMBI8bt7y8bJebZuijYi+m1uBjKNkHWC/7pVL2ybsMfKm+NZhFKqKpV2CYzmfnRArXd/N5fu0vAKgxIBIBT7gu6CxS5GsX9mJprkn5hx/PkspRd/NMaaWQ6rmbPkcnk8phjHHzTwBf/j+qJTDT+a0lKJ5NcdrgwXsZT0uKYePeH0YZRwjBomqHJQEnQNNfE6772uSOTcRl4uZBYAyOG0OvGX9elMlgYKf0b6rdyP4vpE5TXOiTm3vadel6DvrmE3vwfPHGNV04G1jdtdJyuFP5vj40gZLZQGgJJJNWea5mtdKnURVjho/uwT71zRz6Xl2dt9SivPZRw4Atnfq66g0ADxg/XpKcblO1q8Uo/bEnO/3B+b3dJpyXG91nDa0jimH1t7wq/G5ngpvLLvu0eYSKGM8imgb8xprzX0RuQtVdTgMCToHGJi0othxcO4jBwAbSinidNIKAvgz51MT11t2eoltY6nmuX1wYw778fVJ8XSeTxsetT2dSsLl0tobXnRdiq6VSMqjY/mv21yqqgOsM/bc5zVzGtvMfa+r6pj72HWM4BLs15GTc6acI36xj3O0TdjzqZGkA8CqVOADPuLUpxieW17BmlKaP0Y5qfn2fYNP7fEqmrRtxKm3jin92dMaEXOVuYp1xtt7m8th1AIEWGbtrVoOpc59NbZ4Zv8k6Ox48Nlrcs40zeXHcp4Tce6//rOSZF//w01z/+8U6fmvU9rX6RRJOgBYRwC7Cibbee2tQgKrPXNdir4zf73H/KH4GMkS1jH7oWow1T3zqrux6fOX4tTMLUBug0Qd4DHxlypwlD73nU9z60dzH7saX12C/dnTZtSU582/aZr/e6m+gPeNnmn69jfI0TTzIN2ke+JOuddOkg4A1hHA3saUcxNxudgEYTlNE9H3WjJ++Do+J0sMw3zKcI9OvZO7e6Q1IjWsh/rOB0zKkFKKUx8R/b7nfGCrMUQbK/Y790lSZS8k6OzMvcd6ycYxxzjlGMcy/jz3BKGXa5ijaebTgyVu8J5PTXy+TIslMwFQr75L0ak8ADw6RkkpzmdJOixD1ZxlrmnTRlyveVdxp+ScfTv1Ka5hs5xjkZjDHub8rpOoA/ye9owc4zmWqMNO1mguwX40zZy8UaLSknJ+5Z6wMwwRKeXnXoVlJeucTskHDgAeO7f4qAUsGas8J+kcoX0O5q5a3tmnc4rrbdpFHO9ZOM47PTTzXAF7JjGHvZGoA/w0Lmjm9tXW2hzJPVFn6uxTUejazCXYj9KSc3LOMYwRw44X9TnPf/5hmCvrlLIQmUuPR1yuAiYAPs5HLWC9NWzSspWPP0vPlWN9+FxjjdDE0OSiEyasY46la1OkiLhK0mGHJOaw+zG4mw+qqioANM1cMadpzGkc+Dl/3qeapjlB1V4VxazJXIJ9OJ/LmSRzzodcxE9TxHXKkYZcRCm/pknR906WAfAxPmoBq8cup0aSDu/Wtqn4ts5H07UpmlTmARHrmAO/5yFJh309sxJzOIrX7T+uqgpAhWOAVlbUp2nmRJ1xzGIQiiBBZwdOfSqi/dJRE3O+/znn4KSERJ2unTM791ByHIAy1xACbmALknR4j/65/QLra5ry2tRZxxxb26boc2i1QuFjo+oCHFd6VVXgesuRDcdw8HdeYg60bYpPbYrbkHfdHYYDxBkuQdm6QibMYcjx+ZKrKn15T9S5XKfIG0Yop74JB3QA+PP5Q9ANbOt8aqIRcfIH85bknG3N5b/LeG99PKhD5z5TqJTmeWkeEz2jHHz+b1I8nZvoVTCEw+q7+T237oKXd+J8Tvas2C4WdglKXhzPg8SWZNDPra8+X3Kc+thsAXPqU5HlxgEok+QcXq/lvvw6R8Q3y4kpx7sTkdsffKx4HdimpA0AKulg3trre3u9bXdAp233nayV87yHcp93p/yyp/InY+HrObVpUqQvc2scKmHg1Ke4RlR1IIyyqeZGrbo2RdemuN4m1dzhKO91lzb/xgilap4ryQ1jjpu2V6w9PrsEBQeEG2etK/H1testRzvNm0erTxRNiq4L9wOA3/KRsw73j3/3/7xOtFkrEeJ18s8v/qQR8fJBMaX40rr1/uHRqeTjk6TDL5+Pcxktnfl+PbFF0kTTbBNzf2Q+nqZ5Hp6mx7YHe/3v+n7OzV/m1baZT37ueT499SkuOZsn2NR9/JFgjjVAE1Pr0C6Y06AOElTZ5LlzCcrU99ttUuY8L8BtjHxvHHNcco7zaf26Z32XYhwFRgD8nOSc45lyjjzNSTjjtG4CzmPXl/FlDTPG9x8ZI+LLx8U5iUfizhHHp88XC1m+Jjmn/Pd27SSdLWLt9+wLjNOcNLNlfP4lSfdL8k7+Mpe2O0zYOZ+a+HyZ7HmwupS01YNvzW2vkgO8YE6DiuLfJsZm/j4OS5OgU+QCeM7Y28I0Za2UfnuNIv76PG2ymazV1WMXqx99z24CVKCkRZ0A/ABrjPx8Av/lRH5ta6yvKwS8JO6098SdRtus/a69UpzPERdJOjyTnLMPaybpnE/lPg9zUk4u/kTlfS4dnufRtp2TdfayRjydknmC1WMorT/g5/punkdU04F9vK9aNMLHtG2KT6rpsEYc4hKUZ6tyzuMoM/BPXC45zudYdVO5aVK0bTYxPEBK8eEFa9eZqIFyggcby/uyZEuMo/k2cSellwoBTRM+8O9II0mHZ5Jz9mWN9kN9l4qr+JJzjmHcd6vpcXzeP7jl6LoUXVt2omuTUpz6sDfF4lKaxzYVG+ENY7NqOlD4O7ptRw44Zgysmg7LkqBTmL7bpi+k5Jz32SJJ597qinIm6qHJcfP+ABtp2+2Se/nz9daUQ8vKD8o5YhxfV3PI0bYSdvbCx1dONo936Xxq4nKdFknSaZoo6rTvNM2JOUeLu4chxzBENE0uMiHqZW2bosvhIzCLUTUH3udeTUd1dyjovezTZt044OjaNsXTcxU5Byt5eEziEpTjERU93kNyzsdcLjk+PaUVn5MUXWezqqiBtH0p92qiBtbUNHOiIGWanqsNjKP5Yfn17MuH1LnCzr5aetSmbVOcQpJOjU69dox7dj418fkyPTzJtJRE45xzFTHdNM0fV0tO1Om7pMIgC41jqubAx/YgUnx6UlEctn8X5zW0FuCwrJRSnE+qyPF4EnQK0kvO2a3LdYrzqVn1WTEZlDlRD0OOm3sDrGTNuYe3mXL+kiyiSs42cv66pUfbRrSNpIDStG2KdgqVIWu75wd6D++t93KOX4/3KeLLt+C0/ypfp1N6aJu6vpAPC9dbrm48Kj1R59Sn+KwlIg+bgxxsgMeO0SqKw1ZUzYEN3rsuRZMcNONxJOgUotnghK/knMeZpnlgXvPkX98liSAlDqpdiqaNuKmmAyzsfBaMF7MOkJRTtC/VdSTrFOfUp7hGdvq2knh3j+0Y83MltJznsT7neMAaP3+5Jk0zb/KlHbXne2SbuqaJzT8uDKOPi/dEndLapqaUou/Dx18+zIdMWEbXzi2Gr1dxMKwZU6maA9vQ8oqHrqNcgkKCxZWr50xZcs6jjWOOYcUNxk6CTrmLZWXvgIWd+rT7E/h7l3OOcZpbTtqM3NN67XWyToquDW0ONh/PmrjkyebGwe2p4ts4zuP7NC07vk/TSxWe55kl2ucxqW2i6I33tk3R5Y+3Xe43Tga5XI093z77f425qGSGrk1ahfJuTTOPM+ImWPA9SymezsmcCgvruxRdZz6Drd07adRYgZUHx7ouQRkB49ofBi7KBC/idsvz/Vwp+G+fN6sod+HcNvNpRICHji1OgG5m/nCr4sdh7uUYkVKOrk3RtuEk2lbjWp/EJwd2PqV9jAcFjO33JMJbRDTNnEhYarJO36WYpvcnTnTddh/NVRP+tdvzZnMpiXVaXfEeWlrB2uu9xkFFWEBKc4tZyaZQllOfYmhU++T9JOgUYO3qOZerdPYl3W55tU3ovgsfCAvXNCk+PaW43ib3Cviwtg0nZjYyDDkGLawOKeeI25DjNjy/Y6rqrL9eemDLHMqLdUt9n3Ke3/tSDzzcK+zck3XmRMKyruVHEif6jdYzw5BVon3j8/fX5ynOp+3fYa2u+OPxRUsr2G7dl6zp4VEkm0LZujZFCvMe73x+XIJtrV095zYoDby06bndxRofUFNK0TTu6R6c+ibGxklN4CNjvsB8baV/vOXx7lV1Sv0YfmRtm6J/TpbiOLFuiUml05R3FxdPU8R1ypGGXFQlvfcmTmyVnOPQxJ+7XHP03fbvslZXvFUJSWVQ+5r+3KjeDx8l2RTMexybrzxbT7QrbnKMozKTa7kNOfJKR+wt1PY1WT+dUzRGXuAdTifj/VqmKcf1NsXni37C9T4D8wmYz5fJM7CirptbjXGQeasva96aco7LdYrLdb8f+XMub2zq2j+Lb1LaJtnjcpWc8163oYyDJn1vLczPNU0877d4TmDz9zHZ/4T3SinifJacA3ub9z49NeY9/uy5cQm2nWzXDBxV7ljXWtfbye69vfcpzqfG5iLwR069ftNrmKaXj7c+4hHx8jH8r8+TRPfVxrsmDHf71/cpUkE38nrLcbkcp/rG60SdacoFvLdvv9f9Rsk5Kq98zDjmzdulNylp9coPtW3E+dQUNe9A7e77nz5Wwh+sdZqIp3Nj/w92yrzHH435LsF21tyYut7sRq1tmtZriSFJZ3+6NsXZaRLgjWO8cX7pOXv/VRVY3m2YE3VU1FmeimH71jTlVPkcx2O/tznPLYi2jvfnVlfpDf/c+rGr5JxHrpdi8ySdXoIO3+i6pA0wFOx8auxnwBvns/PJfAbmPWphxN/QWi/pNDkFvpXbSietu8613uUAfK+mY5MR+Nk40ZTXIuRIcp5bNkjM4U9ofbXOGkm1wf0q5d5db1M1VWTHMeKvz9tW0+na9NvqV53knN2TpENJTn3yPMBO3lUfK8F8BuY9eCFBZyNrvpxaW20n53Wq6DQpaQWwY3OGvHsIfM8H6uXchhyfL1mSBe9e483JXWW0lznk+qhVaXCvce7WJdmnfE+iq+/6X655tUMiP/K7pOI12xNJzlnwHds4SafrxM748AF7fGftb8D3zmfzGVirUiNbnhtZq+LJMOTIvhlsaq0NUoP9zgfjJsXTuVl10xooW98nfaeXWBs9tzsZBgskPm7+SDm3l8kW3Q+nxPf+bF31bRxzXC51x8DDkDdLnmianyfWdd26h5Qk56wx/213kZ0yr3x94GMm7FLXJhWC4cu6OeLpbN8PjuzUJ9/7+Pk84BKsL6VYbeK9+fi0ufWq6LjWR9B3glVgDtQ7m84PNU1zRYWbyoIsYBwjPl+yxK8FWBftax277XuYVY/9MudFfL5MMW2QqfSz0/Fdu87vP4yq4635nG2VpNO2qujU6uxjJuxaK0kHomnmwyjJfAaH53sfP50LXIL1rZUx5wNBOYYVNgidHjpWsPrpqYm2dS2gVqpGPE7Oc3WTy1VVQZY3t06bfBx+8LrIiaPypRSb3qfbIDnn+/kv4nLJqyfpNOn7yhZNE6t8gJimLBF3ZdO0XVt1VXTqm2ck58Bx1vc+VlLz82/PD8x70LkEG7yMK82/queUY5rmD4RLb0o2TSjlfSCnvomhsckM9b37FuyPMozGUNaX8/yxshlznPrkVNwD9F2KcZRkV/o92sr1pmLKr1wuOc6nuf3Ues/DXFnsbq2qgJer52AL45hj2CBJr21TJG3dq3CvNAAcR9umOEVIsKa+596e32FM08v4lXP8cE065XhXO/T2B7FbSvFSQXLFLi087v3vssIavJCgs0FQucYmvZe8PMM4b1QuOsg36auFAQcYpNsUbTMHrJKvoIbFuopoDwmS85yYY9xk0+dwmtte9b2WdY9w6pOP74VKabu5axgk57zF5bpukk5KKZrmZR5e4/m43kz6W7oNOZpm3USwe7zscNqxSc6B45KkQ026Lqn+twM55y/JNve8mvH5e9vPknCW8LZvfPmr9VLES2LPPZln7bU5v9Z3KXIOexjM84JLsPLCc6UB0QZFecYxL74Ia+xZHFJKKc6nFMOQvdtwcKfeQP5RxkpKc3uu7tH32jJ8bJ2bouscRChyU2Gj5JxxNN7/ics1x/m83knLvpuT6tZIzhnH/FXFHrZ7xj49rZyg00nQOfbcLznnaKacX39P/Pp/+12eZYr46ba6SgK7JUmHGpz65DBeafPRlGPKEZFfEnD2fMjv/mf/PrEnf1lTpZSiSfdfh2rPG44H15CkgwSd9YPLdvnfY/BiFynnORBdMmCcM2Ld/8MO2F2Kpg1VIeDAC3Q+EIyqmkPJz+c0t5lRTedjtLoqd426tnHMPuS8w+WyXpJO08xVdNZo8e1ZKOgZu06rJ1S0bbLBfUCSc/a0zv36w+brdh5rVhv4dj/09SHGLwdmXyX5qCpQDkk6HJnknI3nqJwjT/NcNE717hnOP3eO8Zt5s2nmOTKl9bq/IEmHmQSdFaWVsvmdKi3XOEY0C791TRM+Th5Y81xN5zZk7zociNZWH1/7OD3NHtyr6Zz6ZOPjnbS6KssWZdqnLDnnIy6X9aqcdO3yHyS0tirLNM2HxtZMRu27UEHpYCTnlOXe7mNvlQZe//l+3CrkpapAxMsHSi1BtiFJh6PGrvb61nU/0FNzMs6fzpWv58iUcjRNiraRsLPG+HDJntOaSdBZNcBcfjCbJidKS18gLN/mKr2xRyV71nfzQul6887DMRblNqDfIz9/pBXMsCfTFPYu9hwAACAASURBVPH5kuPUS8x771pXq6tytO36v+fNh5sPW6vKydJj3DRpbVWi222unLTWhn5Kc7Um68EjxUbWR5utU58rDUz5uf1HBe/Vj9uCvCTvNM3cEiQ12mitsW6QpMOR5jLx/vLGMcc4+S76KDl/3T74dcKO5/nxzqcmLtdJHFMpCTprLjJX+PY22JwqfoLLOS+6UeWQRz2aJsXTOcX1NtmYhp0H7bwvCLdxx55dbznayRjwHn2XJOiUEN+265+ok5T5GNM0X8u9jz/WAWXfm/Npveera1NcHVQ6hPNZlcG15OdT2zUl47xnvvw2ced10o7qAkusL1O0k7Yf7JvknCXH5ZeEHPPWGmuFVwk7t+eWWG1aNRn/8GvfUxN/ffYw10iCzoqaFRJ0LF73EdwtedLUvFjjor+JsfGhGva6NhC0/zlt/jiKccxxyTn6PjmR+8frn2Tts7F25ZMB88age/7Q67njdcgwOiVbsun54+paz1fbpghzwu6dz9ZDS7on5Kg08PHxTTuQFdb54TsH+9RLzlkmblE5s6g58BYRTZMl6zxwDXy5mPNqI0FnJXMP22UHKYvWnSwoFk7QmVupeRZq07YpPrVJSTzYGZUz/oyWVhzRNEVctLx619qnGY0HW8a3az+vErKWuaZPO91Q1epsB/doyKuOE22b7Ivt2PkkOWcJ45hjej79LiFnqRj163YgTfM6Yccz/V6nPsUlW+uzvxi1E9M/bP6SlFO2HyXreP7fp0kpTr09j9pI0FnrBVthQT4q57uTwC1HhImKZZxPTQxjtmENO9B3yrf/WeCX43I1tnFcWl79uVOf4rNTRpuQnHOssWfNVkSPoIrePuQ836uuW+f56trwEWfH87lEhsfxUXPruHWOXYd5JPxSXUAi/p87nxoHEdlVfCSWN3/VPvfdbvdEHUmq7xlD+jwfcqAOEnTWerlWaW/lOu9lslpa04TgpeaBvU3RNPOpUs8BlCmlWO1jxRFIPKQW95ZX51PjYrxpLE3RdzYwtllvrhk/aW21dHy6ZhLFI3jnY1f3aq1nq2lSpKRKyN70nVYgj1pD+qhZ8L0ZI+ImWec9JOSzB23roM175ZxjGCXgH3HeSylb5/2hrktfKh9Swf12CdaRFt5j98LuyzTlRTNI54oMnomaNSnF+ZRiGLINbChQLznnza43H2apbZ0Y8fkyxUmrh7cFtF2KQduGddeZK7dEspZd5xq37T5aXdm83+fztdbat22TZ2RH2jY5tPABknJ2es+ek3W6bq4woKrur6WU4nyeWwJDqbHRqXfA5j3j4aBl9aHl/FwJ93ZP1DHnvYUWjxXNHy7BShd64YFHd6v9TU7LPm+uMbOuS3E+p7D2gbKCd6cH3uZynSTnUO1a8XKRnPZWkh7XteYcNtq0Xc1e2ohJ2NqfYcjPrb5XGJ/scu4qJlJt4D1rxPkQ1l+fp+eDDK7JnsfGz5cs5n3LeJG0DqJMKYXqt+8a++Y5TJxXj9vznHe9rRcX7FlvzquCCjorBZ1Ls5DfW0C99OrQNd7K9TY9t5gq5yY0KcXTOcVtyE4TgkX2Lkw5a9MHMX8wP4Wkvt9p2xSNRI71rveKe9CSMVace6d5X6Hk8ca+x36NY0S3wg7kHId7Tkrng+b7xj+VBo47/16nHGnI0akq9cv1fpdV0qMsp5P39S3m5FJreV4qybVtRN+pqPPTmCalOPX7OUTDO++zS7BG4LnsIJOzku67C74WvmEq6Gy54Iy4XMtsK9V3TpzA1tpWy5q3zJGXi81nuLvetKt80zrHGmel2Ha9TbRR67LVlT7WGAs9W29db1M2HzTfTqWBeuQcX1VHUmHgB+v9Lq1yEBreNJf19vd+P67NFVM+qw7MD2L9zxd7Xb+LacQ1x2ZJs8ZFXvgdEqDtM+ji2O6bKFNh/efaNsWnpyba1j2CrQJ4frGmeU7OAb5fVzg587uYy+bFWmvJtdis2yZOLXXzfJokbO1+Lhu1ucIHzbeNxfO676/PU9wGY1+N7h8uJep873xqwhDC1vpO7PmWeUxiDr+ND54TUwfPyc/XzWKbw3Jr17jIC1/lydjFNwQqpSxGy62mc+obiQKwQQDPz42j5Bz43TsiSed346xrsHhsm9Z73n2P2kapiVHD6N7s3VptSXwwK1fng+Yv+aDJj9ZDKgx8TxUuttS2oRXdb2IJ8xh//NzcyjzsXgLVoo9Lgs4K0uIVdAxae7N01SO9G8syDDku12nx1mZ/HlCkeDrLwoW11gIC+J+TeAB/8q4on/mrNbBkyOXXj6usn23obqbUKjo2+Y/xbK21fyXGLU/TOLDw83dDYg6/WRfdKwxI1JnHk5QcOmSzuezUW2QYp1gqVrhc7Xn9aM6TpHPQe+sSLG/pZAktrqB80xRxueTiFqkppTifGhtlsDDv2M9JzoE/fWciLlcBwM9Ihlxw82Cl3YMpZzHuxko7qe+D9XGsVQmpacwFpTmfbEH/iMQc/nR+/nyZPC8xJ42ryMXafCT/Qew2zeOSSl88LvaL+Ouzue61rnXI/ojc0sU3BRaeANX9ht0F0yVW0+m6FGfVdGARKSm1//OgS3IOvCsGmCTp/IqN02W0K33wHgbXemulVdEZVQ0+1NpvDfJzynLWjuYHc1328Yl3z9HX21xhIFf+XeDUp1BEnjWft8YD92osmsehy1VrYpZxn+t4GYM4Fp9i9z4RGp9gd75U0ylsI6Z5rqbj5Dk8luo5PyY5Bz6+nrBZ8WNda7N+kbXiSrsHPlaWoaRYZRzdj6OtAZcmOb6sWEhFo6+ff5UGeNTc+LnAvcW1nSQAsoK2tbb4Nk6Yq7+5Fiw/10loniWtrg5Hgs7SF3jhIFR2KuzX7TZX0yntxEvfpTiffNiCx6wDBPE/DrAk58Bj3qXwLv1iPcO+Ytv7/EAZpimKiFM8Ewecu1aqiKQ6bBmxkANAz2Nqnvd/rjeVBnisUvcWVxtnUrLuZ1EpRZx6i4qIOTa4XKe42YNgZddbltwcWl0dbg3jEiw8gS8e4LnG/OTl9nbvwjRFkf3GmybF07mRWAAfZKPoR2sXyTnwSBLefqxVRWeXsYVWRmUZCjgV65k44ry1zu+TTAKbO59sTEXM7awulxyTwocsFWMXure4lq7zwZLlaCtzjwvmqjnmMjZdT121d1RF5zgsXRbfEFj2358du4BDKLWn5qlPAhF47yKrCeXcvzHleXMaeKxxdJroRyRJPnJOSys9y651SYahhAo67sNR562ltXY8N2UfIWKatLNiXTVXGDDmsFQ8aV9vbq2tag5lrK3iOVGs3udR5bgD3UuXYFlLJ+jIWIXjKLWnZtum+PTUOI0C7wjk+ZrkHFjOMGStYH6whlFA4UEbBytcR89vqTHKdvdlUj3nuM/VCntZSfy6ma5L1VfjvQ05LlftrNgmJqixwkBKSVUBHhv/aNMY05Sfv1V4HijL5Vr3/lfX2es6xDzjEgCUpdRqOudTI9iFPwjknbL5NniSVQxrrCEkOXxNsuRjrPGhezRNFGnL++KZOPBztcJc1di13ma+SHXPvVOeq+YMquaw5XN4rzBQWZJO12p1xQPjyMr3wIdxTjSFUs3f0Op9Ru117Z8ly9IXeMGPc9pbwXGNY8Tny1TcqdGuTfF0FvCCRfKfBk2Tqn+w2vtW32b8r6ii86C4doWLqFpKqXGJCjosdH9XmKvEreuruc3MMMztfC3DKMXlUl/yvlZXPELfpaoTfbW0Yk+xaq1JOq2k1N1z+3ZMwMev+BB6jHf8ci2vf3RKaa6mIwEBfry4Uj3nK7chK4cLK7s66fYVa5aPz2vLr3t90Cw7tswb/b6u/bGfq3ViV9bTdanaOOhynYrbu4GIOXl/qChJJ6Vk7c8Hn6F6W1vlPLfIs4fHnoxjrrZqu24X+yZBBzZa6MFbDUMus5pOl+J8diodvns3Wi/F6yBJeXdY35zk68v2nSo6H41dlr94WhkVPp9vcH9Uzzm+Ne6xnPk154o6E2KnKcdfn1ULpWy3ytqAzMmC7jvvU2sVprlFYzafsdP1WJ17YE1K0foOsd/75xLslxOG++UDAe953y/X8j50NynF07mp9mQB/Gh8tzB+Ce6vSuLCdu/gFE5yv+Ik7UfWe+s8r5Q8nuQNfk/XvYZ5ao21Oeuo8YPmMOa4qFrITtTWBsTan/eYW8bU9+yM49yiEfYeW9SYpNN37v1eSdBZ8uIufHUl6EB9bsNcsm8qbADouxTnk+AXbAK9Gq8k58DmhiHHOHoXIyRPfkRaJUHHc1qyLZJlJhseh5fz3Eph0fHLrucqamxtdb1l8Q67U1OSTtOoKsCfqzHZtLbkPY4ft9aWpKO1445jKJdgv4OB/ap9BwmLPnsejuOPLZccfVdWT9ymSfHpKcX1plctdVI958X1piwulPQ+PjXrtCkqXd8lVYXeOb8tTfhSvnHMq65zrCPqiW3bdsEYNaWIMMCsMb/W5HLV0op9z+fXqCMR4dSn+MthBd46l0nOgcPEF5frFOdTPZn6nb2ufd43l2D5wQC+tfhyz1hchduQY5xynPpU1Ee3U9/E2FjgU+GiSnLOlwBfxQ4oy/WWVboLmxbvtfjhAtVzdmHtJCpJW56rR0nJ87Rs/F/P+mLKWoBwnJi9liSdvk+qXfGmtUJte3rXm707DrxmqzBJx4G0/VHsFTZa9C3J5lNdi43PlxxDYQvqtk3xdE6Lt/qDknTKSUbOkvOg1PXCIFD/skahvOeT8o0rJlJJ2qro/V9h80IBueU0TT3z6jRJzuFg83ollTO6NpkH+K3aWltJzqGOtVtd7a58l9hhLOUSwPok6PBot1uOy3WKXNDNTynF+dRUWSKU+lgEvwT5QKFrhSH76B0RvRqyf7ZhsMKOgcdyH9ZMpBLP1mOtCjoso5YPmuOY43I1MHHMZ3uo4CP9yb4kv4l3lq4YWpJhkJxDXTFsTXvVve8T+5p/XALYYuG37EBpiVXvguPzpbxFdtemOKumw8F1rWswDFkVBCicJLo5gbg1Zhcly8Zwr777fVzrmmLYpTUydBbRd2W12l5KLVVGqNetgkoaTWNPkl/MZxUlcI1j1gKH6oxjrqaitAPEO1ufuASwrjX2L5yOrtv1luN6K+sreXOvpmORwAG1bVSxOf3LeScL8mEPcg7vaszJw7xxDbfCaVLJnfsaQ9ZaV1DXOpJ9SamODwCD5Bwqcb3lw4/F9iP5kbZN1STySjilZreKKkdJ0tkPCTqwsjXWfPa3GMeIvz5P5VXT6VKcT/o/c7CFrw+9cRPkw24MWl1F01iLvDl2cQl4Za1kKvFsZRa+36omPF4NH7qvtyzGoSqXSz50VcOmUUWTH81ndfycknOgjmTUCFX+d7U2cQlgXe0Kp1BtaPJ64VHaArxpUjydm2glNXAAKdXVq/pHhlFrK9jj+qB2TtGWQeXPnd2vtSroWFd4rihW08ThY/nrrZ5T1lBTjGD9z2ttW0erxilLzoEv89z1+O/C3NbdfLeLuMolgLUHyIUXXXa3+MY45vh8mYp7Nk59ilNvscC+1b7Bk7OTpbDPdzeq6cH9MzYs3rhhYMeAb+Z9ePyDtfC/33D/8Dj+yCTnULNpOnaSjo+WvFZL9ZzLxZwGL/FsxPV2/NMgqujsg+02WNnSgYD8HH62+Lhcc9wK+xjXtik+PTXKzGJM36nbYNKBPb+/tX9st0G/PZVS9hdTLP5MSAKqbxxYusWVnoYP03XHrjYwjpJz4OjvQS1JGfw+Dqyhes7lKtiC7+e5uRr8kTVNcthqD/fJJYD1rLHus8nNrwxDjst1Km7j+9Q30aumww4D+roDmhzj6DmAPau91LUNevgzq4QQvo1X+Fy56fuZN4+dnKMFCLzECEdNmFVFh1riwOtNO3r4mduB57m7zlxXPAk6sOYL1yw/KNrc4nemaS5vWVpri65N8XSW3cuOFrqVf9hVPQeOsSao+aR4StYdv79GCz+DphKAXZCcA5XF+zdVdDimGqrnqAgHdc9z97GOstmOhDUHxRXeOJnRvHkRUmA1nZRSnE/NoTf/OMgCqqm7XP4w5JAPCsdZD9TMqaLfr82W5HDB/kwLZ1VJ2qrxmXINyp8L5vZWh3z+suQc+NnYPAzHraIjSb/i+O/gCVrmNTDP3UnSKZulCKz5wi38xk12M3nHQuRyycX13ey6FGfVdCg5oK98gat6DhxHzsfflPgVGxZQ2qDkEvB44sqP6Q+cnHO5GHTgV3H/UVuAOBhY73rg6IftbpJzwDz3rFMxruw5ySWAdaS0/AlUJ8/4yOL9cp2KOsXcPFfT6QTNFKjmD7pO4sAB1wGVJ91J0gGAn8TlzXHnyetVXAO/jRMOGv83jUOBNTr6YbvbkH0fAvPcy1yXUiTbXeXeH5cA1rHGhsaogg4fME0RnwusptN3Kc4niwnqGs9LlbM+1nBUNSfpOFW05bziGuwxZgDqcdQqE/MBJfcX3jLvH7Xapla3dUnp2Pt505SrrowLH5rnxiNX0THXlUqCDqz1sq0wDtos5RHu1XSKen+aFE/nJtrW/aGEhW3F44NgHw5rGHJRlfTWXac7QbsVH0cBCp4fmzkWP5rrTYUB+NN9gCPGCW3rMGBNjv6RWrVr+MA8d+D3p7XXVW6s5RLAeov+JalowCNNU8Rfn6finqtT38SpFz2znZSO36/65+NCjnH0DMCR3QZrdWBbqsLWGn+67yU6YvWcYVQRFN7jqB//VdGpx5Hv9ZxE5x6Dee57yYG0YrktsIJ12lu5ziyzMLnepuLep6ezhQUbBfQVl4VUPQeObxzrraJjc/4HmwXWWgBVzwFHq54z5XzoE9Kw6PszHfNwqNYfdTh0a6ustRU8wjjmmA66H+ZAWqHxlksAKwyAK7xpTgCx3LNVXjWdlFKcT030qulwwPG8yIB/UgYealF3FR33HwAijlk953KxbwYfixN8uGSfugPHeRJPwfv023lOJkiR3BY4wEJ/UsOQFVxvubhgvGtTnFXTYa1FUzMnh1UZoDiNA9WouYpO29icB4AjVs+5XJ02gI/KOQ5ZqaOTpH9oKR1vTnsduztMB48zTcdsvavNVaExl0sAy1qlvdXoOrOOYcjx+TIVtVBp7tV0lKVlYbW2P1E9B+pTaxUdp2cB4HjVc4ZBPAOPixOOl8zfNCmSMOCwjtzG7Kp6Diwyzx2R/a4C1x8uASy8CFwhC197K9aUc8TlWmA1nS7F+SSoxkJWYAI8Ym1ZbRUdmxYAVOxo1XOmnMUz8PA9guP9TJ0Y4Ljx3UG/gA7mNlhm7XjQKjoq6BR4T1wCWM4aJRSnnEOHK7YKBC7XqagWa02T4uncHPp0BBsF9JWWPFY9B+pVaxUdJe4BqNnRqudcrzbM4NGOmMzfigEOqW2P2ao+Sz6FRR3x/WqSg+3F3ROXAJazRvb9MLjObGeaIi6XXFzWft+lOPVWHDwwqG/qfJ4GLRShWrVW0VHi/oVDAAC1zYHHqp5zvTnQBks5WjJ/Skl1gQM66l7ezfcgWNRxq+jY7CrqfrgEsOAiUHsrqgnMy6um07YpPj01TsHwsOepNjlncwxUrtYkPW2u7vOAa8D6kgy5Sm+8S1CCI1XPGUexDCz9jh0tmV+bK3HdPmI08xus4Yj7Ya2MkKK4HbDYAnD5zUWLMUrypZpOYc/lqW9U00FA/w5O5AC19rWX3Avbcaiv1vvuxm9+Dw5YPQdY1tH2DCTpi+m8d8DdMds5mueKir9cAljGGln342TDgQIDhdtcTScXVk3n6axcLe98fip9biSBAhFRXOLtKkGy3tyrcZ3dM6AMR6occb1Nbiis4JgfL93Xw9zLRvUc4KPz3PF+Jt/HCroXLgE8XkrLnzyaF2SuNWWapojPhVXTSSnF+dQcqmw3KwX1FWaXDwJ+4D4eVFtFx3phrbgJ9wzY/r0+yrw3TfbKYE2Hq6KjlJ94zvsGfHnnjrcf1pjnyrkXLgE83hoJADYc2MUi5paLO73WdSnOqulQcUD/FrV+kAe+l3OdFbWcngWgFkc6xKK1FazraFV0JOmL5Up/3wDv3UfIzynoXrgEsM/FvOoG7GcRE/HX56moxUzzXE2nU02H343nTY3vbI5sigEqX3dqcwU/sfB74b2rzxoHJyYdj34d8xzkg/QwiGNgC0c7RCpR/whri+MtKB2kg43muOlorRwF3MXMVS4BPNY61XNsOrA/1wKr6fRdivPJBzgsWr8K+iWAAt+YpjjUyVhzwJ/c+2Xvu/LK+9MsvHC2Lof1Y+IjyDkfsg0B7MHR3j3r0wPEcQf86mmvDrZxxE4mYu5C1hsuATzWGhU5LMjY84Lm82Va/GPPnwbeT+fGCRm+D+grfCZyzk4YAz9Zf1Y4D4iWF2dfCGBbR6kqq7UVbOtILUDEADuPL1JEOtjXZ4e1YVtH+x4rEbWQ++ASwOOscfLIx1P2LueIy7W8022nvolTb3HCi7apsXqO+w78ZHyo8FS6TQv49p3w3mHNfahrf5BKceNonww2jxUO9PEypbTKmgdz25vnuUl2Dmy91hTX8/D74BLA46xx8ug2uM4cJHgfcnHVdNo2xaenxiKFwwb1b3kvAX5mHLW5qs3SJzWtuYClTT5q/VTXHePn0NoKShhrjzXeShje8b072K3LOR+yxQ7sbY47Utt3U1wh98ElgMdYq2/3qL0Vhwoy5mo6pSUFnE9N9KrpVK3G9lbmF+B3amyzWnuJe6XU+fp9WGd9nCzDq+J+b6NpIpoDXPxB2w8o6H0UA1DAvWuP1t7KPYUSHKlaoyTUQu6DSwCPsUb1HJUNOKrbkONynWIqaGeta1Ocz8raVrtAqnChqmQu8DtHOzX0FrVX0DHf8tpa3/IlbHiuHknyxs/j3SO43dxgKMWRDv1Yo+71vh3vZxocpoMy5rhJmysefA9cAvi400qVNizIOLJpirhcyqqm06Q0V9PpBOa1qe20lJK5wFvVOFbUWFXty/rMl21eWStxxkexuix9vw1jP5vbDlA9xyE2KDBWOFKSjvu5u7ntYGvIKasSB+XMb2J7HrzOcAng44v1NTY2RmV7qcS9mk5JJ/S7bq6mY+FSz7ieKrvZ4+S+A29TZ5urehcAayzHfPzY0xpppRZXLjWPHMdcgu8c4QBKzjluEnRArCAG4MBxhYN0UNo7eaAkVB+6Nte5BPAx/UrVc2w8UJNpivh8ydH35ZTeblKKp3OK25Cd1Du4GjdhRhXagDfKeT7JV1Mw37YpotIWGusk6KSYtFks3pofPCRtea4eG1saX76f1/b/M9wG9xFKdG+Je4RDT9Yje7xnx4pR7dWxF6d/auPTP3Zx+qc22r9e3sPxU47r343x1/8wxPXv9p9xNuWIoxRYlp+zPQk68JEXqEurfJxQPYda3W45xjHHqU/FBPd9l6JtIi5XL+VhA/rKWplMOcekgg7wB4Yh4tRXNjc0UeVYuUYMYmNoH9Zci3smahpb3ey1te3+q4XO7XnF41BsrDBG9Af46jTPUcaaPcVrR6K9Fbt4724p/uW/Pcf5P/94M739K8Wnf+zi0z92cflvx/gv//oSU7/fB3tO/D9G/JIkoW7//rgE8M4BLK1XFniw8UDF7tV0StqAa5oUn56aQ5w85PuxvbYSj0rmAn8+blTY5qqtuc3Vsvfb9/l9WPOjR5KhU9Xae414klfz2QEGXdVzQKxwxPUPH71XR6ue455Stv6fm/i7f/Ppp8k53zr/5zb+7t98iv6f9zuwHimu0OKqgHvgEsD7nFZqbTVNKhtARMT1luN6mwobB5rVxgIE9MsF/ZJAAWPH7+eHeu/10ic3VdDwDnjnKn6uvP6rSmn/Caeq58A+1o7TQUp/tCYqawrxNnz/vj1XznndzupNY+pf8/+vuSXvZiGxARu+Ry4B/LmuS6ttJN8GizF4WQBF/PV5Kmoh1LYpns7JR4SDaCu7j0rmAu+ekytLIG9SqnbzYlphnrCO2sc7sOrv54NYHc/Vwvd5mix0v41d925QUQD2ESsc5F318XJPa4rj/CzZXh2F+9u/76N7ZyWc7p+b+Nu/73f8fh7nPprjNp63XAL480FrrdZWqufAj83VdHJB40KK86mJXjWd3authYmSucD7x4/6dgyrTRhY4VZraVT6+miD980jUcGYuvzvIT/na90BWjQPDrGBWGHVNZAFyV4cKZ4YfQ+i5HHxrxR/8x8/lmDzN/+x/+PqO+W8n0eqoGOO2zQedgngz6zZzqakBAQoMdj/fJmKOhXZtSnOqunsN8Bo63yPAIwhb5wnKp3f19iAaq2dCn/219+4s54+vjWSHp0+//qd2vsmvOQc2I8jtbny/XIfc9yRqABIyZ7+U1fUv2f99/NAY6f5bdvr7xLA2/UrtrYaR6UM4S0B/+Wai2oF1zxX0+k6K5z9BfR13TPtrYAPr1crO9lX6wnarMWVNdIG9ydV3FaumudqhfvrA9eL7gBzmBbwsLNY4SAVe61TdxCnHWw/T7VrSnb6p7aof88WsgRUHrG+cAng7YvxNT+423iAtxuG52o6BS2O+i7F+eTDwt7G+ZoI+IGPjyM1trmq7z7nlVpcWTOV+8xvVXXDB7FjWyPpUcvwda+3NQfw9Rh8jPe2sUgt3pFu0eQkHaW/b0NZ/55t5jdjJw9YX7gE8DZrtrYaBlUN4E/lHHG55KLKXjdNiqdzo2f1ThaktW262OQGjCV/rtY5fY0PLNZLnvnvfm81tw9rjeSrbFPlUOOrQ2ywx/XjMcZiCcPlS82x3hugbMIMHrK+cAng9059WvXUoI0H+Nj7c7mWVU3n1KdVk/x4x4JIeyuAd6mtzVWtG/RrbBTLxShT23jfWOK5Uj2nlvf4IWsNLeBBrLAhFQZ2EKMd6CZpzwk7eE8PsjBtbMJse/1dAvi1rkurnjaSnAOPCGbKq6bTtik+PTXRtu5PidqmvncEYq+hmQAAIABJREFU4DHjSV1r16bSVkxrbECpoFPg875he6sIrc8O/WytEBNJ6DjO+Dqo/AlihQ0li5Hi16tHoh09lE+cwUPmL5cAfr3A67v1FuFTLiuhAPbuXk0nF1VNp4leNZ3i1PZRUHsr4FFyPs7pobfHCPXN42sldkrSKUtXwP3wTBzPWq1lRyfQ5/e42/c7lHN2uAB27CjJBqr6lb2uOE5sbe0Ce2BtykPWFi4B/NzaLWluN4swWGLB9PmSizp117Upns5JgF/KYqip870AeNiYUtkpv7bCeSPndTaMW2ujsp71IhJ03AfPlfVuze/QoJIA7N4RDgipolOuY7W3cj9hL/Jh2ly5l5tde5cAfux8SqsuvsfRqSBY0u02V9MpKbg/n5pVq3TxY22jeg7Ah8aV2tpcVRpFrxGrtK2WRqUopepGo83V8dbeKySMTE6gP8ec+/9wqco0HGANeYDXuLEWKXquOwrLF/C+Ug8JOvADfZ9WL11/VT0Hlt8UmCL++jwVlaDQdSnOqulsuxiq7Nor9w8sMb/WJKU65+1Rm6uqdAVV3fBMHGn8XCdhxOGnY7w7DhbAUWKFI1TQcR/dmzXiLfMe7IUEHT7K50D4Rtum6Nq1k3PsHsG671wu6r1rnqvpdKrpbHP9q6ug454DS4wttVXRqW/OXuvjSqelURExcUmtHLS5Oo614p3JB65DvDuDBB04yBpy/z+DBB1xmXcFeO0oCTrmtw3nL5cAXi/oIk79uiPSOGYfS2ED41heNZ2+S3E+WRWtPe7XRLl/YLF5tbLNxBrL3Oe8Tp/1lJKEjM3XpKW9b9pcHcVah6Hssey/vVXO2sDDoWKFnSfcNXpcscK8B+zonT3Iz9EItLeLjV0CeHE+rf+lVmsr2Nb1lqPLc3JMKUH/p6cU19tkY3kFtbVMmDxTwELGMUf09YypbZsiKlzHj9M6FW66NmltsuGznQrcpOu6FDexs3X3W9a7PnAdIs4ZxC1wuDVkSsZnHutIh+4sX2Bf5oqdklt4Pwk68Ox8Xn8w1doKyjAMOcYxx6lPxZyKOfVNjE2WxCeYfyj9rIElTTlXdfqmaeorQz5NOWKFj75Nk6JpVE/YQl/oLlHXStDZu7Xa10lIn+2+vdXgfYcjUUGeJeR8nPnCfh1AZfGxSwBzW6u1PyYITKC8oO5yzdF15VTTadsUT81c5ccHqmXUVsbRcwQsPcY0FbUmapr0fGqqHuMYEf06v1ffpbhcbVSvqevKrJ7zem2sstJex8v12oP4wLX/9lbecwDeIueIm4ROAPYYI7sE1K7r0uqlf3NWFQNKNQw5LtepmNLoKaU4n5roeyUTH61t6/p5bXQDxpkHB9PJfV70+japukp3WyslSf3nfz73yLP1azk72DDHOfueoEb3EACAgok5+CjbXVStbbfZhJScA+UvsC6XXFSZ1K5NcT77UPXQRVBlX1YdJgbWmD/riiXqzNBZ88Np6QkjR7KHZPCUrIX3ueZes3qO6z3PTzufZxwsAAAAjhwnuwRU+/A3Ead+/VdgGJzogr24FVZNp7lX0/Gx6mHzQE0mGTqAscZc8gBrfjhtmlRdxbutnuNuJwln1sH7s+Y9s959iRvNMQAAAIXGbC4BtTqf1n/8pynriwo786WaTkEbhV2X4nxKkXyf+NgiqLILKDkUMNYsMJdU2udqzQ+oEjKWd9pRK1Wtz/Y2Rq43TuacYxxd8/23t7JnBgAAHDxWdgmo0fm8zYbF5WqjAfbqdpur6eRSquk0KZ7OTXQ+Wr3z+tX18zqJCqw23tRWQSe5z0tLKUnSWVDfp0g7S1r2PLhXPx6XXO+IiHbHcY4kKwAA9kL1Tj5Cgg7VOfVpk6oJl6vdItj/oivic2HVdPou7erUcynayr6oiheANefKquaTttYKOrFq0nLXqZqyhD21tvr6z+152Mv4uGaVMQnp+5+XJFkBAAA1sKVBVfo+bbJZMQxZaxE4kNstx/VWzkvdtik+PTXRtu7NmxdAla2AZPQDxhxzyqOtXeWgl5D8cFu0fX4UCeru0VfzTrbnMseFe59XxCwAAMDxSdChGm2bNjkdOI45boNNBjiacYz46/NU1CbiqW98vHrrAqi2Cjo+WADGHHPKg61dUbBJqgY+0lZtnx8lpaTVa8HWjkm0RZrtuUpolmQFAABUQoIOdTzozTYn7Kac43qTnANHdi2smk7Xpng6K/v/uzmhJk6iAquPO7VV0Kk0RyDn9eeYtk3VthV7pLXaPi/dBq2XoFPsWnvtw1GDQ1G7j3O0twIAAKqJ3VwCDv+QN9uV7r5JzoEq3KvplNLSI6UU51Pjo8VP54XKqueYioC1x53qKujUe6+HDZJAT71E5I/ouvWSnG7D8kk6qiqV57R69RyL3ftclNJ+3wcteQEAgGriN5eAo9sqOed6m5TnhcpcrmW1tOu6FGfVdL5f/FT2HcdmN7DJ2JPrGXv2/EH043PMNvPMVjHe3rVtWi2BO+cc45gXr4oxV1Vyb0tx6tPqY+IgQWeOcXYe5GhTBgAAVBO/uQQc2fm8zQbFbcg2F6BSw5Dj86WcajrNczWdTjWdl2tS2epHsihg7FlezQkCW30c3yrW2+8zmlatbHIb5v9eo7rJqbe1VcoztnYLumnK1rr367/n9laSrAAAgIrYxeCwzucUzQanWccx638Olcu5vGo6fZfifEqRKv+WlVJdlQ5UzwGMPysF1hVPsOO4fBujn11zSTpvs3Zyzr16zjwWrPN8aHW18RjYbHMPVM95fQ/2+w6MYhYAALAOryl+cwk4olO/TXLOlHNcbwY0YDYMOS7XqZg2H02T4uncVH3KX/UcAOOP+eXxtkpKlqTze2sn5/zoeRjGdX5OFSO3s0VyzpwI5trPz/++//zuIwAAUBMJOhzOqV+/rHLEvDl0uUjOAb42TRGXS1mVtU59U+0p4z2fLH3X85fNS8A2ct6mqor5ZRvjuF3VJEk6P7dFcs40fZ80sVb7mr5L1SfLbeF8TptUqLy3UWPn1XNUQQIAYI9sQ/CRGM4l4Ei6bpvknIhQOQf4pdtzNZ1SPla2bYqnc30fMWr7fuo0KrAlVXTqW+tsN7/PSTqSM170fdokIftHz0HO632E1+pqXVtVL37dRo2Idsdjn6r6AADsUc2tznnA8+MScBRtm6LfqKT15TppIwL81jRFfL7kGArZTE4pxfnUVPUxq6YKB1n1HGDrea+yYaj2KjrTtG0lhKbCdc3PnE8pug0Oroxj/mlcvNb6N6motJqtqhdHqJ7z9TMfm1QweuS4AQAArM937e3YuuIQtijdfXe9ZYMY8Edut7Kq6VSz6Kls1WNuArYfh+qa5xo5AZtW0bk7n5rNDm6UsNaZKySm4u7/NK2XPNykpJLOwrZMzpnbqImjXt77/T7rOecQEgMAANXFcS4Be7dlcs4w2BgC3udeTccYsuKip7Ivp8rFAyXMdTVJouvIeY6RttZ1Kc6nFDVVnO67uYLQVpU0huH3H9rXrHqy5T7B0W2ZnDM/Rxa5Xz3rO557RgcKAABgEw6Pb6tzCdizptmux/w4ZhtDwIddbznaKcep91Vv8Tmjsm80kwwdoJCxqJYEybn/uLH3NuRo2+1brjRNiqdzituQi0gaWjom3vJ65/y22Hgcc+RuvWejbVOcntfbPMbWyTnTpILxj8YA8QoAULP+n5tIt3mNmvsct39hwUjda/D2/20i3Z7j9T5i/G+mH8Tx7uOWJOiw6wHwfNpmFBzHbJMPeOCYEvHXOG2+4X10SYsrgPXHolxX2damMf5GzAkR51MZa5q+S9G2c4vRI92blO4/Wyrifr/VbYg49ev92STpPE4JsYr7+P04kHZcKmwc3UMA4J3r/L9S/O1/OMXTf2ojDV+vh3KX4/N/N8Z//VfXGD9ZP1KH5v9Lcf73ffT/z0vC2pd3os9x+++nuPzPt5j+Zn4nJOhsS4IO+xxoNkzOmbLkHGAZquksPHdU1OfCaVSgqPGoouTTpknG4JiTlIYxR1fIvW/S3PJqmuZKL3tO1CkpMSdivs9/cj3XrqITIUnnEc7ntPla+i1t1KqLb3Zcoc5cCQC819/+h1P87d//POs/DSk+/WMXn/6xi//6P93iv/6rq4vGg+PystbhT/++j/P/8fOUj3RLcfqHNk7/0Mblfxzi87++ia02JkGH3dk6OedyMWoByxnHiM/TXE2naVTTeeTcURP73UAx41Fl1WRM3S9utxxNU1aCbNO8JOoMY95V9Yamiejasqot5pzj9o6kl7Wr6ETMSTrnJsTz73juttp/+e5Z02L8++d61+2t3D8A4M/9y397jk//+PZP23/79320f6X4L//64uLxuDipoL2fT//7KU7/0L75nz//n12kW4p//l+8E5s+Qy4Bu3pgN94cspkHrCHniMvVJvRj54+6vpja8AZKmtNqkkTYX7kVWrGkaVKc+iaezim6LkXJRfbadk4qOp+a4lqhvrcizTjmyBsMDk1K8empqS5x+736LhWRnPORZ+34Mc5+/+yjEwUAwB/6F//+9EfJOXef/rGLf/lvzy4gD1PKHsKfJufcnf6hjb/5d70buWUs5xKwm4d16+Scq6+dwLqGIcfnyxSTeoMfn0Mqq2iQPTNAQWpqY1FTO8W33fuyP6ynlKLvUjydmzgXlKzTtilO/ZxMUmpVxeGDrcK2fC7Opyb6zrv68/civrwPRTxrY5Z8/pP7lNKeW1y5hwDAH8RIf6X4m//4/oQCSTo8ei2+tfcm59z9zf/Vx+mfWjdzI1pcsQslJOfYPAC2kPNcvavvophNcovm8pmzgNLGpJoqVjSNcfi1ccwxNlFc9Zfv7ltK0XRz1ZCc54SAcYovv15yjdI0c1Wf0lqC/fSdfkC7oWman42tnouum6/39ZZDXvOLvktFxRzvbaNWx1yz3wBnHN1TAOD/Z+/uYm9L6/uw/5619tr7nJnhHMyUYtmYmVEDCJiUWhlVJFEA0yj4psjIdWXUqIpvIlXNIJuLyE2Q0looF7molAyK3asmFxVUjqWEm8iVDQJLsVUNimlh3ECqYTCxoPZgzjAz57/3enl6sc4+b3Ne/i/7Zb18PtJfYpgz/7P3s9d+XtbzXb/nbB775vLCv2NbfcdxV4x9Ln7RcM7Woy9WsXm89YEegYAOI+johHMA6iZH2+WoquTp/BFOmg+pUy4eGFq/lHNEzKcfLoqkL77Lps6xKsZTYSilFGUZUZZx89rtco7c9eHpfNd4+6D1Yl/l4tbvLdKt/2+s85PNZjfXd93kowa3iiLFpVWKpnG0bFFELKs0uIosjra6v3LEwVdDJABwVuc52upBv0dIh9F+F3YUzomIWH1fBZ1jEdBh0MoyYlkd767Dpp5PKeV+039GF1faXzuGm03s07z2OHeimNmBnkKlgH7pyNNM4/Q9rdc5Lq3GeyRLkVJEeYAFxdA/x023s4ozOfchnWMfN7VY9IGsuplfZY+i6KvmTPEYtcmPNWMO6EjoAABnsOtjeIR0uOga6lh2Gc65/fulis7hCegwWGWZYlkd7ybRps6zujlXpHlVmNhfOybhCRiYNLOdUve7gaGZ2/ExptQPXmOtlhpozJ/frgMTTZOjLI6/Fk0pxbKK6Bb9a2onfn9yyMGcfj6rqtHDx5rx9qWCVwDAsQnpcJG141Gu2T2Eczjiek4TMETCOQDsbLIzs33AnI1fwPDM6Wl5ofcHXQd9BRbGp233t0Ye0jFGRUqxrIq4tEpHPX5rX8oyxWqVYrUsBt1Xrdfmsw/+HMfdlwAADMHl7y7i6tdWGoKzrRmPkKwQzpkeFXQYnGOHc+pGOAfApHm8PJEKDLVvmlN/nNL8Kged5VrY1Pmoaz7Opm3zXkM0OQ/vmthW1IkqRXMjnDTWOVZRRCzK8QSOhPhO8ZmOuHqOsREAGBKVdDj7XPzA16hwziQJ6DAoxw7ntG2ORhllgEmZ0wlXnfOtgKH2T3M75qqIyR+Rc9F11yZCSGcU3918kAo3bZujLWKQIZJFmWJRpsg5R9vFKMI6xY22LItxHfdaN1nY/JSf72j7f+sVAOCMNo/vd3EtpMPZ5uKHW18dIpzTXLEAOwYBHQajWqRYLI4bzhlSaW0AdiPNKKHjfjcwVP3xe/Ppj4uUog2d8kPXXyGkM+x5RT7oUUObOseqGG51kJRSLMo+sLO9htuu79+OHSopiv5GcZFitEdzeWDqLJ/3ePtNASwA4DzWb2tj9f39BRWEdDjtuutQDhHO2TzeRldZgx2DgA6DsKyOW25ZOAfApHkKlIwHhmpuG3JJ5uT067AQ0hnkd/bA4ZytzSbHpdU4roeyTFGWEdvwYdf1QZ0u7y+0s53blkWKlCJSMe7jjm6NEe7JzGF9o9onAHBerz1V7zWgEyGkw2nm4odZex3qWKtX31n7UI9EQIejE84BYOyT5qFw0xsYeh81l345FT7vs6zH1jnHaqnRBvNdPVI4J6IPG6833Sivh6JIt4Un0m3vKd8MUed8+kD17UGMKfedXc6x3pjDnnp8SarnAADzs3m8jetvb26GaPZFSIcHrtEOMBU/VDhn/bZ278fHcX8COhyVcA4A+zS3CgZuegNDNqcqX31FC+uMs4xfYw1lTO6zOGI45/brYVPnyVRWSimpqjXg621040sx7s8bAOC8fvTeTVSvFLF4Zb8TIiEd7mff+9mHCuc0VzrX97HXdZqAY1mtjhvO6bJwDsDkJzoz2gzJbngDAze3Il+F1fbZro8u4vpJZwP3iNp2OGEJD9PMg3DOvMaW1gO6AMBF1oxVjh984CSaK/t/QvHydxdx9Wsrjc7B5uGHDOf84AMn0VXWYke9njQBx7BapaOek+4pLYC5TJznk9BRPQcYfj81r/m3ihnns17naFtrtUMbYiCmbV0Lk/6ub0xez7W+Geng4mECAGAXhHQ4lnKP+wwHC+dcFc4ZzLpOE3BIKQnnAMA+uOcNDN3cgoSFhM65beocdWNgO2R7D7VazaYW0pnenDXHetMJl59nXBnz8VY+bwBgV/MKIR2OMRffU37mUOGc9moXf/6XhXMGcz1pAg52sRURl1aFcA4ABxt3ZrU4ldABGBT5nItpmn4TX9WF/dkGJYYegBHSmdZ89WSdhTXOvb5JI/7sfX4AwA7nFkI6x1lDLob1ew4lpf08hHXIcM5rH9pEW5qUD2Ztpwk4zE2EiNXyuJebcA7AvKSZ7YzavwTGYE7HXAno7OJ6iThZ52iEM3aubccVlNjUORpVlcb9fXZP5sLGfHpvJ6EDAOx6fiGkc/h12ePtTn7PyY83o3rfZTn+cE5TeEpiUGs7TcD+Oy7hHACOMMmZ2caoJ5GBUfRVM5qSF4WEzq7UtWo6O23PZrhHWk3xddMHwtyTubg06oCOzw8A2MMcQ0jnoK6//eLBmrzIsX5bO6r3Xe44R3PocE6ucrTm44MioMOeO60Uy0o4B4AjTHJmNMtxvBUwFnPrrlTR2eFYp5rODtowx8m6G3UlmrYV0hmbxme2w/XNOAcVaxUAYK9zDSGdg7b1q++sL/Q7Xnuqia4az/xw18dbHSOcs70fwIDWdpqAfenDOce9eSCcAzBjM9oUzRLwwEjM7YaAgM7u1XUfMnFz6QzzhJxjU3ex3uRJhOTatq+oxPBt6hy1cM5OjPnhA2sVAGDfhHQO5/Wn6nO3c3Oli1fftRnV+12UEwjn5Bwy8wNb32kC9qGqhHMAOPIkZ0a7oibYwFjM7YgLx1ztb9xbb/qQhsoMD9Y0OU7WOdp2Wu+r6yKunwhqDfc72n8/WxWvdiaNeG3jawoAHGTOIaQz6HZurnTxgw+cjO797up4q2OFcyJicvcDpkBAh51bVmmnicLzLf6FcwDmbG4VC9z0BhjoeKQJ9jv+dRHrdX98ThbUuUPT5rh+0kXdTLtd1hvHng1N2/ahsE7VlJ0ac95TkA4AONi8Q0jnoO38+lOnO+7q9afq+MEHTkZ1tFVEX8VyF0H5Y4Zztms0hmWhCdilZZWiFM4B4MjmFtCxKQmMSdfl2VSWKTwScxBt21eIKcscizLNunJR0+TJh3LuVtc52jbHaukLd2ybG58FxpM7x32fHwBwwLnHjfDIW/7gUixe2e8k6vJ3+232a+9fz7KdX3nvJl57qo5HX6xi8UoRy5dvhVA2j7fRXOnitafqaC+Pc42wi2IUxw7nON5qoNeWJmBXVqt09ONEhHMAiJjfkSJuegNjMqsbA0roHFTb9mGdouiDOsd+eORw36kcTduHc+Zqe+TVEB4ammf7bytZaQvrmzf2TwAAB5+fCukcbh1+uQ/qTE1KceG15bHDORGOtxrs+k4TsAtDCOe0rXAOADcm0JoAYLDmtFdXJCPSMXRdX8nj+kk36YoebZtjveniZJ1nHc653abOsakllw/d5uuNcA73748BAI4yD3HcFRdQLcYfztneN2B4BHS42AVURFy+VAwinLOpdTIA3BqfZrPY7Ix/wMj6rZnt4sroHNd2rXiynkZYp38/3c3wkc3ve7VRX03Hjcj9atqsna1tHkpwCwA4JiEdzusi1XOGEs7pOg9SDJUjrrjQDYIhnPEunLMbTRtRzGiTdxfl6e53PRrwGJtJXrPJ5weg3xrOvFNfPYzrrm1zX965zlGW/ZExRTHsSkdd7kM4bSuMc1abOkfR5qgWaXbHn+71muxy1I3r8ZDGfP22HiYAAI49f3XcFWd0keo5QwnnRPT7vgyTgA7nUpYpltXxbxA0bY5aOGc3nXmbY059dVHsJ6DTuHEOw/iOz6hcgU1fYGzmNldKKUWEznp465/bSz3nfn1QpEipXyukI8wl8o0wTs79prZ1xW76m/UmR1n2QZ2kpNUF2lIw53jjiLUKAMCF5rJCOpzB4pwBnSGFcyIcbzXoa0wTcFZDCedMoTw5AFx4gemuN8CgFSnCQ0sjGE+7u4+NzDePlSlvVK+4/ZiZ81S06HK+mdXahhy21SWEHvZrG8gqy4hqEYI6Z/puCOYMYRwZK0sVAGAw81ohHU6hEs7hAAR0OHPHtFgI5wAwXEUxr/frpjcwRl2XZ3PkjBzAmK/TW9frPUZgDTRC22POyjJiUYajrx7SVirEDmV9M87rtHO8FQAwtPmJkA4PkNL5qucMLZwT0Z/2wYDXeJqA01pWwwjnrDedcA4AD5xIz2phadMEGKE5hQsFdGB42jbHepPdX3hD35yjaXKcrLvY1MI5XHCd4qsFAAxxjnIjpNNc2f9k9/J3F3H1ayuNPhLVRMI5XbaWGzoBHU5ltUxRlsMI5+hUAHjg5MZOKMDgCegAQ9B1fYXe6yc3AikzLU3Ytjk2dRcn6/44KxUaB7S2GfGdW9cRADDYdYCQDveYd591H3yI4ZyIiKbxeQ7+etMEPMxqlY5eTrfLWTgHgNOZ0UaosvHAaPuvWQV0JHRgDNo2x3rdV4+pm+mHdbahnG04qW1dA0M05mPYrFUAgEHPVYR0uE1VTSOck3NWJXYEFpqA+98EiFgtj5/h6nJ/kwwATjV+zWgf1FOpwHj7rxxzSlSmpM+GMc2vmibfeOowR1mmKIv+HsmYA3dd15c5bzvlzkc1foz4tbvOAIDBz1duhHTe8geXYvHKfvdDL3+335K/9v61hh+YxSKdqSr/UMM5EeHBi7Fcc5qAexlMOKfrz4UHAN7IZi+g/xoHAR0Yr7a9VV0mpRxF0Qd2UjHco1Vz7kM4OQvkjF2h9jkAwF4dOqTTXs7x6rs2Gn4gUoqoFqdf1116oRpsOCciom7cfBoDAR3eoCxTLKvj32Tqyy3rSAA4m2JGJXSMksBo+68ZBnSAafRdtwd2IvLNyjpF6r/rKR1uPtrlHJH7YwNzvlUlB+PHsTneCgAY1dzlgCGdx75VxfWfqqO9bL40BGfZDy9eT7H6o/1HK84bzmmEc0ZDQIc7VIsUi8XxV/9Nm6MWzgGABy8e3fgGRiznPOrjYs6iSClasUqY6HwsIiLHnZXE++/77dVPynuEdu5XHaXL8YYkdpfzzXCjEM58jHWcVDUOABjdvP6QIZ1vLh11NQCLRTrTwxWrF6q9v6bzhnMi+r11RnLtaQK2llWKsjz+wn9T52h1IgCcgxLwAOOR84wqy6igA7N0e5BGsJo5rW0EdACAUc7fDxTSufS9Mq69X3sfe65dnbFgRfUn+52gXySc07bZHHxM158mICJitRTOAYDRLRo9PQ2M2JxuHBQCOgDMSCuQBgCM1Dak01zZ343X1KQor7tRcExVdbb2L15Pker9fWYXCedERNSOtxoVAZ2ZSylitUoHOx/9QdabTjgHgAuOaxY2AGPhyR4AuL9SuhMA4CgOEdIpX7dFfyzLKkVxxn2E4rXhhnMa1XNGx7d/zh9+EXFpVZy5E9q1nHOsN50qAABcfGyb0T3szqwbGLk59WKFTVYAzmrEQ4d7fADA2B0ipMPhLRbDOFFm66LhnIiIurZPMDYCOjNVlilWy+N//F3OcbLOFu4A7Mac9j/Nu4GR6xx/AQD3NdZspwcJAICp2GdI5yKBDM45vy4iqsX5Jtndo7v/vHYRzmkcbTXOa1ETzE9ZplhWx1/lt22O9VrHAcAOJzYzCui47w0wLk5hBOBsA8dYFyo+OgBgOvYR0smLHLXKPAdVFHGhwhXdI3mnoapdhHMiImoBnXFej5pgXpbVcMI5GyW3AOD8CznDKDByc6uiKaADwFkUIx04VMkGAKZm1yGdkx9vNeqB7WJvvP6J3Xz+uwrn2Gcfr4UmmFfnM4Rz9ZomS/QBsBdFYfcTAAAYtzGHOt3x42xr+Dde+w8KpxWnfNz4QUGx9q5jVoXKADjV2HIjpPOWP7gUi1cuVv/i1XdtNOgBrVYp0g4m2Ov31rF8qbzQ79hVOKfLOdrWzHusBHRm1PkM4cmbTa3DAIBduPumIgDDVhYpOn03AKcw5oCOsY6kuQOwAAAgAElEQVSUbv1s70dv/zniMA/WPCjIs3jA+XFdzjdTZtvgTpdz5Bw3fwCYr12EdF59Zx3tZQPKoexyf7x7JMf6PU2s/uh88YpdhXMiImrVc0ZNQGfiLnqm3i6tN50nEgAAgJu6Lqt+BgB3SSNO6AgwzENR9NdpcXsYZwJzuiKliHTrPd74Rt45f70R4ulyROT+4RnhHYD5uEhI5/rbG9VzDmgfxStO3ltHej2duZLOLsM5bZvtt4+cgM6ElWXEshLOAWAeimJe79fNP4BxSXJIAJx2bTPmI66sUya3zi6KdKMajmOl++9nH+LZ3oK4vSJPdyOs0+X+f7sfDjBN25DOm15YxuXvnm6r/fWn6njlvcI5h7LPk2WuP7OJ/Eh16ko6myfaOHl/vZNwTkR/Wg3jJqAzUWWZYlkdf8HU5RzrtY4CAHbNjW9AXzYuAjoAnH7QGOu4bpEyZkXRH8nZV8MZdyWn47Vh32blbV/knPugjtAOwLR0VY5r71/H9bc38eiLVay+f++KKtuqOY61Opx9hnO2Tt5bx+bJJlYvVPetplP/RBubv9BE89bdDf514zqaAgGdCVpWKcpyAOGcLsd6o6MA4DDcPAQYH/t4APBGxWgDOj670VxjNyrjFMI4e5dSirK8M7TTbUM7XY621UYAY7Z5vI3N431nvny5fMO/47AOEc7Z6h7Jcf2ZTVx/JmLxp3eW999lKOfm39flaAR0JkFAZ2KGEs5p26zEFgAHNadK255MBRjhOFWkiNB/A3AKI13bdIa5Ac9D+uo422AOR/48UoqijIgyRVQCOwBTIZBz3LnOskpHCx3vI5BzN9VzpkNAZ0IOmQp8YCfUZJ0EAOyRfA4wFV3OMdpdSADYk2Ks1UysU4ZzDd1WIWcID3Py8O/8HYGdLkfbORILAE4771kti0m/x6YxJ5gSAR0dz05t6hxtazUOwOGpyA0wPgKHADAdnYH9qMryVpUcR1aNW3Hjc4xIkfOtsI7qOgBw9/wnxbKa9rynywpjTI2Azugn68MJ56w3nfQeAEeTZnXElc8bYKzrN2smAB42VlincNo1cFGkKAtVcqb9OadY3FZdp21ztMI6ABDLKs1iDlTXJtlTI6AzYkNJBeacY1MrrQUAhxt7tQGgPwMAhsW9wf1LN46sKssRH4XGhfSf/62wTtO6Lw/A/OZDy2WaxVyodrTVJAnojFRVpVgMIBXY5RzrtbvqABxfUbg5CTA2AjoAYF3Dwy0WQjm80Task3NfUadps/k1ABMf+yKWVTGL99p1ORpHW01zbq8JxmcoJbvatq+cAwAAwMOVRYqus4YC4P7GGr/IUgG7nzeUjq/ilP1GSrFY9EGursvRtP29ewCYkrkcabW13hjLp0pAZ2RWq2GU7BLOAYAjjsM2dwEAYJpGuucgn7MbRRGxKJNQDhe4hlIsi4ioUjRt/+S97ycAY58fLasUKc0pnONcqykT0NH5nFnT5KiV1AJgYOMkAOPUddlxHgCwXdsI6MzSYpFiUcasNp44wHVVpliUKdo2R9Pm6Oz1ATAyVdWPZXPSNMbsyc/RNMEIFuZFxGo5jJ3HTZ2VxwQAADjn2g4ApkhA53zzAtVyOITyxnWWc466cfwVAOOYJ82tak5E/xCbIhnTJ6AzgsnzshpG57PedBJ7ADAAbn4DAMA0jbWqnCXK6ZVlXy1HBUEOLaUUyyoiLyLaNmwAAjDAsSqiWswzwJxzjvXG2DwHAjoDNqSyXcI5AAzZ3G5sCugA+jQAYEi6zoD+MI6xYihSSrFY9Ndk03hSH4BhqBYpFov5zpM2tfF4NusCTTBMy2oY6cAu51ivdQhMk5tHMB1ubwKM15wCOn2g1BwUAOZk7ptNDNvixvUpqAPAsZRlimox7xDzps4KZcxp/qUJhme1SlEk4RzY6/XdhVJxAAAAwGAUxXhfuw2FO835eAbGSVAHgGPMfatqGHvix9Q0OdrW2DureZcmGFZHtKzSIBKCbZuV0gJgNOY0h8/OggEAABjs2lQwhzHbBnU2tc1CAPajKPr5Ul9leN7aVjB2lvMtTTCczmi1LAbTGQjnADAm8wro+LyBifVrMxyz9OUATGld4yECwRymZ1mlyIuIusnRttoDgIsTzLlTl+3Hz5WAzgCUZYplNYzOSDIeAAA4pK7LETGfmzMCOgDcz1jL+899XKtuVByB6c1b+32Lruyf7neUHQDnUZYpFouY/VFWt+tyjvXazaG5EtA59gKuSrEohXMAAAAAAMZCMIe5KIoUq2WKps1Re9IfgFNaLFIsyj7wyZ02G+PprL8bmuB4ltVwyp6uN50EPACjNaeymKouAADANI1172Ju9xTLMkW1sNnE/CzK/mFjD/oC8KD5rGM/H2y96dzjn/ucShMcx2qVBlPKSzgHAMbD5B1g3Ioi3TjWCwDuJO8x9DG8r4bueAbmrj/2qq/I7x4FABE3jrEq5/Ug7XnYkydCQGf2C7m6yTdfF/NjEAAAwJz0sNyqAmByY/nEN+g9CQ5vVBQpLq1SNE2+uccAwNzGgr66mjnS6QjnsCWgc+COarUcVhKmWqRwi3ieui7H2hmHAAAAAMMw0lt0ecIlNKpFisXCvVO4n8UiRVFG1HW26Qgwh+lq2oZyHPd5FsI53DF/0gSHUZYplpWOCgB2TRU4AABgEmsbmxyDWmcuq2TjCU7Zd62WqukATFVK/T53WZqvnodwDncT0DlEIy/SjUo1AAAX07nXBTBqgqUATG6NMrENh6pKsXBUA5zZtprOZpMju3cBMFivNct4qXtPrP7j98WVx38i/pN3vy+uXLka3/3j78Sffu+78f+9+G/j6uv/Vzz1pj+LohDKuQjhHO4l/fHnPm6qtEfLytl7DJMjroCpGOIRkib1AGdz+dJ8+nHzcACmNh5eP5nGAqUsI5aVJC3sQt3kaFTTARiU15plfHv51+Iv/+zfjCtXrj70z//b5/9NXP+j/z3e/ab/oPHOwX187kcFnT0qihDOAQAAeIiuy1EU1k4AzJcKa8flIUvYrWqRokgRm1pIB2AIvnP9rfGOv/7346M/9Y5T/zc//cxfiXjmr8RXfvu34h2v/Fa8qdpoyFMSzuGBaz9NAACMWWlDFwAA4Ci6kZ/BW5Z95SLhHNjH9yvFpVUSQAQ4shc274+nf/4fxdvPEM653Qc/+vOxfvrvxY/qpcZ82Nw45zhZC+fwYKZGAAAAcKhFuGApAAzCskqOtII9SynFalnEYmEODHBoZRnxJ5u3xt/4b//BqY60epB3v+dpIZ2H6HKO9TpHVjyOh7ACAQAAAABgFooi4tLKkVZwSNUixbLynQPY5/xm29deWqW4fKmIdVyKn/zI39/Z3yGkc39t24dz4FTfV00AADAeymMCAMD0jLXC2tjWJ9Wir+aRkqAAHFpZplg58grggnPGvjJOP6e5FcbZVisry3RznvPv01+Nn3z7O3b69wvpvFHT5NjUwjmc4XusCQCAMXNfFWD8lP8FYPbrGk2w93XjapkcswNHVtw48qostQXAA/vLog82bqvirG4L4iyrPoxTFOm+oeMf1cv4z//G39zLa3v3e56Ot3z01+Pbrz4++89pU+eoGze1OOP3WxMAAGMmoAMwfgI6AMC+lGXEpVUx2ipFMEXbzWWAuSqK/mexuC2Es+xDOLeCOOlmVZzijDfB/9/Nu+PKlat7e/1XrlyNd37sH802pJNzjvWmi7Z1Q4tzfP81AQAAABxwIW4lDsBEtN2wNyX6DS8DLwz3+ymkA0xzzX97+Ka6Eb65O4CzWhZRLW4L4ewwTPzoT31g7+9zriGdts1xss6jO+qVAfURmgAAAAAA4HhUBt09R1rB8JVlf2wLwNBsQzbbn+1xU9VdFW9Wy1vHT90vfLO4Eb45ZDW/H3vrTx7k75lbSKducmxqVXO4mIUmAAAYh+wMGAAAmCQBnd0piohllSJpVBjHdzalWK0iNpvs6FuY6bhd7iG4ctrKtVM9AvPd73n6YH/XNqTzrS/83XjysZcn2Z4598EcVXPYSf+kCQCAMZvTPVc3qgAAAGuU+yvLiNWyEM6BkSlSikurwlGwMENlcaPKzI5/thVrHvbDbky5ko4jrdj5vEcTAABj5sYrwPh1AogAMEpDCugsFimWldvdMGarpZAOwFhduXI1/tLf/F/iD1/7i5N5T5u6c6QVO2eqAwAAwFHN7Qi/0lN6ALBTyypFtTC+whSslkWUpe8zwEX82+f/zdH+7v/iv/kHow/ptG2O6yddtK1rid0T0AEAAAAAOCJHLJzfapls5sPELCvfa4CL+PM/+dZR//4xh3RUzWHvaz9NAAAAAADAWXQDOKNytUrCTTBRQjoA51dc+6Ojv4axhXQaVXM41PdTEwAAAAAAMBZFEXH5UhFFsnkPUyakA3A+f/FN/z7+w3e/c/TXMYaQTpdzrDdd1KrmcKi1jCYAAEY7kZnZTCZbIwAAANaBsVq6rQ1zIaQDcD7/z5f/10G8jiGHdOomx3qdo+tcLxxO+uPPfdxWz54XjDBUBhxgCuPsnG7MNk2OujF1A/Tno+/P2+zJLADucPnS+MbBts2xOfB4JpwzPtuj0HK+86GTLkfku55CufvPnPXauFt52/FnKfU//Z8V9hijTZ2jbc2hYWqqRYrFQr+8L995+6fip5/5K4N4LV/57d+K913/3CBei/syHNNCE+x7AaINAAAAuMWeEABTcOgKn8I5Q7wGcuTch20i90dEbEM2h74+7nUffhsOuscrj4hboZ2UUhTp1j8L8AzTskqxiRDSATiDH3vxs/HvHr0S737P00d/LR/86M/HV347jhrSadv+AViV6jkmAR0AAACOyoMNAMyZCtwPV5YplpXQxNHmajlH7uJGGOdGKGcC87dbQaIc7Z3/5uZ3syhuhXcEd45PSAcONDepU6y+X8by5TLK6/vt+1JKNyucHUJ7tYv2rV3UP9HO4rN8U7WJ+Po/jFd+8tfjypWrR389xwrpdF0fzBnz/OXS98pY/qCMxSvTWjy0l3NsHm9j/bY2umoe47sjrgCA8S4WHXEFMBljPNrjvLoux3qjPwdg3OuaQ61PhHMOP0/pbgRwcs6C1Pf4vqaUoiwiUhFRJNfmMTjuCvbUx9UpHnmxise+VU3+veYqx/q9Taz/QjOLz/bbrz4e7/zYPxpESCficMddTSGY8+iLVTz2zSpSM/05x+tP1fHqO+vJB3UEdACA8S4aBXQAJkNABwDrmnGpmxzNntcnwjn7tQ3g9IEcYZzzX6c3Ku0I7ByUkA7suC+7nuLHnr80ueocD53P/EQb15+pI8+gcsecQjptm6Npxz23KeoUV7+2itX3y1l9J5srXVx7/zrqK9OdmCqgCgCMVnLjCwAA4Ci6br8bWUURwjk7lnMfaNjUOU7WXZys+//dNMI5F9G2EXWdY73Ocf2kExw5kGWVHBEIuxpz6xRv+f3LswvnRERUf1LG5eerWbzXJx97Ob71hb8br7xybRCv54Mf/fn4xuVP7HhM7uc4m3r8c5s5hnMiIhavFPGW378URT3ddYDpCwAw3omMe7UAAADTW+vNrFrqPrVtX4l1vbkVyGnbHFl+ZK9tvqn7sM5600XT5sgafC9Wy0JIB3bg6tdWUV6f743W6k/KuPSCkM4xfPCjPx9/9u7/MX5ULy/0e5rmVkh2CkPuY99czjKcs5WaFG/+6mq6ax3DDgAAAByQgCkA3JdwzsX1AZHu5kaVCjnH03V9dZ2TdRbW2RP9BVzM8uVy1kGAm+3w78tI9TwW60ML6bz7PU/H+um/F9deq884xt4KxNbNdMbWok7x6IsL38mXy1i+PM2+ycwFAGAkOjfxAKaxEHdEIwDce4wUzjmXnHM0bR8AuXXEknYZ3Jr+HmEddmO1Mr+G87r8XUGAiIhUp1i+NJ+g0jakMxR/8H9+NT726S+fKqTT3DjGar2Z5pGSl7+7iNQY1yIiHn1xmpWtrHYAAEZCPgcAgGMqyxTVYrc/Zenms/XJLVXlejiLtr11dFVdq5IzJtuwzjZQ1XUW/BdRpBSrpf4DzuPS91TPuTnX/dN5bZs/+djL8bv/2/909Nfxj//xP46/9bf+Vnzj29fuG9K5vTpgXU/7qM6pVo05X1tM8zspoAMAAAAAPNSijFgs0m5/3H+OsRZW2/XGyGqVVJk7hbuPrxLKmcZnut701QBU1Tm/okixFPKDs89DVOq41Y+8Nr+2+M8e/b+PGtL5pV/6pfjlX/7lm/98e0inn/Pk2VUHLK/7Tt7eP02xPQR0AAAAOLqsTBgAMyWUErGshHMeNk+qm+z4qsl/zreq6tRNNj8+h7JUmQ3ONP6q1HFnH3Jtntvmxwrp/NIv/VL8s3/2z97w/3/j29fiv/z7X44/u7aZ5BFWD7N4RXzjju/l69NrD58wAAAAR2f/AQDmqapsqN/P7UdYNY3J0pw0TY6TdV85QFDnbJZVisLOF5yur7miDNvtukfm298eOqRzv3DO1gsvXYsPPPvb8Y2Xrs1v/nfZuH9HezwyvX7KNAUAGC0PWAIAAIxXWaZYCOe8QR/OcIQVfUhLUOfsVsvCPSM4ha7Sr9zRHo/Ouz0OFdJ5WDhn60ev1/ELv/Z7swvpTDGQcqH2mGBgSUAHABgtN1sAAAAObxdBgaLoK11wq003dxxvpE24RVDn7JZL/Qucxvptzk3can5CW+wzpHPt2rX4+Mc/fqpwztYcQzq+k9NvCwEdAAAAAABObRf5gNXSremIiK7rQxcn6xxtK3jBg90e1OHBipSEAOEUrr+91gg31AI6EdGHdL7y27+109957dq1+PCHPxz/8l/+yzP/t3ML6Zz8eOMinHhbWAUBAADAoRfjVuMAzNhqZdO863KsN12sN4I5nF3b9tWWmsa18yBlmWKx0N/Ag5z8eBubxwVT1u9pontEn7r1vuuf21lIZxvO+cM//MNz/445hXTayzlefafgXHOli+tvF9ABAAAAAIBzW1YpihmfV3x7MKfrXA9cTN3kOFl30XU2le+nWiTheHiIa+9fR17Mtx9pr3Zx8l6BiLvtIqSzi3DO1pxCOq++axPNlflOFPMix7X3ryf7/kxLAAAAAADYu7JMUZbzDOfkLJjDvq6tiPUmx6Z2Yd2Po67gwdrLOX7wl09mGdJpr3bx2oc2LoL7uEhIZ5fhnK0fvV7Hz/7qF+M3v/ydybf9Dz5wMsuQTl70/VE94fcuoAMAAAAAwF4VxTw3yXPOsalznKwFc9ivto3+2CtHpr1BSklIBx6ivtLFn37keqzfNp/jrtbvaeLVv76OXOk3H+Q8IZ2vfe1r8eSTT+40nHO7T/3GV+Nf/N60QzpdlePP/tr1WR13tX5bG3/6keuTDudERCx0KwAA45CtFQEAgAE4z2k61Qw3x5smR91YyHFYdZ2jbXMsqxQpCaVslWWKsotoBZjg/uN7lePPnzmJ8nqKy39cxfIHRRR1isUr06j30Ly1i1zlaN/axeaJVjDnDPqQTsQHP/rzD/2zX/va1+LDH/5w/PCHP9zra/qVf/rVWJQp/usPvSPaLkc70WzZq+/axOtP1XH5u4tYvlxGaiKWL5fT+E5e6aKrcmze0sX1n6qjvTyP76SADgDASAjoAAAAw1icnO2PV1WKYkZBgbbtq+bAsXRdxMk6x7KK2R4rdy/LKsVJl91fgYeNY5dzvPquwxz7VC1SLBb6qTF43/XPxb/7o3fHu9/z9H3/zKHCOVvPPvd8RER84iNPRFQRTZujaabXz3dVjteequO1p2oX4gQ44goAAAAAgL0oy4jFTAICXc6x3nTCOQzGphYWu9tyKQgAcF6rr//D+Hd/9PV7/rtDh3O2nn3u+fjcF1+KiH7OeWlVxGqZBFQZLAEdAAAAAAD2YlnN4xZ03eRYr3N0nc+cYWnbHCfrLjplYyIiokgpKtU6AM7lTdXmniGdf/Wv/tVRwjlbt4d0IiKKIsWySnFppc9ngHMRTQAAAAAAwK4tq+lviLRtjusnXTSN8APDlXPEep2jbV2nERGLRYrC7hjAudwd0vnn//yfx8/93M8dLZyz9exzz8ff+SfP3/H/pdQfoXb5UhHLKkWS1WEI8xBNAACMVVGYUQMAAAxRWU7/aIFN3UXb+qwZ0zWbo+zmEZ57mKpKsV4LLAGcx5uqTcTX/2H80//jP43//pf/h8G8rs9/qa+i89lPPnPfuWnb5mhaVQ85HhlhAAAAjs6NEQCYlikHALZVc4RzGOv1u96YfDvqCuBi3lRt4mf/o9+P9z15dVCv6/NfeukNlXRuV5YpVssiVkvV1DjSHEQTAAAAAABwWm334KoTUw7nbOouNrWqG4xb10WcrLvo8ryvZUddAVzM1Uer+MJnPhRXHqkG9boeFtKJ6Kvzb4M6jr7ikEw9AAAAAADYibKMSR5tpWoOU5NzxHqdo+vmHdJRRQfgYvqQzgdHGdKJ6IM6l1ZFLCtBHQ5DQAcAAAAAgJ1YVtO75Vw3WdUcJmu9ydG2872+iyLFQkgH4EKefurNow7pRPQB80urQnCT/c89NAEAAAAcVlm44QPA9FQTO9qqyznWmy6aRjiHadvU8w7p2IwFuLghh3Q+9Cu/E9deq0/15xeLFJcvFZOsCMkwCOgAAAAAAHAhRRGxmNBGRtvmG8f/+GyZh02dZx1GW1Y2YgEuaqghnW98+1p87NNfPnVIZzsurFYpCmkKdr1u0gQAAAAAAFzElKrnbGpHWjFPcz7OrSxtwgLswpRCOkVKsVoWk6sSyXGZbgAAAAAAcG5lmaJI49+4yDeOtJrzUT/QtvMN6diABdiNbUhnaM4T0onoq0ReWqUoS58tF5f++HMft9oAAEbp8qV5ZY2vn6itDkxXtUixWMznhnjT5Kgby/H78fQyDLSvrnYfwui6HOvNvPvDMY6B6013x9FPU1ibuRbhTmWZZnns06bOQnpgHsSOfO6LL8Wzzz0/uNf1vievxhc+86G4+ujZq/zMOcjKbiw0AQAAADAk1SJFUbhJCzCWPnvsmjZHbaMF7tC2OZqirxowJ8sqxXUBHYCd+MRHnoiIGFxIZ1tJ5zwhnbJMcblMbwisw2l5Jg0AAAAAgFPbbkakFKN/6n1TC+fA/dQzrSZTqeYBsDOf+MgT8dyzzwzudX3j29fip//2v46vv/jDc/33q2XhaETORQUdAAAAAADObOyb2J58hofb1DmW0VcMmIvFIkXT5siye7B3TZuj7Q77ZUspxX0Ltqa4579T4fVihlpJ55XX6/jYp78SX/jMB+Ppp9589vGiTFEUfaDVnJJTXzeaAAAAAACAsyiKcW/YC+fA6W3qHKsiokjz2aCuFik2qmvB3uUcRwjD5WjP8d/cPQ/aSum2/vH2gE+aV7/5MFMN6RQpxWrZjxmtIxI5zTWjCQAAAAAAOIuxVs/pco7rJ8I5cFbrdY5uRiVlyjKFfXXgvvOJ7tZP20bUTe5/6hzrzY2fdT/nuH7SxXrT/2zqLpomR9Pk6Lr+Z06GetzVNqRz3uOuIiKWVYqlI684BQEdAAAAAABOrSjGedRDl/vNMuB86plVlBn7MX7AgOYg9wjzbIM8d4d47gjwTDAY+YmPPBG/+DNPDO517SKkU5YpVitjBw9ZS2kCAAAAAABOa4yb1sI5sIPvUdcfDzcXZZnuOMYGYN99bNfdFeC5UYXn9vBO246/8s5nP/nMZEM6RUpx+VJh/OD+14gmAAAAAADgtMZWPUc4B3b4feoiNjOqpKOKDjCUvncb3tnUtyrvnKxvHZvVtjnyiCruDDmk8+FP/W587osvXej3rJZFlKUxhDdaaAIAAAAAAKZIOAd2r21ztEXMYuOxKFIURY6u87kDw5Nzf2xWG7fPdXIURURZpEipP5o0pWH215/95DMREfH5L700uNf27HPPR0R/JNd5LasUTeqDVbAloAMAAAAAwOQI58D+bOocq6I/ymPqqkWK9UZfAoxoDtTFHcdgpdSHdvrQ4bD67qmHdBaLPig1p+pzPOSa0AQAAAAAAEyJcA7s32aT49JqHlV0UsqRdSnASN2stNNuO7JbVXa2wZ1jmnpIpyxTrFIIe9LPKzQBAAAAAABTIZwDh5FzxKaex9lP1SL5wIFpzZe6/uil9SbH9ZMuNnUXTZujO1Ia8bOffCbe9+TVQbbVs889H5/74sXCQ0WRYrUyliCgAwAAAADAhNSOEICDubMiw3SVZX9ECcCU+/O67kPOJ+suNnU+eP/+hc98aNohnSSkg4AOAAAAAAATsd500XXaAQ5pU+fIMzj/SRUdYC76I7FybOo7q+vsu6+/+mg1+JDO3/knz1/odwjpIKADAAAAAMDobeosnANH/P5NXVnaUAXmaVtd52SdY73Zb1hn6CGdz3/pJSEdLvb5awIAAAAAAMasbvIsjtmBoeq6iKZRRQdgDv39vsM6QjpMmYAOAAAAAMCRtJ1QyYXbsM2zCAbA0NXN9I+6KkufM8DW7WGdTd3tNCwtpMNUCegAAAAAADBKXc6zOFoHxmLq38eUkqOuAO6hbfsx4PpJ1x87uoPA5jakc+WRapDvWUiHc33mmgAAAAAAgDHabIRzYEi6LqKZ+HFzC1V0AB6obXOsbxyBddGqOn1I54NCOkyGgA4AAAAAAKOzqbvI8jkwOPXEq+gURYrC7hrAQ3Xdrao6FzkG8emn3jz4kM6HfuV34tpr9fnHlpRiWQnpzIEpBAAAAAAAo9K0OdpWO8BQTf2oq4VjrgDONndrcpys+6NJu+7sY8TQQzrf+Pa1+Ninv3yhkE5ZCunMgYAOAAAAAACj0eU8+QodMHZte74N2LEoBXQAzj0+rDf98VdnHSfmEtJZLIwxUyagAwAAAADAaAjnwEi+q820v6tCOgDn13VxrqDOHEI61SIZYyYs/fHnPm41AwCM0uVL88oaXz/pfOjAZFWLeT0h1DR58hsWAKedEI4AACAASURBVJxOUUSslp6jPK26ydEYQ2E0ltV0Nxm7nGO91h8B7GpOXC1SFMXpxoyvv/jD+PCnfnew7+d9T16NL3zmQ3H10fMHifrwkmtjcte6JgAAAAAAYOi6TjgHxmbKofQipUgKHADsaJ53too6Tz/15nju2WcG+352UUlHiH+i8wdNAAAAAIfVdjYXAeCsNo62gtHJOSYdrJtTFVCAQ9gGdTZ1Fzk/ePz4xEeeGHxI56f/9r+Or7/4w3P/jtXKODM1AjoAAAAAAAxa0+TI8jkwSlOuolPaZQPYi7aNOFk/vHri0EM6r7xex8c+/ZVzh3SKlKKqhHSmxNQBAAAAAIDB6nKe9AY/zMFUq+iklKKw0wawN3WT4/pJF217/3Fk6iGdRZmiLF0LU2HaAAAAwPF5GAiAmeo6bfAwtaOtYPzf4ykfc1VazADs26bOsd7c/9irqYd0llURyXAzCQI6AAAAHH9x6iYDAHAPbZuFmGAiplpFpxTQATiIrnvwsVeTD+ksjTdTIKDDdC7mov9ZLFJUixTLKsVqmUyOASY9IfcUJQAAwJRtVM+ByZhyFR1HjwBFnWL5chnLl8soanuT+x5P1psuuntU0/nER56IX/yZJwb72i8S0ilSiqpybY3dQhMwugGuuHGua9r+7/6f7/vnuxytZgMAAACAUWka4RyY4vd6sZje5mJZpGhbfRbMTXk9xaMvVrH63iLK63f2be3lHNff3sTrT9XRVfqHXeu6iPU6R1W98ajBz36yr6Lz+S+9NMjX/srrdXz4U78bzz37THziI2cLEy3KpMLkyAnoMGh9VZw+jJOKPhkIAAAAAExbznnS1TZgruqpBnTKFKHiF8zKY99cxmPfqu7fL1xP8di3qnj0xUW8+q46Xnuq1mj7GFfqHF2XY1ndeXDQ0EM6ERHPPvd8RMSZQzrLKsXJ2pgzVgI6DGwSeyOQI4wDAAAAALNVN9oApqpp8xuqHUxBWUa0yvnDLFz92iouf/d02+ypSfGmF5axeKWIa+9fa7w9aNuI620Xq1W6Y395qiGdlFIsK0fBjpWADkefsArkAMDpFEUoXQkAAExeztlRMTBhTTPRgI5jrmAWzhLOud3l7y6iudKppLNH9zryaqohnbJMUXZZMHSECk3AQS+4ImKxSLFaprh8qYhlVcSiTMI5MHFl2QfxAAAAAB5G9RyYtpxjkkEW9z9h+s4bztl67JtVlNftie51HlnnN1SW+ewnn4lf/JknBv26n33u+fjcF88WIrr7WC9GMl/QBBxiUlpVKS6tUqyWRVSLFEVh8IE5WVb99//ypf5ntUyxrFJUixRlGSGjBwAAwJx1WcWFLdVzYB6aCX7PU/KQIkzZRcM5Ef1xV499c6kx96xtc6w3d5ai/+wnn4n3PXl10K/7PCGdqrLBNjamCuznwrorlLMoUyQ78MDNPiJFWaZYLFIsqyIurW4Fd6qq/3e6DAAAAGZDHuUm1XNgHrquD+RNTenhZJikXYRzti59r9SgBxpn1pvujrHmC5/50ChCOn/nnzx/6j+/cILF6Pi42JmU+uOrhHKAcw9KRYpF2VfX2YZ2llUf5DHBAACmRKEEALjX+Kh6DsxJ007vPRX23WFydhnOieir6FSv2PA4hK6LOFnnm9Uqrz5ajSKk8/kvvXSmkM5SFZ1xzRU0ARdVlnFzM71aCOUAu+5j+qOwtkdkLW9U2AEAGDMBHQB4I9VzYF6aZnqT4sL+CEzKrsM5W6nWVxzSeuIhnZT6fTRGMlfQBJxXdaNazrIqbJYDB1PeqLBz+VIRq1VfXce6FwAAAMZN9RyYpyl+7+2XwDTsK5zDcUw9pLMQ0BkNAR3OdsEUcXNjfKFaDnDsPulGKvjSSlhnrjr3bgEAACahbbUBzPK7P8GbO6WdNxg94ZxpmnpIx1FX42CawOkulCJiteyPmJH+BgbZT90V1tFXzYSADgAAwCTUjQUezFHb9hW0pqSw8wajdohwzuZxyeRjuVdI58oj1aBf82lDOmWZjEFjmCdoAh42kdwGc4rCZjcwkr4r3ToGa1mZkADAONYe1hsAzFfXzfv9O9oKZt4HTKwPTEmVbxirQ4Rz1m8Tzjm2N4Z0PjiKkM6HfuV34tpr9QP/XOWoq8GzZcm9LwzBHGAiyrLvy1TVAQAAgGFqBHRg1qYY0nMfEsbnUMdavfZUrbEHYLO5NfY8/dSbRxHS+ca3r8XHPv3lB4Z0isJD60Pn4+GuL61gDjDR/u22qjoSxAAAADAMXc6zryAEs+8Hugkec+X2I4zKocI519/eON5qIHKOWG9uTUKnFNJZVgahQc8RNAERESn1X1bBHGAOFotbQR3lZhnXeO2CBQAApqVptAEwvWOuVNCB8ThUOKe50sWP3rvR4APSdRGbenohnZScKDFkAjpEtUhxaVX4ogKzs7jR/0kTM5qJm0sVYBK67BgPANhqHW8FTLQv8JwVDN8hwzk/+MBJdJV5z/DGn4immd5xV9XCZztUAjozVpYRl1YpFo56AWbfHzr6CgA4IPfjACAihHOAWyZ5zJUnrWDQhHPYqpt8x7x0G9IZugeFdFTRGfD8QBPMz/Y4q2VVOCoD4Dbbo68EF8dDBQIAAGAK2i5734C+cGrHXNmBg8ESzuFumzrfERR9+qk3x3PPPjP41/2Nb1+Ln/7b/zq+/uIP3/DvVNEZJtODmVk4zgrgofqj/1IURsnBk88BAAAYr7bVBsDtfcK0bvQk9xZhkIRzuJ9Nfedn9YmPPDGKkM4rr9fxsU9/5Q0hHVV0hsn0YCZSilgtk+NbAE7db6ZYLYtYVsl50QAAALBjjrcC7tZNrIJO4aYiDI5wDg8bh+pmWiGdhSo6w5sfaILp21bNcd4pwNmVZd+HOvYKAAAAdsfxVsA9+4aJhfdU6IbhEM7hVJ9fk6PrphPSKZLTIgY3N9AE07asVM0B2IVqkWK1NJEBgL0sTI2vADA7jrcC7tk3TKyKTunBaRgE4RzO4u6jriLGHdKRFRgWt0Gn+sEWEZdWzpUD2G3f2h97pZoOAHARUyvdD4Cx4awcbwXMpX9wyhUcn3AOZ5XzG4+6ihhvSKcokvFoQAR0Jmix6DeQk28awF5sq+noZjk01xwAADAFrbAq8ABdns7mtmqhcFzCOZz7M73HUVcRfUjnF3/micG//lder+PDn/rd+NwXX4oIVXQGNTfQBNPiSCuAQy2uU1xaFVGW2uKY5vaUqYAOAAAwBSroAA8ypfs9HqSG4xHO4aLuddRVRMRnP/nMKEI6ERHPPvd8fO6LLzl1Z0AWmmAaiiKiqlIUJnsAB7WsimiKHHVt8g0AAAAPc68nkQHe0E9MaCOxKBxzC4cmnHOg/q1Osfp+GcuXyyiv3+q38yLi5MebWL+tHXXb5NxX0lncozjGZz/ZH3X1+S+9NPj38exzz0dExH/1wXdE05iLH5uAzkQmd6ulYkgARxtMyxRFEbFem9gAAADAg9ikBh6mbSOims77KYsknAgHJJxzGI++WMVj36wiNfcOVK6+X0Ze5Hj1XXW89lQ92vdZ3yegEzHCkE7O8XN/9R06iSOT6hj7xK5MwjkAQxhQU4rLlwrnSgMAD+XWPAD3MpfN29YmNXCaPjFPp69w8AEcjnDO/hV1ih97/lK86YXlfcM5N/u/JsWbXljGjz1/KYp6vJ3h5gEnKIzquKvPfjX+xVe+o6M49ndIE4xXVaVYVmZ2AEOyWhbO8gSAsy5Mi3mNnZ6eBWDOVNAB5tZXCOjAYQjnHK6dV98vz/TfrL5fxtWvrUb7nts2R87TCOn8yq9/NX7zy0I6xySgM1LLKsXCBjDAYPvoSoDyYKb0RBXAXBk1AWAe2tb6DTidKYXa5/ZAAhyDcM5hPPpideZwztbq+2U8+uJ4zy98UBWdiD6k874nr47ivXzqN74an/r1r+o4jjUv0ATjs6yS6gwAA7coVTk7mBmthdzQAQAAxkwROeDU/cXEqm2pogP7I5xzGEWd4rFvXixg89g3q9EeddV1Dw+PfuEzHxpNSOc3v/IdIZ1jfZc0wbisVsI5AGNRlilWK302AAAADzeHo58c8wic1tQKJgvowH4I5xzO6vtlpOZinVlq0rkr8AxB3Tz487/6aCWkw0MJ6Iyp41ulKMziAMY10CYhHQAAAIiYRwgJ2J0pHYtXqooMOyecc1jLl8tB/Z5jzWUfFjgX0uFhBHRGQjgHYMSDrZAOAHAbm5MAzHP8Uz0HOJspVdGxvQO7JZxzeOX1NKjfcyzNKcKjQjo8iIDOCAjnAExgwBXS2Rv3eAHGz3IHACKmvrQRUAXOqp3QTR9rHtgd4RyOOja1ETkL6XB+AjoDJ5wDMKFBV0hnP6yPAEbPkgcApl9hpssWb8DZTKnbKBxxBTshnMMQ1M0pr9cbIZ0rj1SjeF+/+ZXvxEd/9Yvxyuu1D3mfcwJNMFzCOQATHHiFdLjoNWT2BgAAjJAKOsBZyfUBtxPOYSja9vTXRh/S+eBoQjovvHQtfuHXfk9IZ49s8QzUshLOufjkPUfXZUefAMMbfIV0AGDW6xQAmOcYqA2As5tSdTEPXcH5XXlhKZzDoDRnCOk8/dSbhXS4NR/QBMOzrFKUpY3b0y/uc7RtjqbJsam7WG+6uH7Sxck6x3qTz5RiBDjYACyks7txQBMAMKr1izYAYH5jROcJOuC8/YfuA2aveqWIR17cf7BBOIczXS/N2a4TIR22BHSGNsgshHNOs6DfhnG2QZxNnaNucrStcrnAiAbhlGK11OfvYlwAYOQMhwAw7YCOZRugb4yysPCB8xDOYajj01n3JoR0iBDQGdbkrEyxWJigvbGDy9G0twI5682tMA7A6AfiIsWy0vcDMPPx0PG+ADBpKsgB5+XBLGDfR1sJ53Dua+cce9VCOgjoDOWDKMIG7e2T7tyHcE7WfYWcuhbIAaarLFNUApqcUrKJDTBqNigBmCMb7MD5+4/pvBe3dODsli+Xe/39wjlcRNue77rZhnTG4oWXrsUHnv3t+MZL13zoOyCgM5BJ2Wrpo8i3hXLW6/4YKzevgblYOOKQ007eXCYAI1/3aAMA7m+qQRZH0gMI6MDQCOewCxcJ6Tz37DOjeZ8/er2OX/i13xPS2QGpkAFYLuc9K2vbHOtNXylHKAeY9XhQpSiMzGfmRi8AAADAdE0lvCigA8MhnMOutBcYoz7xkSeEdGbINuCRLasUxQxnZdtqOddPutjU2eYqTNym7gN4Slo/nIpqAAAATIl7AcBFTeWhXseWwzAI57BLbXux/15IZ37sAh7RHI8z6XKOTZ1vVssB5jJB6UN5600fzDtZd7Gpu2haoZ17Wa0s1gGY0aJ0ZqtSUx8AHjhOTPAhNtWyAf0IcF7NlW7nv084h1077zFXW0I68yKgc6yGLyKqxXw2YLuuP8Zqvc4X7qSAaSyq2zairm+Fdm4Gdqy4o0gpqkpIh/vPIQAY8zzIXAeA+d0DALhQPzKh9+K+DpxNV+VYv63dye8SzmFf2h08jSWkMx+mAkeynMnGa845NnUX641jrICHTGC2gZ11jpN1F3Uz70DfokxRlq6LUy/UlCMAAAAYJKs14KLc94F5e+2p+sK/QziHfWp3kyEbZUjnZ3/1i/GbX/6Oi+AMBHSOYFmlWZw1uj3KaledEjAfOUc0TX8kXl9dZ56VdZZVEY6mBgAAmI92gpvQNtYBbnGvD85u83h7oSo6wjkcZB6/owfOP/GRJ+IXf+aJUb33T/3GV4V0zkBA58AWixRlOe0ZWNP2G+qOsgJ2ObHZVtZpZta3LJdW7QBMW1nMa6xTWRQAAOY7hy4kdOBcrr1/Hc2Vs3cGwjkcSrvDseqzn3xGSGfCBHQOKKWIajHdyVfX5VhvuqhrgxywHzn3x2DdrKozg6fwipQmPXbsbAya0dBTFK4HAABgROs14VQA4KLziSrHDz5wcqZKOuu3tcI5HHDOu9vrTEhnuhaa4HCmXAWhbnI0jQEOOJy27Y/QK4oc1SJNOrSwWKRou+ym5oMYggAAgAmw7gO4X/+YPbQEc+8Hqhx//sxJXPpeGY98u4rly+U9/9zm8TZefWcdm8dbjcbB5BzR5bzTSmmf/eQzERHx+S+9NJp2+NRvfDUiIn7hQ+9wUdyHgM6BVIs0ydKFXZdjU+fINkaBo/VDEetNjpT6oM5UjxFcVilO1jpbABizbOEEwNzW7MY+gDsUzrWACzv58TZOfryN8nqK8vXiZlBn83gb7SNdtJfNPzjS3LeLKMrd/k4hnekR0DnQhGsxweNJmiZHrWoOMBA5R2zqHEU7zYo6KaWoqnCM4P0mvpoFYMRj3LzmKwAwr8W6JgDMpYH9aC/naC+3KuUwGF2XI/bwEPlYQzq//8Kfxv/83/0lF8ZdZHUPoKqmdcc55xzrTSecAwx0AtRX1NnU3eSeUl+UyVM2DxibZjWBcx0AE5JUqQeAu9a17rkB3E1AB4Cha/eYFfvsJ5+J9z15dVTt8Ztf+U586te/6sK4i+2dPVtM7Girrstxss7OwwZGMRE6WedoJhYmXFZ2MQFgrGwqADA3skYAAMzJPh8m/sJnPiSkMwECOnuUUkQ1oaOtmibHemNVDYxL3eQ4WXeTeQIxpTSpsQUAwhFXADDd8cLYB+zIVAJ/ReG+HsCkx6s9Frm4+mglpDOFuYAm2J8pbaBu6uxIK2C0cu6PvZpKP7ZYOOrqkJNeAPa8KHXGFQC8YQ0LwN19o84RgOHbd6BUSGf8bO/tq2GLiLKcxo3m9aaLtjX5BcavrwTWRTeBBb0qOvNWetoKAAAmy104AAAYp0Oc5iCkM24COnuyrMa/cdbl7bEwPk9gSpOjiPU6jz54WBRpMkFQAJiLtrPlCsBp1q3TGS86FS8AAJjVXP4wf8+YQzof/dUvxiuv17O9RgR09qBapEgjL9Pe5RzrdVZSF5isTZ1jU4+7k5tCGHS3E1+DFsDoFqRWpAAwae4tArviQWIARjNmHWgSvA3pXHmkGlX7vPDStfiFX/u92YZ03A7dg8ViGuEcgKlr2/7IqzFz1NU8JR87AABMlk1ogGlzXwdg2vIB5/N9SOeDQjojIqCzY2OvZtC2wjnAvHRd9Mf5jfSxvsUiWdRvJ70zGr585gDjnXcAAADz5r4OwLQdeq/i6afeLKQzIgI6O55UleV4Z1ZtO/7jXgDOO1lar/NoQzqq6Bxn0gvALtZQxjAAuPf6xgIHAADGqO0OP5cX0hkPAZ0dGvMGaZeFcwDW6xxdN76+sCxTFEb0WbGfDUxmQTqj/sxGKwBnGze0AQAAmMufnpDOONjO21VDFuOtntNlx1oBbK03Odp2fH2iKjoR/z97dx8cx33fef7T3dMzwBDEgACFB4sEKEZ8kChSsihajE2GXotlJZY2u66Yd5ewyqnEub1IdUld2a5KUndRxdqrsvcfVVmbqvWD/IdUZe15la0Vb32XUCXbYURvyFXIE6lIhEibBEDKBECAxIDkADM93X1/DEGRFEgOgHno/vX7VcWSSILA9K+/3f3r/n37+w0S1eKK/Q0AccNCKwCA6wYALE3AyREAwFz+juKcpLP9T/brveG88fFBgk6NxHVhlOQcAPi4khe/JB3bpooOlQkAIH7INwQA4Hb3N2ZsRxCwLwHU8uTIEAAAYjIPbuKEfi5JJ24uFzztef4t45N0SNCpxSDalYXROJ4YSM4BgPmVvDB2b+VQRSd58w8AiLskJegE3HoBALhuAAAAAMnQ5Pn8Q/d16N//yWOxG7YkJOmwtFMDcV0Q9Tzu9AHgTorFeCXpJL2KDm9mAgAijdsvAMBCLhtUCAUAAABiKwrrFb/7uQGSdCKIBJ2lDmBMq+cUSwELmQBQzfmyGMbqwShVdJKDtjAAzLifSs7JjGVWAMCCrhtcOAAAAAAsEUk60UOCzhKlnPg9UC55Ick5ALDA82ZsLuwJr6KTpLdMbTJ0ACBWAnqVAAAWdG/DGAAAAABx5UfoORBJOtFCgs4SWJbkxCxBp+yH8n3u8AFgIYKgUnksLpJcRYeH2AAQr/spAABwh3tRbnAAAAAA1ECck3R+889/qtcOjBizL0jQWYK4LYAGQSjP48YeABZ3DpW8cjzOoUmvopMULGwD4DwWv7kEAAALwmM8AAAAIJai+Bworkk6kvTV7xwxJkmH5bsliFv1nGKJu3oAWIpyOT5VyOLYgtHUSW+9kKADAAAAGH5/Y8CjPO5bAAAAgOj43c8N6H/6FwOx/OymJOmQoLNIcaueE6fWLAAQZSUvVBiDMuOOY/Eg1HTsXwAx59icyAAAuCMSdAAAAADU2F//6WMk6TRRihBcHMeJz2ctl0PKqVdhKsxpKsxJkoaDm09KQ2H/gr7XGuujE0OLNasea0yS1GuPq0WzDDYQcyUvVCYd/aeMKceKTVuuWgnCUEnJXLEtS9S8T6ahoDIvyYcd1+cukjQa9mhWmaq/T4eVV4fyN/0+Z01V5jL2CAONhjldrsT0pSCnS8FHMX0+6NZM2FL191lh57XCyt/8e7vy+7Wp5sZ0EHC+BgAsnB+ESpGZDwAAAMRSEISyI/qC2l//aaXV1f/1s+HYjetXv3NEkrRnV38s44IEnUVwHMmKyesfQRAmbnH2TkbDHk2FOY0FPZpSJSFnNOhRcQGLWdUY1p1PCDkrrw4rr15rTC0qasAeriyS3bCgACDK59ZK8mMq4tXUUqnkJeiEXPJg0JxlLKjMW+YSb4aD2t5wVHPr1WONq8WaVa81pg4rrx5rjIRj1C6mi7WN6TNafdev6XPG1WIV9QlnTCusvPqccX3CGVOLVWQnAQC4vwEAAACQGCTpNId19j9+kVu9Bcqkrchmu91qthgk9mZ+bhFgKOzXVJir+aJWXWJLRfXaY1pjjajHHru+GAYgosdsxrpWxSS6Sl4o32/8hWAqzOmYv6XxExur0t4rKXw/bPh1fsAeprpKHY6X4WBAo2G3hoIBjYXdsZqzDNjDJO0g9jHdYhXV54xrrTOitamRmiftlMu8OAEAWJzWFjvWn79YCqjsbcC9NrjXjsy9aIzWZjg3AjBN56EWpSeX3mKm1OXr4vZkPEeMy3Xrf33xn2KZpCNJX/mtX9NffTle82Mq6CyQZSk2E0CvHCYqOWc07NFw0K+hYEBDQX/Nq+I0ZGJ+7e34YfVLfuXPclZea+yR6wtgJOw0x/PFv4j1538u80124g1e9vbWJmmvSS/b/8/L/mPVrTpSjuT7jf+MU2FOB/wdzRmgMjFeT7tE+6OlmlWLPvDXayjs11DQr/wNbariOWepHOs91rjW2MMasEe00T7Jjiam47UNYUZnyqt1prxaPyl+RlKl2s7a1IjWOiN60D3FjkbdHSjvbN78CYnyZfeHDZvPDQX9esXbG9uxGrBH9PvuD5v6GYIwjPyLIXO+d/X3dKa8Orb7Ow7PTpp6rw3utQEAwMLm8oFkxyDfPs6VdH7wt7/U9FVPLzyzNTafmQSdhQ6YE5/WVmXD39CcVYuGgn59EKzXoL8+lgk51ciHOR3zN+uYNkuqJOxstE9qg32SmzYAd2XbliwrpDQ60GRTYa4yZwnWx6Kq32KMhd0a87t12N8mSdpgn6rMWZyTVNchpmPpvN+t8363fq7KQ4oH3VN6MHVKm9yTC66uE3AhBgAsUhhIchgHAAAAAPXz13/6mN49M6X3huJXKOK1f6isl8clSYcEnQVyYnJDXPLMfAA893buYLBeHwTrEhmD+TCnw/42Hfa3KaOiNjqVZB3eVAdw24t9ypLnsTAINGve8k6w2dgEhjv5IFhXma+VnyJZh5g2wvveOr3vrdPfzHxhwck65OcAABaLawgAAACARvi//89d+u3/4wBJOnVGgs4COI5kxaCkbNnA1laDwXod87ckNinndorKVKrr+JuVUVGPOMf1sPOueq0xBgfARxd7hwQdoJFGwx4d9rcZXeFvoeaSdTLl3dronNTjztvMV4jpWJtL1vnx7BN60D2lHem31eeM3/brg4AxAwAsTsCtHAAAAIAGyC1zSdJpABJ0FsCxo5+cE4ahPENaW02FOR3zt+idYLPyYY4AvIuiMtcr6/RY49ruvM1b6gA+uoY5ku8zDkA9DQbrddjflsjKIguZr8wlF8/NVx52jjMwxHRszYYZHS09pKOlh9TnjOsz6X/S1vS7DAwAoGbCMJRkMRAAYBAS+AEgIef7GC7Zk6RTfyToLIDjRP9m2ITWVkNBvw77n6JazhKMhd3aV37q+lvqu5y31GHlGRggydcw25Lv8+olUA/H/C36e38HCcWLnK/8vb9Dn3UOkqhDTMfeeb9bfzPzBb1Z3KHdmYPXE3VCepMAAJaARVwAuAH5igCAGIlrsr0JSTpnLxT0g69vV3vWjdznI0GnSnFIzgmCMNY37cf8LTrkb9NY2E3A1ciNb6lvsE/pcee/a409wsAASb2O0eYKqKnBYL32l3eTxLBE+TBHog4xbZSpoP2mRJ1PpohpAMDShGEoy2JVGgBszoUAADTEXJLOv/zfD+j94fgl6Rw6MaE9z7+l157bGbkkHRJ0quTY0f+McW1txRu6jfFBsE4fBOs0YI9ol/MWiTpAEq9lDlV0gFoYDXu0v7ybtj81dmOizr9K/Zi5CjEde9cTdazP6LeJaQDAEoShxJo0AAAAgEbKLXP12nM7tf1P9utywYvd539/OB/JJB2b0KpO1Cvo+H78qucc87fo26Vnta/8FMk5DTQc9OsVb69e9vZqiEUYIFnXMq76wJLMqkX7y7v1vdIfkshQR/kwd32uMsUckZg2wBQxDQBYItpcAQAAoNlKnUGkvg8aoz1bSdJZHsFWUdWYS9KZjlCCEUt1VYhDe6s4Vc8ZCvr1sreXxJwmuzFRh4UCgOsZgDsbDNbr28VnddjfxmA0cK7y3dJXGHNimpgGACReEFIJFQAAAM01s9qL1PdB42waZkQWZQAAIABJREFUyJGkU0Mk6FQh6hUHfD9UHO7Tp8KcfuR9Sa94e3lDN0KGg369WHpW+8u7NasWBgQw/ZpGkg6wILNq0Y+8L+k/eb+jojIMSIMVldH+8m4SiolpYhqLZtvx+UX7GphyXKD2yM8BAHMEASd1APHkt4aaWVVe2nORHl9+K+fBuN0/SiTp1FKKsLq7qC9mxqF6zoHyTh3yt7EIEGGH/W16x9+iz6be0uPO2wwIYOo1zZZ8n3EAqjEU9OtH3peYv0TAXOWR30y9qYed4wwIMU1Moyq2LWXS8ckWcAJLKrPfUH9uylYmVb9jY2aWkvW1RosrACAJFACi4PKDJbWMOrLKC187D1OhpjcVGcQYm0vS2fP8W7pciF8lpPeH83ryz36ql76+XZsGmvfiHFOau3CcaH++qFfPGQr69e3Sszrg72AhIAbm3uj9bukrGg17GBDAyOsar2YD1ThQ3qlXvL3MXyI2T9lXfkr7yk8zGMQ0MQ0ASBwqLgAAAKDpc1I31MVfn1WYWtjcNExV/h3Vc+Iv7pV0zk0UtOf5t/TecL5pn4EEnbtwbKrnLMasWrS/vFuveHuVp3R77IyF3fpe6Q91oLyTwQBMvLY5jAFwpznMy95eHfB3MBgRdczfrO+WvkJrTmKamAYAJAptrgCA8zkARIHXHujir8+q3F5dmcfyta/32ikLaYq4J+lcLnhNTdKhxdVdRLlsYhBEs3rOUNCvfeWnScwxwAF/hwaD9fpX7o/Va40xIIAx1zZLvr/wC0ih4OlslROW8dac1MdYI15Gwx7t857WWNjNYETcWNit75b+UP+j+5+ZoxDTxDQAIBGCUOJdCzNxrw1Ux7bNqApNgg4AE3jtgSZ2zqj1XErLzrhKTX98Qb3cHujqfZ5mVtHL2USbBnL6xpe36KvfORLLzz+XpPPaczsb3u6KBJ07Tvgky4rupC+K1XMOlHfydq5h5qrp7HIOalfqLaO27b/+lw+q/+IvEAtR99/eOqvJiUJVXzu5vSB1JnesHFtaTHfQmYKnk4OTVX3tla57eGiIWBkNe/RyifY/cZIPc3q5tFe/n/4hCQ3ENDGNyHrv3Qt6758nqvra8+s2SOsYM0Tf+HhBf/+T4SrvCyzpccasFiotrhr/nPJnPxnWhfHq7rUvbL+a6HvtxeJeG6gOTdsBIILzmFXl6wk46cmP0slLXT6DkwB7dvVLEkk6C0SLqzsNToQzssMwVBChSmBTYY7S+YY74O/Qy95eSu8DBrAsSxZPNYDrjvlbSGSIqaIyerm0V6NhD4NBTBPTAACjBXQEAAAAQISVuvzrv5Ace3b164U/3hrbz9+Mdlck6NxpcCK8eOlFqBrYUNCv75a+ouGgn6Ax3HDQr28Xn9VQDfa161rKpJv7C0gyx+EYAKRKIsO+8lMkMsQYCQ3ENDENAEiKgL4oABLMlJfN/IBzOQDALKYk6bx2YKQhP48EnTuI8uKl70djEnegvFOveLydmyRFZfSKt1cHyjuXdvKxKlWqmvkLSDIOAeCjRAaYMT/Z5z2d+Ep/xDQxDQAwW0gVHQAJRjVoAAAaz6lyMcmEJJ2vfudIQ5J0UoTV/OwIpy5FITlnVi3aX96tY/5mgiWhDvg7NKWcnky9qRbNMiBA3CZVjiV5vLGD5BoM1pPIYJixsFsvl/bqf0n/gJgGMQ0AMFIQSg7DACCpSNBJJDcV/x1f9kNRBA9AEuzZVenA8tXvHIntNsx99rltqQcSdG7DiXBpgXKTE3Rm1aKXS3s1FnYTKAl3zN+s0aBHv5/+IUk6QAzZthTwBiYSaDTs0T7vaQbCQGNht/aXd+vJ1JvENIhpAIBxgiAUK9QAkso2pIQOz+IWJmVAgk4QRqcrBoDGshJY/m3Prn69NzylH/ztL2O7DfVO0qHF1e0GJqIjE4ZhUydwo2GPvl18luQcXDcWduvbxWc1GvYwGEDsrnU82EXyTIU5vVyiPafJDvvbNBisJ6ZBTAMAjMOiLgAgaUIDSs/wCBZIrqQe/3/15S3a8xv9sd6Gera7IkHndgMT0SPGb+KN+FDQz8N/zKuojF4u7SVJB2ByCETarFr0I+9LzGUSYJ/3tKbCHDENYhoAYJyAHhkAEsg2ZCUr5By+iDGL/zZYPIMFkEAvPLOVJJ3bzWsIj3hN9ppVBu+Yv0WveCTn4PbmknSO+VsYDCAmHIe7QyTL/vJuqgAmaF6yr/w0MQ1iGgBgnJAqOgAQ33M4+TmJHDMSdAAklSlJOn/1yvGafk8SdOYblIiWFGhWe6tj/hbtKz9FYOCuKgsHT5GkA3CDCETOMX+LjvmbGYgEGQ76jW4LREwT0wCAZPJJ0AGQQI4hZaBJ0EnmmNmUMQcSi/UXM5J0fvC3v9RX/8OR2l0XCIt5BiWiB4tPcg5igiQdgBtEIEqmwpz+rrybgUig/eXdmlULMQ1iGgBgDNqjAECcz+GMwYLHjCEAEGMmJOj4wdLPxCYk6bz2DyM1S9IhQWe+QYnoqDS6vRXJOVgKknQArnlAdK5JT9OmM6HyYU6Hy9uIaRDTAABjBFTQAZBAPL9K8nUvJIYBwAAvPLNV2x9YGettqFWSDpeEeVgRTGdrdHsrknNQC/vKT2ko6GcggCjfHFJAB4Y75m/RMNeiRDvkbzOq4ggxDdNiGgCwcKYsVgJAtUxpEeJz/l4wU6oOOTyEBRKJDgY3+8HXt+vBgVyst6EWSTok6HzsQInqjXfjfhbJOailH3lf0mjYw0AATBCBhptVC22AoKIyxlQcIaZhWkwDABaHKjoAksayeH6VVKYk6BDCACC1Z1299tzOxCfpkKBzi6hmsTYqs5rkHNRaURm9XNpLkg4QYZRYhakOlHfQBgiSzKk4QkzDtJgGACwOFRgAJIlJz61IsFzkuBmQpWPx/BVIHBLz5mdSks6e59/SdMFb+NyGMIjHweL79f8ZQ0E/yTmoi6Iy2uc9zSICENlrHzNFmGcqzOmwT4UJfDQXiXvFEWIapsU0AGDxWOAFkCQ8tkJowHXPJpABrl+4zpQknUMnJhaVpEOCzq0HSwRHpBHZwaNhj37kfYkAQN2Mhd36kfc7DAQQyRtExgDm+X/zjzMIuMk7wWZiGsQ0AMAYQUgVHQDJYEpiQ0D1s0Uz5ZJHFXMgWXgx+s5MSdJ5fzi/4CQdLgcxmOzV+62YWbXo5dJeyuWj7oaDfu0v72YgAG4Ogbo68aGtX7RuZSBwk3yY02CwnpgGMQ0AMAJVdAAkhSnrm+RVLuGaZ8jgObwlCSSKKYd8Pe875pJ0Vq3MxnqMFpqkw5LcjYNhRzXw6zf5IDkHjXbY36Zj/hYGAogQErlhkrMjef1k9jMMBOYVxzkIMQ3TYhoAUBsk6ABIClNeLCNBh7HjGSyQLBzz1WnPunrp69u1POvGejsWkqRDgk4MDhTfr9/33l/erbGwm52Phvq78m6dD3oYCCAy1z9mijDD6PkrOnJ8WvleKo1gfh8E6zSrFmIaxDQAIPZolQIgKUx5bkVrwqVc88zYDsfhGSyQrOsXY1CtTQM5vfbczsQk6aTY5R+JZHurOk7aKpVMNrPj0XBFZfSfZ5/Sv1n2qlqsIgMCROEaaPMGJuJtOl/UO0fOa3LVbvmp1kRte9vFQbVNDsopF5SdHpn3a/xUVoX2fl3p2qiZ9oHEjdGNPvDX62HnODFNTBPTAIBYC0MpDENeuABgNJPaspOfszRBGEZyDW8xMc0zWCAp17D4n7MamVw6l6Sz5/m3dLnKVlFR9P5wXk/+2U/10te3a9NAbt6vIUHnBlG8tod1ulAPBf3aX97NTkfTnPe79WZxh55u+QmDAUTiGmhJ4knBnLaLg1p36FuJ2d71G7u04YGVsf38hYKn//bWiDwv0MV7dxq/v5zyjHKjR9QxdlS5saNV/7vc2FHpVOX/8z2PaqrnUV1ctSNxx/dgEP1kBmKamDYtplGd5RcHpVOvG7VNpdaVsT4u0zOT6jz3Viw+65q1HVpW5duGK+w8B5whgkByHMYB3Gtzr20uExY3bzxnY/HCQJJjRkxTBQ8wnzE59A0+XZmSpHNuoqA9z7+l157bOW+SDgk6ET9Y6nGdnlWLfuR9iR2Opvt58TGtdUb0oHuKwQCafXNoST7DgBjyvEBvH/pQnhdopr1fM+2rjd1Wpzyje87sV/fQG3K8wpK+V+5aIkTfqdd1ft2/TlRSwwfBOmKamCamEUltk5XqUSa50rUx5gk6F9QXk6SpX+8fUHdLlgMpYXwSdAAYzpT8nJDyOUsWhEbk58im8B2QjOuXzRgslilJOpcL3m2TdAiPmw6WCLa4qkOGzo+831FRGXY4IuG1mac0GxKPQLNRFR1x9d7xcU3nK+0SJw1ekM+NHdWmn31NfadeX3Iiw43SMxMaOP6SNh58Tq3TZxMTN4PBemKamCamAQCxxxv4AExnygIn+Tlc8+Y4Dg9hgURcvwxZcGnWqXcuSWd5lVVio2ouSee94Zur2JKgE/lJR22/32F/m4aDfgYWkTEbZvRfZ2m3BjQbCTqIo7MjeZ0d+Whym+/Zatw2OuUZrT3yotYeebGmSQy3ap0e0brD31TnuYOJiJ2ozoeJaWLatJgGANRXGFKVAYDZLFMWOGlvxRjeeF9M9TsgAdcvU244mvejNw3k9I0vb4n9EM6XpEOCztxARHAkghrfYI+GPdpfJhEC0XO09JBOl1lUAJp7HSRDB/FSKHh67/j49d+XWleq1Npl1DY65RmtO/RN5caONubneQUNHH8pEQkNQ8EAMU1ME9MAACOw6AvAVCYlMVDwrFbjaMZA8hwWMJ8pFeCaff3as6tfL/xx/F9gvDVJJ8UhUhHFTLawxjfY+7yn2dELuQEoz6h1eliOV1Dr9Mj1P19+cXDer/dTWRXaK0kmvpvVTHu/Sq33GLewUi+vzTylP1v+HxgIAEBV3jkyKs/7aLI01fuocfOQdYe+edMcpFEGjr8kSbpocHulsbCbmCamiWkAgBH8gDfxAZjJNqjcM9XOajSOgSQDrnmOLXnsTsBYlmVOBbgoXL/27KqsvX/1O0diPZZzSTrf+PIWEnSiPNmrZcwfKO/koe0dtE6fVdvFE8pOjyg9M6G2ycFFfZ/53gaeS9a53LlRV7o26krnRgZ8HlNBu96c3aHdLQcZDKBZ10Kbty8RD2dH8pqcuLk1jmnX14Fj329KIsP1n3/8JfluVvmeR42No6GgX2vsEWKamCamARihVAo0Mxs07GchOoIglMSb+ADMYxvU/4HnbTUax9CI/BxZliXbDokLgOtX5EUlv9SkJJ2vfucICTrRnmzUJuqnwpz+sfwY9+o3SM9MKjd2RMsnB9V2cVCOV6jbz3K8gtomBytJP6cqCTtXOjdqqudRo9/iXYyflx7T1vS7WmHnGQwAwLw8L7ipDdCcmXZz2rt0njvYsBZAdzJw/CUN7vi3xlYDHAt7tEYjxDQxTUwDAGItDCtvtloWD/4AmMWUNkAB/a1qPJZmxIXjWMQGwPUrFvcaUWFKko5Ei6sbDhZzg/4/XflNldItid/Hc0k5XecONvXtXccrKDd2VLmxo1p14lVNrtqhC2uepBWWpNkwozeLO7Sn9f/hpAQ0QeWBLjeGiLaTJyZuagMkSaXWlcZcR53yjFadeDUan8UraOD493Xq8T83MpZGwx5impgmpgEARvADKUWbKwAGofoA5mNSxRnaXAFcw6J//YreBcyUJB0SdAyfbLw9NaDR1rWJHse2i4PqPvNGJN7a/dgkzCuo+8wb6j7zhi6u2qHz676Y+ESdo6WHtNV9V2tTvP0LNHziaEk+w4AIKxQ8nf7lpY/9+Ux7vzHbmBs9UtfKfgueR12rNmhii86pMEdME9PENADACEEQSg4VdACYwzHonEaRlNpf80yoTkGbK8BctiGVLaOaYLpnV7/eG57SD/72l/GNEQ6TawMRsQt6LbLSpvNF/dR6MrH7tPPcQW362de17tC3IpmcM//n/Zp6T70upzyT6OPxzSKtvwAAH3fyxOS8f14wKJmhe+iNyH2mgWMvGRlPw0E/MU1ME9MAACP4vGkBwDAmVdChjVGtx9OcbUmRXAsYxzGoqmWUz7d/9eUt2vMb8X0ORoJORC01P8fzAr32q0+q2JK8aixtFwe16Wdf18Dxl5SemYjd5+879bo2vvWXars4mNj4P1NerdNlFhiAhk8KmBUgwgoFT2dH8vP+nSnVRtIzk01tw3n7zzVh7LxkVi3ENDFNTAMAjBDQQwWAQUypPiCJCik15huU8OSQoAOYd/2yzTmuo362feGZrbFN0mEpLqpBv4So97xA//CPExrt/3yixiw9M6l1h7+ldYe+FcvEnJu3ZULrDn1L9554NbHHAFV0AAA3ul2lEUny3awR29g2eSKyn637zBtGxtVo0E1ME9PENADACAFVdAAYwqj2VlTPqcOYEu8AInxMUwGuoeKapEOCjqJZMWApCTrvHR/XyZ7fkp9qTcw+7D31ujYe/Eu1TZr1Jmz3mTe08eBziWx5RRUdoAm4H0REeV6g0fOXb/v3Vzo3GrGdrZdHIvvZcmNHE9+Ck5gmpgEAiDKfRWAAhjBqcZNTc32ueb45A5ty2J+AKSxLsqgA13BxTNJJcbhE02KnF6d/cUm/vODqwkPJqJ6TnpnUwPHvG5eYc6PW6RFt+tnXdOrxv9BM++pEHQdvFnfo36Re5YQANEilfDBPDhA9Z4fz8jzza0Jnb2gF1LUyq66VrXJdR7mOzLxf73mB8lOzmpyY0XR+tu5jlBs9oourzKpwNxwMaI09Qkw3IKbv6c6quzsrN+2oY8X8bZi8kq+pS7MaHy9o6hIxHaeYBgA0Hy1UAJiCCjq467iGkil5LbZtybJC0akS4PoVJWHMTkovPLNVkvTaP8TjmRgJOgZN3CYnCnrv3XGd3/JHiRijtouDWnvkRTlewfyTulfQusPfTFySzlwVnbUpFhkANNY93cv0P/zuA0ZsS7kcyivH+y7/7Ej+tn9Xal1pVNw9tO5e9fa1Vf1vbvza0fNXNPqrK3ccr6XoGDtqXDIDMV1fvb3L9PCDq3TvquVV/5t7Vy3Xpmv//+G5y/rw3GUNnSGmEeNze88yPRhKZYPe8p0plOt2rYma1qyr9Ru7YvNZAd8PaZWBSOtamdW//OIGBgK3ZRvW84HkyXqNayiTSoG7KUsljwwdIO4cgypixfH69cIzW3X2QkGHTkxE/rOSoCPJseN/Ife8QG8f+lCl1pWJeMh8z9AbWvV+siqrJDVJ54i3mQQdAFiCuD/cms4XNZ0v3vbvS1lzkhl2b7wiqW3R/763r029fW1a/0CXTp6YrPniadtF8yoWzipDTNfRF7YUJC1f9L+/d9XySsLO5nv03rsXap6oQ0yjEbq7s1q5slXFkjkP3CcnColJ0MlmXW14YCWBjNjwA7MWBgAkj2nVB6iKUh9BUBlfU1rJOI4lkaADxJplzXUoMOUaFs/P/YOvb9ee59/S+8PRfmZhc8hEd4KxEG8f+lCeF2gyAck5A8dfSlxyzvWJ2rUkndbps4nZ5qOlh3QpyHFSABo1MWBmYOA+jfeNwdnhPDtxgbJZV49s7dWuz61Re652i/WOV1B6ZtKosRoNe4jpGFi2zNWntn9Cn//N+9TR0UJMRyymAQDRQSsVAHHnGPRciuo5jO9CpFJUwAPizLbNOob9mN5XtGddvfbcTj04EO11ZZbhDHD6F5c0OVGQ72Z14b4njd7WgeMvqfPcwWTfpHgFDRz/vpzyTGK2+UhpMwc6ACzpBiG+n/38+SvswMXekOQy+vTOfq3ur90NSev0MANLTDdNx4oW/Ysn+rXmPmIaAID5hKEUUK4BQEzZtoypiCJVqpqhnuNr1vUuRQU8IN7HsGE9i+KcBBmHJB0SdGJuOl/Ue++OS5ImV+2Qn2o1dltJzvlI6/SIBo59PzHb+/PSY+x0AFiCuLbzLBQ8zRS8xOynoaC/5t/TdW09srW3Zkk6rdO0nSSmq3e6XIeYTjv61PZP1CxJh5gGAJiGig0A4sqk9laV8zEJk/Xk+2Ztj2VZxh0DQFKY194q/tevqCfppDhsovdW+UIC//87cv76/19YY271nFol57iurfZcy7X/ftTyYeU92Xm/3vMC5admJUllL1A+X4zMwkpu7Kh6T72u0XX/2vhjdDbM6Ehps7am3+WEBQCLvEmIo9Ff3b3SyOXOjezgKjyytVeSdHZkae2VnHKBwSSmI+FT2z8hSRo6Q0wDAHAj3w+VYoEPQAyZ1N4qDENR0Kwx1zyTklrclHmJR0Airl/GJZiasR1zSTp7nn9L7w/nI/XZSNCJ5OStuq/74MSEpvNFSVK+51GVWruMHI97T7y6qOSc9lxGK1dm1d6RUTbrqmtldlE/v7ev7WN/5nmBpvOzmrhQ0OTEjCYnmvNgv+/U68r3bNVM+2rjj4sjHgk6ALCkmwQvfk+GmnV9bZaxsEdrVL9qHo9s7ZXn+RpdQoulrnMHlY1wxZFNm7tvSsK+mxarSEzX0Xm/W2tT9YuXT23/hDwv0IfnLhPTTYppAED0UEEHQByZ1t6Kc3GDxjmUTOoMVamiU0k8AhAfprWoM6kA3FySzpN/9lOdi9BzWRJ0YqpQ8HTml5eu/35y1Q4jt7Pz3EF1n3mjqq9tzbrq62tT1z1Zda3MynXrl3Lvura6VmavJ/14XqDJiYJGf3VlyW+mL9TA8e9rcMfzxsf8mfJqXQpyWmHnOQEAdeTYFiV4DWXb8XtAlM8na6F5Kqx/yc1HtvbpwE+HFl0N0PEKapscjOwYtk1e1JoVK4jpiLjUgJj+1ON92n9pVoWrxDQAAHNMqygAwHymVf7ySdBp2PXOTZkVO1TRAeLFtARTybwWje1ZVy99fbv2PP+WLkegQ44k2Rw68fTOkVF5XmWW57tZ5XseNW4bW6fPauD4S3f+mqyrtb+2Qrs+t0a7n1yrTVu61dvXVtfknHknTa6t3r42PbK1V7/59Dpt2tyt1qzboHEaUe+p1xMR9+976zj4AWCRHDteNwrVtpSMcuWLhRoKBhoyZ/nktXZXJpqOcAJMEmP6dLm//jGddq63uyKmAQCo8HnpAkDMmNcehPNwI4ShFBjWS6xSRYckWyAuTGwta2IVuE0DOb323E4tb9Da/d2QoBNDo+ev3FQe38TqOU55RmuPfPu2f9+1Mqtt2++9npSzkLLv9ea6ttbev0K7n1yrR7b2NiRRp3voDaVnJo2P/YOlbZwAAGCxk76YzfqqXZR2yua0DBoLuxtSRefGKoCmKUTkLQhiuuK8361LQf1jurs7q3u6iWkAAObw5j2AODEuOScMFZKfwzVvCVx6nwBcw5p2TjX3AhalJB0SdCI5gbvz3//z8fGbfn/x3p3GjcHAse8rPTPxsT9f3Z/TE0+u1ad3rlZvX1vkt2N1f067n1yr9Ru76lrVx/EK6jv1X4w/NqaCdp33uzlJAMBiJn0xq6CTn5pN5H76IFjfkJ/ziKFVdCYnCsR0xDSqAqKpVXSiHNMAgGgz+eE6ALOkHLO2J6C9Fde7JbIsy7jWXYCJTDxOTW/RGJUkHfIwFcEFqzvMJz44MXFTafxS60rNtK82an90njuo3NjRm/6sa2VWj2ztVTYipacWasMDK7V6IKd3jozW7SF757mDuty5UaXsysiOQ3uuRWnXlrWEY+5Xfo/6nHFOXACwqDlPfB4UJbWtyyF/mx533q77z8lmXXWtzBq5+O95QcPbnRLTt3ewtE2fyfxT3X/OsmWu7unO6sI4MQ0AgFR5uO44jAOAaLOs+L1QdNfzLwmSDTXX5sq2zIqjVMqSVyaWgCgzca6dhBaNc0k6e55/S5ebVLmaBJ0Y8bxAZ3556aY/m+p91KyTWXlGq068ev33rVlXn9zaa0QbhmzW1ad3rtbpX1zSe+/WJ8Fk4PhLkR6DrpVZ7fxsv9Iu2d8A0JybBis2k2zPqy6TyPHMWozPhzkd87foYed43X/W2vtXGJmgM52fjeTcMakxPRW060hps7am3637z1q/odPIBJ2oxjQAINoq836evwCINhOrD1BBp/HKZSntGnh8uJY8jyQdIIocx5JlWGJgmKAWjc1O0uE1vBg5eWLiYw/2TWtvter9H15flFi/sUu7PrfGuIfRa+9foV2fW5PIt2AnJwqU6QeAJrJjdOmp9nrROj1i3H76e3+HZtVS95/T29dGVQ5iuiHeLO7QbJip+8+5d9VyYhoAgGvmKgoAQJQ5DtVzwLjfTsqxYvUsD0gS18ASKH7CEkw3DeT0jS9vacrP5tQeE4WCp9O3VM8xrb1V28VBdZ47qNZrlWY2PLDS2Afs7bmMnnjy19SeyyQulk+8N8EBDQBNYluWLF6ijbx8mNOB8o6G/KzevuXGjd/EBZKBo2YqaNebxcbE9L2riGkAAOb4PmMAILpMS86Rkre4Ga1rnplJOiZWmQLif/2ScdVzTD6P3smeXf164Y+3NvznkqATEydPTH7sz0xrb9V36nV1rcwaWTVn3omVa+vTO/sTl6QzcaGg8XEWGQCgWeLQ272wwLKSbRcHjdtPh/1tOubXP4O/9xNtHBTEdEP8vPiYjpQ21/3nmJigAwDAYlHJAUCUGVl9gPNu88Y+MHPsbdtSiiQdIFJSjpnHZFJbNDYjSYcEnRgoFDydHcl/7M+vdG40Zhs7zx3Ulo4xfXrn6kSVpU9qks7Q6SkObABoEicGl9mZBSYzzLXHNM3flXdrNOyp688wMSm67AXEdET9ePYJnfe76/ozuruJaQAA5tDmCkBUmVh9gOScZo+/udtGFR0gOmw7Hi/Acg1bmEYn6ZCgEwNnh/Pz/nm+x5wKOk+0/FybtnQncv8mMUln6ExeV696HNwA0AQmlpBunR4xcl8VldHLpb0aCvrrOg9pzbpGjVs+XySmI2o2zOh7V39Pp8tuYnaDAAAgAElEQVR1jOm0o+wyYhoAgDm0uQIQRSZWHwjIz2m6ssELzGmXJB2AY7GO9wxcxBqapEOCTsR5XqAzv7z0sT+/0mVO9Zze0mk9cG+y3wp1XVuf3NqXqOpBVNEBgOZxHLO2J2toMoNUSdJ5xdtb13ZXuYRV8iOmm2s2zOj7V3+3ru2uVqxoIYgAALiGig4AoobqA6iXctncfeA4lnHP84A4HoemVX/76BrG/pUal6RDgk7EnR3Oy5unpPllg9pbfX7ZP7KjJbXnMnpka19itvfkBxfZ6QDQJKY9CGs1OJlhzr7yU9pf3l23OQiI6Ub7m5kv6MezT9Tle3d0ENMAAMwJQyngjVgAEWJiu54gDEVHQa559ZZ2WdIFmnv9MnO7SDC92Z5d/frKb/1aXX8GZ/OIOz1P9RzJnAo6OSuvNfYIO/qa3r42rd/YlYht9bxAQ6fz7HQAaAIn4jPAiQuFBX19emZC6ZlJ4/fbYX+bvlv6ikbDntreXLq8gkVMN8fPi4/pxSt/oPN+bVvdumliGgCAG5V5IxZARJhbPYd9G51rntkLzZk0ra6AZnBTBlfPIZn/Y/7qy1u05zf66/b9UwxxdI2ev6KZgjfv310xpILOdudtdvQtNjywUqPnr2g6XzR+W8+cmdKatTl2OgA0mGVZsu1QgUEdJtsmT+jiqh3G77uxsFvfK/2hdjkH9XjqbbVodsnfc/VATjmDKo6YknCUlJg+73frxSt/oCcyP9eOzNtqsZY+B77vvpw66tTmyvfDhr9ZRBIdAKAW1y+5LOgBiMD9WsrMc5HJrZXid82TwlRo7EK6bVtKpYg5oNFSKXPn0iSZzu+FZyqtrl77h9oXGiFBJ8LODs9fXWSmvd+YbXzYeZcdPY9Pbu3TgZ8OGb+dF8YLunrV07JlLjsdABrMcSyjyv4uvziYiGSGOQf8HXon2KzPOgf1sHN8Sd/LdW11rcxyUBDTTfWT4md0xNus3ZmD2ppe2j2Cm3bU3V2fmC6WAqOSGwEAyeH7oRyHJB0AzWNu9RwSJaK3T6SUwaufbqryTI97U6Ax0gYnupe5ht1RvZJ0aHEVQZZVaf8zev7KvH9/2ZD2VhvsUzV569tE7blMYlpdfXjuMjscAJogym2uch0Lr3yRGzuauH2YD3PaV35K3y49q2P+Fs2qhcAmpmNtKmjX38x8Qf/u8jM6Utqs2TB6lZ14AAoAiCtK1wNoNlOr5/jcI0SOl4DqMmkq4wENYdsyOsmdJNO7e+GZrTVvd0WCTgRZ1u2r50jSzHIzKuhstE+ys+9g7f2das2aX1nm5AcX2dkA0JT5hiU7ojNB1134B3O8glqnzyZyX15P1Ck+q33lpzUa9hDgxHSs3Zio89rMUzrvd0fic/HQAgAQZ5SuB9BMplbP4T6B/dIslmWRpAM0gMnHWRBSiatatU7SocWVpCAIIzc5PDty+wSdUnalEeO+wSFB505c19aGB7r0zpFRo7ezcNXT1KVZdazgrX8gGpMyxiBJTGtz1fnhW/qw/fcSuz+LyuiYv1nH/M3KWXlttE/qYedd9VpjBDsxHUuzYUZHSw/paOkhddjT2uSe1Fb3XfU54035PLwZCwCIu7IfKkWbKwBNYOoCJ8k50eWVzW/t6DiW3DAZFYOAZnBTlizL5Oo57OOFeOGZrTp7oaBDJyaW/L1I0Imgq1c9TeeLt/37K53xb3E1YI/Q3qoKq/tzmrwwo0LBi/22WFbl13ymLhVJ0AEiIgy5oZMqi8Kny/2J2N+lWxJ0eu3x2F6ju84d1IcP/B4BrEpVncP+Nh32t5GsE2PE9A3zxaBdPy8+pp8XH2tasg4P3wEAceeToIOm32u3aCjoT+S2x/lee6lSBi9w0j4wusKwct0zPUknlbIUhCEL7UCN2Xbl+DJZmeS+BfvB17drz/Nv6f07dEKq6tzNUEbPrz68fNu/m2k34wZmjTXCjq7SI1t7jdgOx5HSLl31AMTDeb9b37/6u4nc9i+7P9Qau7nXadd1Fnet8QrqPHdQF1ftIIhvcGuyzhp7RBvsk7QbJaZj69ZknbWpEW1KndSD7qm6/cyAB+8AkMxrTpjTgfJOo7bJCSRL1S82DH3iIV3NVffiWKn1HoIGdzQWdusVby/32km7HzJ0gTMkKSLyyglI0JEq6y7FMKBVDVDLa5fhLeR4CW1x2rOuXntu55KTdEjQiaDhM9O3P2DcrBHbOGAPs6MTxrZ4QwsAUOVEN5dZ9L/t+pBkhjvJh7nrbbAkaYN9SmvsYW2wT6rDyjNAxHTsTAXt19tgSdKD7imtdUb0oHtKK+zaxTTtrQAguXOnA75h1+GFLiZ/gjgAsHgmL3CSnBN9QVB52cK2rUQca8UiC+5ArY4n09c0yyToLFotknRI0ImYq1c9TU3dvtTlZQPaW0lK7NsCSUZ+DgCgEdomB9V2cdCIlqCN8EGwTh8E67Rfu2+qrrOGdqTEdEy9763T+946/Xj2iZuq66xNjajFKi76+1JBBwAAAFgY25bRbfVY3IwHrxwqkzZ/ccK2LGUyIkkH4Np1V0EQUnFriZaapEOCjiq9KKPiw3OX7/j3JlTQGSA5J5EsulsBMZmcMQaIhq6VWU1OFBb1b/tOva5Tj/85g7hAt1bX6bHGtcYe1oA9QsIOMR1Lt1bX6XPGtTY1orXOyIISdsKQBxcAAADAQpldPSeM1LoSbi9JVXRsy1LalUoewQksViZt/mImCaa1sZQkHRJ0FK0EnQvjd35oP9PeH/vx7rXGCLoEosUVAGAhXHfxN0NUHKmNsbBbY363DvvbJFWSrNdYI9rgnGQ+R0zH0nm/W+f9bv1cj0mS7kud1VpnRJvck+pzxm/772hvBQAAACxMKmV2exCfCpuxkpQqOpLkOJbSIkkHWIwknCfCMKRFYw3NJek8+Wc/1bkFvJhJTYuIuWsFndSy2G9jrzXOjk4YmzMNAGChk9tcZkn/vu/U6wxijQ0H/Trg79D3Sn+of1f8qvaVn9Yxf4tm1cLgENOxdKa8Wj8pfkYvXvkDfWP6f9NrM0/pSGmzZsOb95XPm0UAAABA1SxLclPmLnKyuBk/c1V0ksJxLKOPQaAe3JSViEpbXpl9XWvtWVcvfX27lmfdqv8NFXQiZHz87plVM+2rY7+dOWuKnZ24mzImg0AchNTmRZTmCx1LS/pomxxU57mDurhqB4NZB0VlKu2wtFkqP6Uea1yPOMe1wT6pDivPABHTsTMbZirtsPSQ/mbmC+pzxrXVfVcPuqfUElxigAAAAIAqpV2znwWXSc6JpZIXqiWTnHWKVMpSEPLCCVANx6kcM0nAOaE+Ng3krre7ulzw7n6OZsikIAwlNf/AuzB2NRHjvcYeIegShgo6QDyQn4MoWWq1EUladeJV5Xu3yk+1MqB1NhZ2a395t/Zrt3JWXhvtk3rYeZdWWMR0bJ33u/Vj/wn9ePYJYhoAAACoUioBFQjKZR6gxVF4LVnFcZKTpJN2LZXEgjxwJ7Ytpd1kLGJy/aqvhSTpkKCj6CxI3q2CzpWujbEf61xE36geDXu0v7ybg6FeF7iyKrVNa2Cr+662pt9lUAHAcNmsq9asq5kqMs5vx/EKGjj2fZ3e+qcMaAPlw5wO+9t02N9GYgMxTUwDAAAACWF6ayuJRIe488rJStCRSNIBqjlGknQORH1Vm6RDgk6EXKiixVXcRbXlwWyY0XDQTxDGwFqHCkxAvQQBY4BoWbkyq7MjS5s75MaOKjd2VPmeRxnQJrgxsYE2WMQ0MQ0AAACYK502f5GTxc14C8NKBYmktLK5fmySpAPMK5OxZFnJOB9QPadxqknSofGMorEgOXVpNhFjzYNrAABQra57atPGZ+D4S0rPTDKgTTbXBuvF0rN62durY/4WzaqFmCamiWkAAAAg5lzXkm34ImcQhLSHN0BSk6zSrpW46kHA3Y4J26J6DupjLklnedad9+9J0ImI8Sqq5xTa41/hpUMk6ABAVAXM0SDJiVCv+N6+5bXZJq+gtUe+Lac8ww6OiOGgX/vKT+nbxWe1r/y0psJcIrabmCamAQAAANPYtpRyqJ6D+Ch5yU3SSVr1IOB2x0KSEta4fjXHpoGcvvHlLfPPnRieaKimgo6fyjJQAIC6CXkNCJIcJzqfxXVttecyNflerdMjWvX+D9nBEVNURsf8zdcrkAwG643eXmKamAYAAABMk0mbv8wUBCGt4Q3i+6GChL6p6KYspV2SdJBcbipZyTlhGNLeqon27OrXC3+89WN/nmJoPppg2U18Y/zqVS8R40yLKwCI8mSNMYBkWZZsW5F58LS6P6f33h2vyffqPHdQkjS85Y/Y0RE0HPRrOOhXzsrrs85BPewcN3I7iWliGgAAADBFJpOMRc6yz742jVcOlUknM1HFcSylldxKQkgux0leFSmvzH5vtj27Kh2SvvqdI9f/jAo6EXGhihZXJshZU+xsAIgoEnQwJ0qlqVcP1LZNTOe5gxo4/hI7OcLyYa7SKqj0rI75W4zbPmKamAYAAABMkHYt2Zb5C51hGMr3eWhmmiCQygner45jJTZBCcmN+aRVjwoCrl9RcWslHRJ0brgYN0s17a0AAKgn2lvh1huWqHBdW6v7SWhIIlOTGohpYppEHQAAAJjw3CApLUKoPmDwvvXCRD8TtW1LmYwlizwdJOCalcTWbh6trSLlxiQdWlxFQMmjeSkAoLnIz8Gt3JQVmUn86oF2nR2pbZvMudZA5x7cKz/Vyg6PsLmkhneCzdrlvKU19kjst4mYJqZNi2kAAAAkh20rMQudVM8xn1cOE7lwf/14tiy1ZCwVS0Fk2t0DtZTU5BzfDzmmI2iu3RUVdOYCNWjeJOvC2NWqvm6mvZ8dBQCoi4BnDbhFlPrxdq3Mqmtltubft/PcQa079E2lZybZ4TEwHPTrFW+vfuR9SVNhLtbbQkzDtJgGAABAMti2lEknZ1mJ6jnm832RhKXKcZ2UqlhIjlTKSmwCHtVzomvPrn4SdKKg2go6vptlsAAAdUEFHcwnSjfmGx7oqsv3bZ0e0caDf6nc2FF2eEx8EKzTd0tf0WF/W6y3g5iGaTENAAAA87kJWuikek5ylDz2s1SpjOW6JOnAoHhOJTOey+WQ9Z6II0HnmmaWeZq6NMsOAAA0+TrIjA0f50aoGWq9Ko5IkuMVtPbIi1p75EU55Rl2fAwUldH+8m59t/QVjYY9sdwGYhqmxTQAAADMlslYsq3kLHZSPSdZqn2R3nQpx1ImQ5IO4i3tWomtCBWGIdVzYoAEnShM9Epc+AEAzUU/UszHsqxEVNGZkxs7qk0/+5o6zx1k58fEWNitl0t7Y1t5hJiGaTENAAAAM6XdZCXnBFTPSRxaXX3Etiy1ttiyWUFGDGUyVqLbtVERLCbnWYbghklXk6oHTE1VV0HH8QrsJAAA0FBRq6Kzuj9X15/heAUNHH9J6w5/S20XBwmAGJirPLKv/LRm1RKrz05Mw7SYBgAAgHmSWInAY4EzkVjYvlkmbSe2RRDix7alloRVertV2Q95ETsu8coQfCTq3T1ap0fYSQCA2l//aG+FO4haFZ1NW7rluvWfwrZNDmrdoW9p4PhLSs9MEggxcMzfrJdLe2OX0EBMw7SYBgAAgDmSmJwTBCxwJlmRjhc3SaUqLa8s8nQQYY5jKZO2ZSU8UEkujdG5lSH4SNiEuB0fpypOvUzni/rn4+NVfe2l9lZpI2MGIJl46IC7cVOVUr+R+CyurUe29untQx825Od1njuoznMHNX7f5zW67ovyU60ERITNtQf6/fQP1aLZeBxfxDQMi2kAAACYIYnJOZLklVngTLIgqFShSDlkpMyxLUstGUteOVSZ4wMR47oWx6ukksciT6zOqwzBjRdeLixGTaQ9X5MThap+Ted52A0gwdc/Ln+4i6hV0enta1NvX1tDf2b3mTe06WdfU++p1+WUZwiKCJtLaIhT1RFiGqbFNAAAAOItqck5Pu1BoEoViiDkgemt3JSlTJpqOogGy5IyGZJz5q5dUXm5FtUhQecGTLzqj4fKABA9ITecqOomPFqf55GtfWrNug39mY5XUN+p17XpZ1+jTVDExTGhgZiGaTENAACAeEpqco5E9Rx8pFQiFuZj25ZaMrbcFEkRaB7HqcShTbaYwjBUidZW8TuXMgQfD+RGmrqUrMotY0EPQQYAEUOCKqoRtSo6rmvrU9vvles2fjrreAV1njt4PamhdfosARLFeWfMEhqIaZgW0wAAAIifJCfnlMuheIcNc8KQljF3kkpZymQs2awyownXqbRLYs4cknPiiVPnLRq9SOmVqq855ZQL7CAAQI2ve0zgsLAboChpz2W0aUt3Uz9D57mD2njwL7Xu8LfUee4gQRIxY2G39pd3x+bzEtMwLaYBAOB+B4jXMZDU5JwwDKmeg4/xfansExe3Y1uWMmmb6ycawnGk1hY7sdep+ZRpyxhbKYbg1olYdD9bdnok9uM7pRxBBgARwgQOC+WmrEg9tFrdX5lbvHNktKmfo21yUG2Tg1p14lVNrtqhi/fu1Ez7agImAo75m9Vrjelx5+1YfF5iGqbFNAAAceE4ljK2VCyyGIvkyWSsRLcKITkHt40NL5RtVVo74fbXz1bHUrlMohtqz7Iqz6NJzLlZEIbyqJ4TWyTo3MIPQqXEQV4vUyEJOgAQtesesKDJY8pS2Y9W2eeoJDRIlVZB3WfeUPeZNzTT3l9JbFi1U36qleBpov3l3RqwR9RrjcXi8xLTMC2mAQCIC9uylMlIpRKtbpCQmLcl1012ck4QhPJ9YgG3VyyFaslU2r/j9lIpS44jeWXJp/IQasBNWUqlOO7mQ3JOzOdfDMGtkzHGoJ5I0AEArnsw4+Yoalb35/TI1t5IfabW6RGtev9VbXnjGa098qI6zx2UU54hgJpkn/d0rD4vMQ3TYhoAgLiwLUstGVs2T85heqzbUiZtJzo5R5JKLHKCOKkZy7KUdi1l0hbXUSzp+tSSITnnTucj1nXijQo68wjDMJKZsG2Tg7Ef2zwJOgAQGQGvA2KRHMeSHcEet3NVR947Pi7Pi9aHy40dVW7sqHT8JeV7HtVUz6PK926lCkkDjYXdOlDeqV2pt2LzmYlpmBbTAADESSZtq+SFVAGAsff1aZeFz3KZalmoThBIJS9Q2iXrpBq2XUnSCYJK2yuSCVBd3FReDKWl3O35PnNTE5Cgc5sLreM05mdNTRUTN76jYQ+l2AEgItc7YLFc11KxGL2bgdX9OeVyLfrvhz7UTMGL5NiR2NA8B/wdetg5rg4rH5vPTEzDtJgGACBO0q4l36ZyAsyLa8dh8TMIK4kDQLV8X/KsMJKVpaPqxkSdsk87OczPsiqJOVyb7n7dYk5qyLmRIZgvwBv3s0qlhV2NWqfPxn58x4IeggwAonC9C5jMYQmTSCu6ZUbbcxnt+twa9fa1RX4cc2NHNXD8JW154xltPPic7hl6w4j5XpTtK8evLRAxDdNiGgCAOHEcS5mMJYs1I8ScZUmZDAugczwWObEI5TLVKxbDti2lXVstnINwy3Up7VZaixIXd1cqce4xBRV05lFZsIzmicApX439+E7R5goAIoE3FrBUbspSOaJvm7murW3b79Xo+St658j5yLUHmk/r9IhWvf9q5YardaWudG3U5c6NVCKpseGgX0NBv9bYI/E63ohpGBbTAADEiW1ZaslYKnkB99KIJccRrXluUPZpuYPFK3mh0hIJBYtgWZbSriS38kyRKlYJnVfZUsohWWshiqWAlowGIUFnHlGemLVOj+hK58ZYj+9Q2K9dhBkANPlax2wOtZF2rUiX1uzta9MTT/6a3js+rrMj8WkBk56ZUOe5g+o8d1A6/pJm2vt1uWujrnRu1JWuB0huWKID/k6tsX8Yy89OTMO0mAYAIF73P7bKdkjlDcSK61pKsQh6XRhyDGPpSl6ojF1J4MTipFKV6ty+H5I0lxCOU0nMsW2Om4Webzg+DDv/MQTz8/2wIZl76bSzsJOXV4j92A4H/QQYADT7OseE7o5ap89q1QlzFjofebRHHR0tVX3tJ5yxBd5YWXKCaPeQdl1bj2zt1eqBdn1wYlKTE4UYxuSIWqdH1H3mDUnSTHu/pnoe1ZVrCQ5Y+Hw0zhVHiGmYFtMAAMRJZWGp0h6HxZJk32tv2tyt9lymqq/ttccb/vlsu5KcQwLBzUok56BGisVQmQxJOkvlXKukEoahyn5lfZZKIWZxU5Ycp1JBCQvj+7TVM/J+giG4TcAHlUy+euvoyOjDc5er/vrlFwc1asD4joY96rXGCDQAaOLEDne4MSxfVdvkoDHbsyqYUXcqW7fvn3ZtzcQg66trZVaf3pnV2ZG8PjgxqZmCF9t9OpfcoFOS72Z1pXPjteSGB1Rq7eIgroIJFUeIaZgW0wAQNW0XB7Xu0LcYiCqd2v7niUm0tS1LmTTtOZJ+r32vf1VddjaSn829VpkCN6NKB2qNJJ3asSxLbqpy/vL9UH7AM+xYX/MdybFpY7UUQRCSVGooEnTuEPRS9E4aJlTQkSpvePY6JOgAQDOEIW8hoPai3urqRqv7c1rdn9PpX1zSycEJeV68n845XkG5saPKjR2VVKlEMrlqh650PqCZ9tUE5x3mo1NhTh1WPvbbQkzDtJgGACAuUilLtkM1HUQHVXNuL6C1FerE80Jl0hxzNX0u4FQqrsglWSdu1yDHoa1ira5ZxRIxb+w9BEMwvzCsLGBGrdxW67QZJcsHg/V63HmbQAOAJqC9Fep24xzxVle3Wnv/Cq0eyOn0Ly7qzC8vxT6p4cb54qr3X5UklVpXaqr3UV28dyeJDfM47G/Tk6k3jdkeYhqmxTQAAHFANR1EheuyKHonJOegXoJAKpYCZdI2g1EH8yXrBAEvoEZmHnQtKcexaWFVSyWSc4xGgs4d+IGUcqL3uVqnz8b+YfRw0K9ZtahFswQaADT6+sbbBqiTuLS6upHr2trwwEqtvb9To+cvx75N0Mf2ycyEus+8oe4zb5DYMI/BYL2elFnJDMQ0MW1aTAMAEBepVGUBsUQ1HTSY41RawrAwenvlMscl6osknUad764l68hSEIYKfMkPOL6bcd1xbEs2STl1USwFJKCZft/AENzpghpKEcw4b50eNuIB9Af+ej3sHCfQAKCBwpAbFtRXJm3Fsvym69rX2wSdHcnr9C8uaTpfNGrf3JjYMNcy6OKqnfJTrYmN13yY02CwXhvtk8Zt240x/eHZvE7/YkpTU7PENDENAADqyLpWTcf3K9V0WFxBPdl2JTHHtlkcvZMgoLoVGhVrJOk09BxoWbJTUkqVc6DvhwrCyjHP8+/aX2/mEnK45tRXsRQQvwlAgs4d+L4kt74/w00vvERP62Vz2lyRoAMADb62MblD3W/YLLkpxfrh11xSw+REQWeHp3V2JG/cfpprGbTq/Vd1cdUOnV/3RZVauxIZs8NBv9HJDJYl3b9uhe5ft0Lj4wUNnZ7S0BlimpgGAAD1VHnDn7ZXqN8c301VYgx3V6RNCBqIJJ0mX3srZ8lr+6KSqBOEYWW9F1UjIac5qMKYHCTo3IXvh3Wd6HasaFnwv8lOm5Gg80GwjjZXWPLxOfcmkuNQSg8LiJ3UskQfN0DdJ5gpy4jysl0rs+pamdWmLd06O5zX2ZG8cVV1JKnz3EF1njuY2KQG01sCpdMfzY+6u7Pq7s7qk4/26MyZvIZO542rqkNM0+YKAICo3RulUiTqoHbcazGF6pQ8VjrReHNJOmmX1nPNZF9LMJEsyf2osnwYVpJ25v6fcbo2VpZk2ZXKRGjG9Spk7SZJ9wgMwZ35ga71M4yOtslBY8Y3Km2uHK+gtouDZsZwapkRLdFud8GaY1lW5I7VKBkK+rXGHmEgron7MdFqLW4xlfZWaKRM2tbMrBkB57q21t6/QmvvX6HpfPF6so5n2IO+uaSG8fs+r9F1X0xMm6B8mNNUmFOHZV5VmbRrzftgxU07Wr+hU+s3dGrq0uy1ZJ0pYpqYBgAAdZJKVZ5beWVenMEi70tJzFmwsk/VDDRPEEizxVCZDAkPUXHzGpJ1w76qvAg+l7gThjLyGfpcIo517f8ti5feo4LknATeGzAEd+b7oeRG7wTVdnFQVzo3xn58D/nbIpGg0zo9onWHvmVkDOd7HtXprX9qzPassPPXJ003HatBfatdtU6fNTbRCfHT54wv8prG2KGxMhlLxaJZNxftuYw2benWpi3dGj1/RaO/uqLR85eNSmzoPvOGus4d1PCWP1K+59FExOpwMKAOw1qvzrVVuJuOFS365IoWffLRHn147vL1X8Q0MQ0AAGrLsiylXSlMkaiD6pGYszhBEMrzOMbQfEWSdCLv5hZO1sfOJZIUhJLCyn/Da2V3opTEY9sfzTVsq7IZH/2X2IsyknOSiQSdKtSzzVV3d3ZR/65t0owEnbGwm8oedTZl2CLE2lQlVvzg1uNUklu/n+uUr8Z63PJhhySOM0maae9P7LaXmeih0TeH1x5Alwx9KNbb16bevjZJvcYl6zheQWuPvJiYyiNDYb8eljnJDLZdqZ6zUPeuWq57Vy2XJOOSdYhpAAAQFTcm6vAiDeaPkWvt0RwWVRerWOIZGCIUj8VQmfStiSCIg7l9Zt98lv7Y14XXKu/cqJYJPJVqN7f+nniKO5JzkosEnSpEsc3V8ouDGjVkfA/7nyJBp47yvVuN2ZYWq3jbCjpSfZPp4m4qzDEIc3HiZhO53XOlOoFGcxxLqVAql80OQFOTdbrPvKHlk4M6tf0vjE5oMOk6aVmVFnNLZWqyDjENAACiM2+zlEpJ6RrM3WAG25ZSVVbCxO0VS/R3RxTjMlTaFce3wdf0W/NlbC7vuAOSc5KNBJ0q1LvNVUdHi6amZhf0b9omB40Z3w+CdZoKc+qw8gRbjeV7HjVq4WGuek4YhvNmH9e7zVWcjUQmnDMAACAASURBVIY9DMI1l2NefWyx7a3KvJWHJnJTlsIwOb3fb0zWmc4XdXY4r4mJgqbzxVhuT+v0iDb97Gs69fhfGNvucTgwp7paOl37udCNyTpTl2Z15kxeF8YKC76HIaaJaQAAAHyc41SStWhDsnQlL4xU2xng1vh0Q9G2DuBcQHJOwpG/V6V6HijuIt+SyI0dNWZ8D/g7CbI6MK69lVNJ0LndTZbvf9T/s9binhTHW9Q3TH5aV8b687dYi1vgZ8KHZku7diLfHGnPZbRpS7d2fW6NnnhyrR7Z2qvV/Tm5brwGw/EKWnf4m2qdPmvsvjIhmTWTtur+UL9jRYs++WiPPv9b9+mp375fn3r8E1pzHzFNTAMAAGAh5trStrbYSrsWyTk14PsseCL6vHJobCt4AHdHcg4kKuhUrVzH1jkdK1p0Ybyw4H/XdnFQeUMSMI75m/W487Z6rTGCrVY3JG7WqPZWkvSge6qybcHtL15+IKUc9v+txsJuBuGamfaBWH/+Vmvh1QpMby2E+MikbRVLQWLfZstmXWX7c1rdn9NcdZ2JCwVNTlR+Rb110FxCw+COf6tSa5dx+2c2zMzXRjw20q7V8H72y5a5WrY2pzVrK4nAU5dmNT5e0IXxgsbHrhLTxDQAAABuYFlzLawq7VBQO0FI0gPiw/dDFcOwJu2pAcQHyTmYQ4JOtRO8oFKZox4T5/Qi3zbtGD2qDx/4PWPGeH95t37f/SHBViOTq3YY1d6qw57WCjt/bQJ7+68rl0Ol6pBMl5mZiP0YDgX9WmOPJPvmx83GvpVFn73wFldlJn0L1p5r0ad3Lj1WUo4lOwKt91Z0ZCIztq5rqVgkJitxllF7LqO196+QJE3nizr/q8uanJjR5EQhkp/Z8Qpae+TbOrX9L4yaZ0jScDAQ2+tk2rUi0eazY0WLOla0aP2GTkmVhJ0Pz12+nrRDTBPTAACAe+1a3GtHaXvuxrIqLawchxZW9RKGIc8ZEDtBIM0WA6XTVNACkoDkHNyIBJ0FKPuSW4cRu6dnmfTPC1/8T89MqHX6bOwXm+cMB/0aDNZro32SYKuBC2ueNGp7NrmVuLjbBSwMpSAIa/4GedqABB0WaaQrnRtjvw0LraDj+6FC5n0L5rq2ulZml/x9LEtqyfA2zI1sy9L/z96dBtl13vl9/53t3r693NsLekWjGwDZWEmABAluAkfWSCPZI9rReFRJPHLixNakUnkxfuGqVOaFnIrzQnqRVGpUSaVi0Y499jAVJ7Y4tlSJGI1tkS0NV0gEN5DQEECjSaABNIBuAH2Xszx5cfo2GkAD6OUu5577/ahQIpbuvvc5/3POc8753f+TzYqbZ2uoBnYkyfcjzV9e0oXPb+jy5SUVl/zkHIcWZzRy6oepCoq3svhmfzJv5lUDOwcl+ZVQFy8urQR2lm5S0wCSz7K0skRnu3YAbHcD2zr1V39nb1uPwS9eO5fY8Dja91o78de9tuTYlmxCOQ1B5xy0KmPi+2MZT4m9rgewde3cUR5rI6CzAUFg5LnJ6aAjSYW5d1IT0JHiLjo7MzPqUImC24Ir48dS16b/gPvg5a1W9tVQqnV3SMdv/ZtRJ6M9+qJea+t941oKlgUcdTbWQYfuOc2/0A7ruExmqyKk82CeZ2tktFsjo92S4u46584u6PLlJS0ulJv++oZOv6JLO7+WqvnGNRVa7jU7jqWM1xrHFy/jaPt4j7aP98TjfbWk06cXdGluSdeulahpahpIJMuy7lp6IIriALwx8fVp9b8BAO3NcZZDOTbLVzUSDz2RBhXfyDWqy/NHAJynkDwEdDaoHg/Zevs6Nv21A7PTujD1jdSM74Ip6GfBMX3N/SnFtgXnp34nVe+nwyprtzuzvA+ubz9VjR9W5RZbv/PMnBnSNVNQr7XQtvvGwsgTLf8eqku9rUcUGSZ/CbnIzhHQuQshnY3JF7I6eGhIkrS05OvC5zd0bmahqWGd0VM/1NlD307NGF8zrRVmaKVwzr2ugR5fvg66edPXZ7PXdebThaaGdahpAOuaw6zq1urKumvuHRmzvEw6YwUAaeY48TnBtumS0ywVn/teSI8gMIoio4xnEfIDUiBi+UXcB2subPQkWadOBL29mwvpVJe5SpM3wqM6Ge2h2DYpld1zvOXuORvY/+qxr2aK8y0/lh+38b61MHxEoZtr+fexkYCOHzABTNJFNtaYiFqWslluOmxUZ6en3Q/36Yu/uVNf/tpuHXx0aGVprEbqn52WExTZIE3Q6uGcO3V1edqzt19f/Su79PW/9rAeOzK86esjahpA0+Y1tiXXtZTxbHVkbXVk42O161ory2QBAFr1GB/PwT0vvobNddjKeLZcxyKc0yRBYDZ0rxhoBVEklcrUNtDqwpBwDh4wt2QINn6CjOrwMajevs0/VOn/LH1L1vyp/4JK6qDgNnrQ9zo1e+BbqXtfxzJvxRdeGwnoBPUI6Fxq+bH8VXiobfePNCxvtctdfyCT7jnJQljqPpNRQjpbsjqs88Xf3KndD/XJ8xo3xe+ffY2N0GBpC+fcaXVY56t/eZem9vZT0wBakmVZ8cNcN14mK36YG/8Zz3IBIMHXqKvDOJk4jJPNxMdwAjnJEIaG+yxItYpPjQOtKgiNKj77Lx4w32QINrFzBbX/nltZ5qr3wvHUjXFZWf3Tyrcotg06P/WNVHQIua2+7UWNOhdlzMbCBsao5knz7vmTLT+ec2ZIF8xw+13U5Lbpyvixln8fY87cuv8tF3HJwza5z4SUkE5NVJfB+ssvTOmxJ0aU6/Tq/jN7UnBubCVxZ4b22Vd6+zr0+JFh/c439+qpp8fU2UVNA2ht1ZBlR9ZWNhs//KW7DgA0nmWtCuK4cRCnI7tGGMfmOjVpQh58ok0EgVG5EsmwbirQMiq+kc85CuvgMgSbmwQaVzVdB3IrAZ1M8bIKc8e1kILuEKvNmSH9afCC/gP3RxTdOtwY2KdLO7+auvd1q3vOJiaxoZHj1G4/zRYvp2JM3wiPpnK/8v17F8l8CsI5kjRqX1zXv6N7TnIvrF1HrCN9D3FIR6pUjDZy7+GaKeiaKaRiDDqsskasuZp8rx0TBe2YKOjczII+/mhexSW/Lq+5MJeeoPjZaCIRr+NeNe25lmxZUtA6Y5qzShp1Ltbke+3cXdDO3QWd+XRB779/SUs3qelWqWmki2WpptdY7T73sR3JdSwZYxRG8f0m5vEAsPVzVfWy27YtWav/zBIdcFoY4Ry0m+qSV54XzxkBJJMx8fmJazmsFwGdTQpCyavh6A0NdW7p6wdmp1MX0JGkd8NHtdOa0WHnxIa/1vMcDWzrTGX9+X6oxYXyrYsTr1OfPvF3U/len8i8F+9zm+g8EUVxUKFWn3bJLc6kZr/6ovOaeq2FVNXK6n3itot3r1OXdn0tFe9xvR106NSSXBXfKJvhgvpebCv+1GK5Eq37gubd8JB+FqYjhDdpz+hveX9S0+9ZDep8+uur+uTkZfl+7a8Uc4vnVMzvoIBrdp6+R037rfdedrnn9F90vVTT71kN6nzy8RV98N4lahpoEMex5LrxuZqATu1ZliX3jrBOEGwstAwArXG8i4PnVZFZ+1jnPOBe3p3dx+h0k36RIZyD9uX7RlFklPFovQgkDeFRbAYBnU0KAnPbxUQtDA516tLFpU19bWHuuDLFeVVyA6kb6z8Nvi5JGw7p5AtZPfd8Om+sXzh/Q2+9/tnK7z994g9St7SVJB3JvK8Oq7ylpar84N4Pw3t7O3TtWmnd3ystAR1J+ln4fNt0p0rL0m8dVnldXQjonpNstQ4OplU2Y687pJO2sGG97H64TzsmC/rVO+d14fyNmn5vJ7jJANcQNb0+e/b2a9eugt5847w+m71OTQN1YNtxYIRATmOtDutEkVEQ1n75ZgBo6jHutnvqnGPwYJExKpc5F6K9haFUDCNlPObnQFL4gdlUcwGAuOUW1Hqn22oXncEzP0ntWP9p8HW9Gx6i6JZd+PzWg7XZA7+nG/37Uvk+n/CWu+ds4WZk9WH4WrzMxg+B3VdOpmJs3w0f1ZkULXtwr+45xfxEapZ+2+2uLyBG95zkI1G/PtmMva4bDgXrWmrec72Xo/E8W0ef2a6Djw7Jq+GnrjJL6VgCcti6mIjXkaaaPh3UNyzvZRx94flxHXqMmk5yTaP1OI6lbNZa97kY9WPbljKepVyHLc+zxKosAIB2QzgHuF3FN6r4fDoTaCZjjMqViHAONn+tzxBsXq0fgg4Od23p6wdmp+UExdSONyGdWy6cjz8lfGX8WGrCB3fa5Z7TbnemJt1Aarmvds+fTM0Y/yT4rfQcj/1wzT8/e+j3U/MedzsPDuiEId1zWmMCv7XgYTvJeJY8r72eRF0zhfofTx7u03PPT9Qs0JAppiPM0GGV2Onq4GpU/5qe3EVNU9OoBc+Nl5rMeJZskiCJ4zqWOrK2shnrrqVdAABII8I5wNrCUCqWIu4vAk3Z/4xKZZ7DYGu4pN+iWqbjttpBx/GXNHj6J6keb0I68fJWvh/pyvgxnT307dS+z2OZt+J9LKzBxdx9uuhsVGeKlrmaM0P6SfCVVLyXy5fuXh5w9sDvqZhPzzJ36+mgQ/ec1uHTRWfdXMe651KFadSIgI4ULwX65a89pHwhS5EljJOyJfDqHdCpdiWjpoHN89y4Q4vrWrII5iSebcfdjTqyLG8AAEivMCScAzyI78ddPCLDvgI0QsWP6I6PmnA5bm91ZzSybdXsJtbY9h59/tn1TX/9wOy0Lkx9I9Vj/qfB13XVFPRF57W2rLnzn99IfTin117UfveUoqh26zdWfHPXA97BoU5duri0oe+TliWuqt4Ij2rSmtFe+5OWfh9LS8Ftv18YPpKq7lK99qJG7Iu63zk7COqf2m6rOYOp//stV4wyHg9V1sOyLGUz8bH8rjpPWV2eiSY1aTUmDOq6tp49NqE/n56551KB61HMT7Df10jGs+SYdB0XPg0mtMupT03fOVekppNX000fgoSMgUnotvBcS65rbXyex5wwKTMkea7kOpIfxA8yG1nT1ADSet5oVp2xTwG3hKHhASiw7v0l3mc8VytzewCcl5BsdNCpAT+o3ffaahedTPGy+menUz/mr4bH9C+Cb6qkjvaqNT/S+9ahVIdzJOkr2ema71tRVJsblo6/lLqQzp8GL+iCGW7p97C4cGsJh2J+QmcP/36qttGDlrcyxtA9p0Un9rXq7tUO4pCOfdcnxQvWQqre59moscEAz4sDDblOb/O17HWmYux7m1hLliVllzsh9NnpqulPg/rV9FrnPmo6GTWNZFvdMQfpmCNlPIuOOgCAVOAhKLD56+NSOWpoaBtoB3TNQT0Q0KnRpNHUKPo/Nt6z5e8xeurlthj3j6Mp/bH/rZYPFmzEy4tf1OmDfyfV77HXXtQR7z0ZY2o+mbzzIU5XV2ZT36d7Pl0BnbKyLb0v+X608in5Yn5Cp575Q4VuLlXb6ID3yQMmiUwQW3eCz7bbqIxn3dZ5KG0PoM+aiYYHkD3P1tGnt8v1NndpUMkNpmLsmxX2chypI2vLXu7ImbaAzulwh0qm9stOBeG9O8dR082taSSXSzAn1VYHdWzu9gEAWpAfEM4BtsKY+F4jy14BWxeGRsVSpDBkLFB7XLLXSK0mjl1dnnp7t/ZQJlO8rMEzr7TFuM+ZIf3A/9v6Wfh8qt9nSR36F8E3dbLnWOq36Tc7frx8QVafCerqZRC6ujb3yereueOpG/dWDunMX46XKUtrOKfDKuuAe+q+E8V6L22F+l44B3Q/2jDHsZRN8cOnRnfRkaR8Iau9+7Zt/GLV61QlN5CKcW9G2MvzLGW89F+SfRrWtqaNMfIfcP1FTdNBB6vPm1JH1pJHMKctVLsOZjMEdQAAraPiG+6PADUSRVK5HAfeDEEdYEOMiUNuBEZRT1yq1/CEV6tlKsbGu7f8PUZPvSwnKLbN+L8aHtM/9P9OKrvpnI0m9A/9v62Po6nUb8ddzjntdmfq0j2nyg9uTUq9TT4Qyy3OKFOcT934V0M6zXgwvBUXzt/QlfFjqQznSLpvOEeiA0sarD4uYQOT2OWHT65radKaSdV7ezc61Jzz8EN9G14W6Eb/vtSMe6+uNexnVZe0cu+xFMku51yqavp45dGafr/1nvuo6WtCm58rbSmbiYOAlkU4p/22fzxXWt15EACAJCpXWJYHqIcwNCqVCb8B6xUE8T7DB6JR9+t1hqB2avWQdOeu3i1/D8df0uDpn7TV+Fe76fzr4AVdM4WWfz8ldegn4Vf0x8G3tJCC97MeL3T8VFJ9uuesta/29m2+W1Vh7p10XhArqz8OvtUyXalK6tCf9/+HOnvo26kM50j3X96q4jNTZA4Bz7XUaZdT9Z4+jqaaNpfZs29jnUOuDR9JzbgP2xcb8nNc17ptSau15KxSqmr6w2BKV6Pa1PRGO8dR02jb86MXhzNsm3BGu3McljYDACRTtNylgAehQH35QbxUD0EdYG1xmC2Szz6CBiGgU0O1WqaiFstcSdLQmVdS2eXjQd6NHtU/9P+OfhY+r5I6WvQ9HNL3K/+V3gyPts12O+K9r1HnoqLI1P0TE1GklZ/RucllrgZmp1O9PVqhK9XZaEL/a+k/1+WxL6R2O/Tai/fsoBOGhvVPUySKpIBPi23amJu+h9DN6qKzY6Igd50d5kKvUwsjT6RivAvWgjpU31CMZcWdLNazxMyok76aPu7XpovORgON1DTaTXU5q3t16EL78lxL2YwlmikBAJIgiozKdCkAGsoP4hACHauAVeei5eWsaHCPRnIlKq7WJzjHsbbcPnrnrrx+9cut3VB1/CWNf/gn+vSJP2i77VBWVq+Gx/RqeEyH7ff0lPOmRqy5xL/ud6ND+ln4fNt0zKnqsMrL3XOM/KAxV2UV3yjn2Orq8rR009/w11eXuarkBlK7XapdqQ7b7+k3nFfVay0k4nWdjSb1s/B5nTUTqY+ZPuGd0L3O083pntNuc4bGvl/fN3JsiyUoNqHPTt8yLm+ER/W082ZTHrDvmCjo9F9cfeC/u7jzq6npXhbPE+u3z7vu6mCOacua/nnlSX0h85Y6ttAdaLPnPmq63ZmEvIb6v46MZ8lxrAa8b9Nm9ZOe92vbcYArCMwWPx3KdQHvn/fKGHNcxeYFoZFPJ2GgOUdhEz8bsYI4wO0Q7Edb7gdGfiDCamgalyGovYpvlM1s7aQ2Nt6jX/1y65+cLcwdV/eVk7rRv69tt8e70aN6N3pUw9ZFPe28qb32J4n6NOk1U9Ab0VN6NzyksrJtuY2+nJ1Wh1Xa8JIFW99XIw0OderSxaVNfX3/7Gu6MPWNttmHmh12+zjaozfCp+JgTps44r13z9oFcwjcMprCZVzKyuqV4Lf019x/0/CfPbAt98AwQ+h16tKur6VmvIfrdG6zrPiB+UaXmEljTZdMVj8qfVnfzP14U1+/lc5x1DTSznGkjEeDZKyf61qybfFJUQBAw1V8wwNRIAFuBXWMXJcOnGiXuieYg4RckzMEtVddPmcrydOuLk9j27v1+Wc3tvx6Jt99UR986X9o++0yZ4b0r4MX4jGxZrTX/kST9tmmhA2umYI+jvbq3eiQ5sxQW2+XXc6MvpB5S5Iavr5jGEq53OYPgwOz020R0KlaHXY7bJ/QXvvjunfVuWCG9W50SB9He9qus9QB95T67LvHN2Bpq9TPIYLQtP1F8c2b/oa6m7k6rRZd1fKBx93D0QlN2mcb+nNHRrsf+G/OHvp2ajqNSNJe+5Oaf0/PteQud82hpmPH/Ud1xHtPu92ZDX9tZQufsKWmkWa3d80B1s+2LXVkLR6UAgAaIjJx1xyWtAKSxZi4q7fvm9vuYwDpqnOCOUgWAjp1Ei+fs9Vlrgo1Cehkipc1curltgoSPMhZM6Gz4YQUSlmVtdM+q2FrTjutGQ3bczXvsHM2mtQFM6w5M6wzZqLtggb380LHn0mSgqA5n9zr6s5uad8qzB3XwvCRttpmc2ZIr4Rf0SvhV1SwFuL9xprTiDW3pYfI10xBC6ZXZ8xEvK9Ek23bVUqSnlsOrq11MwPp5vtGti3ZbbzU1ZnTC/rw/csb+pruZ9LZMfD/DL6pP8j8Lw3v/pcvZLW4UF7z766MH0vVuS+rck0D27YdPzBfvVwdNX3LPy/+rv7r7v91Q0tdlSsRNd3EmkYyrXWsATZ1XetZCu2tBSEBALifMDScZ4AW4C8vg+o4ljxXXGug5RHMQVK5tLKtn3Il2lKb6bHtPers8jb0adt7GT31shaGn1Axv4MNc+d2UlYfR3v0sfbo1eU/q97UzloljSi+ud1hle/bKr5kspozw/F/q0NzZljXVCCMcx+/mZnWiD2nMGreRVpPfmsBkIHZ6bYL6Ky2YAp61zwq6dHb/nzSij8Zv3ofutNZM7lqfxlih1hllzOjXc7MXaG1SqW5Lejbbc7QzPdbqbT3Ulednd6Gv6Z7Pp1hhrKy+mP/b+o/cf95Q0M63j3msMX8hM4e+naqxnjSPluT/d2ybl+/ffX3pKZvnzP/4Obv6dudL60rpFOrznHUdHsyJhnzl1q/Dte15LlW0+YrzAnTx7YtZTJad2cDagBsa2qM94v1olMb0HqCwCgIJNuOu3zTsROtN9cgmINko4NOHYWhFNhbW6Ziak+f3v3lxZq8nskTP9DJY/+ADbMOZWV11kxIRvpEexiQOhi1L+rL2WlJanpHkIFtOc1fLm7qawtzx5UpzquSG2CjrnLWTCzPhNiHNuOI995df1bxI9oAt5Eoij+14rVpW9muro2HGToXZ1I7HnNmSP8saGxIJ5fzJN1+bizmJ3TqmT9M3fjutba+FNCD2kBT07c7Hw3pxaUHh3Rq2TmOmkZasKQV6sW2LGUzlip+xJK6AIAti5Y/kEkgC2jl/ViqREZWYOS61paedQKNOvfU6oNeQF2vvxmC+vJ9o2gLs9Cduwr3/LTnRuUWZ7T9o5fYKGi6Dqusb+X+paT4U9HNDh30D3Ru6etHT/2QjYqa6bUX7groMKlsT0FgFEXcyVqvwtzxVL+/akin2q2v3nJ3dHy5Mn5MJ4/9A4VuLnVju9fefJjBcSx1ZOuzRnvaa7oa0jkfDd/3WoqabmxNI7ksS8pmCeeg/jKeXZfzGgCgfQSBUblCOAdIC2Pi6/NiKVLF534lkicMjcqVSOUKz1HQGgjoNMBWbix7nqOpPf01ey1Dp19R95WTbBQ01dezP1WfvRC3mUvA+sP5wtaWueqfnVamOM+GRU18s+PHd00ufdbpblvlCtt+I9ohpPPHwd/Um9FTjbvA9Tr16RN/kLolgKoO2e9tqiuRbUsdWUsZz6rrmuztEtL5ReXo3ddQQX1C3NQ0WlF8zLFlW4Qm0BieG5/jAADYiMjED0j9gHsZQFrFQQijUjlSEBgZknhokngZq9XBMcYErYOATiMmpsvLVGzW5K5CTV/P7ne+LycosmHQFPvdUyvdQSoJCR0MbOvc8vegiw5qYZczo13OrSVNImMSs5+gecoVri7WqzflYQYpXobzlfAr+kHwbZ01k3X7OYsLZV3c9VV98KX/UQvDR1I7nnutjzd28WRL2YylbMauazCnnWq6ZLL6cfnL+p9v/m2dDuMlMsPQKKjxTX1qGq3KceJjDtCM2iOkAwBYryAwKpd5QAq0C2Pi556lchzMC0PuYaMxqt1ySuXa3zsCGsVlCBo3QbUtbaoddVeXp8mdBZ09s1CT1+L4S9r9zh/p1NP/DRsGDTVqX1zpDhIEyblg8zxbA9tymr+8+eBa/+y0zk/9jiq5ATY0Nu3L2enbfl+hewoUB32D5bWe20Vnl7epryu0QZihKl7y6lsqWAt62n5Le6yP1Wst1OD7Duvd6JCOH35EgZNL9RgWrIV1LwVk23E3Adu2qOk6qXbT6bUW9BQ1XfeaRmtwXUseSw2hiRzHUtaWymWuSwAAa4ui+MNlNNEA2vk4IFUiI/lGjiM5NkvzovbnmiAUQTCkBgGdBqr4Rllbm2pLfeCRbTUL6EhS9/xJjZx6WRemvsGGQUN0WGX9bu7H6rBKiiKTuFan/QOdWwroSHEXnbQul4D6O+K9d1v3nHIl4uZGE11TQa+GzyfnBYWSE1hKwsoWu93bOz3VQ9cmwwyOv6TC3PFUd8e404Ip6JXwK3pFX9GwdVGT1lkNW3PqtRY0aZ2979eW1KE5M6xrpqCzZlJnzYQWzHLnRif9Y/e0/dYD/81WgznU9CaOv9R0XWsarSPjcVMbyWBblrJZQjoAauOqKejPyscYiCZda9daxTc8LAVwm7AaoiCsgy2KjFmpJ56TIG1carrxk9ZsZuMno84uTw/v6dOvP7las9cyeuplFfMTbXXDH83z29mfasSek5FUSmBXkOHRbp36eH5L36N/dlrz48d0o38fGxwb0mGV9dvZP5NZOVdEChPYErid5gwLpqBXzfPJelGJqYlp7UzwTcPeNgszrDZnhjRnhtb8uwnr1jabMRNtf9zNqqxH7RP3PK45jiXP1coyVoaapqZbvKbblUnI/GWjryPjWbIdK7Hb07RhHbU7y7KUWRXSMW22/du9BgzvlTGuoWtRQf+2QkCnFa+1VwtCI58l2QE88FgRHy/kG9l2fK/FsdWQJcPRmgjloF2wkHmjDy5R3BVhMw48sk2eV9tNNnniReUWz7FhUFfPZt7WEe89SZuv/3rLF7LKdXpb/j6jp15mg2PDfjMzrQ6rJKn66SPGBBgc7NzU1/XPTssJigzgHWbMxMovSE/Zb6pDpdv+zLLibjm5DlsZz6r5DSNqmppudE2jNdE5B0kVd9KhNpFu5UqkKOJpEHAvUWRUrkSEcwBs4vgh+b5RqWxUKkfyAzpwIRaG8YobpXKkctkoCAjnoA2urxmC5pyIKpuYxHqeo4f39Nf0tTj+kna/80fc9EfdVsMBrQAAIABJREFUPGxO6uvZn0qS/MAoipL7WodHurf8PbrnT6p/dpoNj3Xb5czouUy8JAWtgYFV857M5qepg6d/wgDinrIq6ynn1lJAjhM/EO/I2nJdi5pGy9c0WhfhHCQdIR2kXfzBSqOKH8nwZAhYYUy8X5Qryb63C6BVjilSEBhVfKNiKVK5EikIjSLOvW1zTgnC+LxSLEWq+IRy0H5cCr45gsDItrThm28P7+nT2dMLWlrya/ZaMsXLmnr9uzr1zB8qdHNsHNRMofSZ/qOB/1fGLKdgE/7piu078jrz6daXkRv/6CUtjDzB/oQH6rDK+uvZH8uYFgnnMGfAchk0Yv5Y6O3Q55/d2NTXDsxO68LUN9hYWNNT9pvKWaW7WivXu66padSzprOmxGl6rXOWUSJu8q3ndWQ8S7ZttcRNyXa6j2SMFEZGNm34V1iy5HntNR6GNa7ablsHQXzv1nF027Kn1BjScK29UX4QPzgFgHqpLmlUPRo6jmTblmwr/n+kYRsbhVHciY15D0AHnabazMNYz3N06PGhmr+W3OKMJt/9ARsFNeMERf2t/A/VYZUUGbOprlGNli9klcttfZkrx19if8K6fCkzrV57gc45wBo6uzZ/PM4UL9PNDGsqWAs61vG2shlbrmM1dN1zahp1qWkt6KhN95xW57l0zkmqyEjl8q1P9lZb8bd7Zw1L1CvaQxjGS3FUfPZ7tJ8giM9/hHMANP78Gy+HVa6s6rDDklgtw5h4W1X8eNmqapec+DqK8QEkAjpNV/E33rZtbHuPtg121vy1FOaOa/LEi2wUbJkTFPXbV/83DWZuKDJG5XLrnHW3T+Rrtj8V5o5TDLin/e4pPee9RTgHuIfe3uyWvn701MsMIu7y9eyfqdMuU9NIjd9y/j91qMRAtPK1k2PVdXk91E4U3WrFXyrHN5tv3WhmPg+k2eqgDstvIO2qwRyfYA6ABM3D/VVLYsXz8Di0E0Ucq5q/fczydVK0vH0MgRzgAQjoJEC5vPGLuyefGq3La+mfnSakgy07+vH/pKd2xQ8KfL+1zsDjO/I1+16TJ15UpjhPQeAu1aWtCOcA91bo7djS12eKlzV45hUGEit2OjPa735CTSM1JqwZ7bE+YSBamG3HS1uhNVWXcq4Gdqoddnh4D6RXGMYfQitXIh4IInUI5gBorXl4HNqpdtm5s+Ml5+nai5Y74wRBPBeqdscpV8zyuDNGwHq5hpXqE6FUNspmLdnrbBOc63S178CATn5Y+4f/1fb5Zw99mw2DDZs88aK+sL8iY7Iq+5GiqLVef0enq6GRLl28cHPL38vxl7T7nT/SyWP/gMLAbf5G9v+WFSwpaLFwDjMGVAuhUZ8S3zbYqcuXljb99aOnXtaV8ecVujm2W5uLg5E/anqHA2oatZJVWS/Y/1pczz947pKEziZm+X+rxeEcuyU7r0QmarM6Wt82CiMpjIz8QLIsybYtua7WfZ+n9fYuagBtvr9XjGxbch1Ljm2xT6GlrrVX13wQimWsAKRCdT5+J9uO5+bW8n9Lkm3xQYl7X+/FnW+MufXfUcS4ALVEB50EKZeNog1ckO0/uE2FLbbKvxc66WAzJk+8qOfyH6nQ25rhnKpaLXMlSbnFGfYl3OavZH6q7eYsnXOAddg2uLUQguMvaeTUDxlI6Evea+q1FqhppMbz9qsqJKCmsXleC3bOCSKjUiWS77P9HqTaXadcjscsCA0hDyCFokhxF61KpIBP6qOValdGlSDuAEc4B0A7nK+DwKx03ClXjIrlSMVypLIf/wpCoyA0CqO4I2aU0rm70fL7M2blPVfHYGVMKnGX0GpXHMI5QO0R0EmYjYZ0njg6WrfXQkgHGzF54kXtuvGW9h/cpkoQtfRJe3ikW7mcW9N9qdqZCu3tMfc9HdEbhHOAderd4pJAkjR0+hV1XznJYLaxfc4pPeu9RU0jNaasT3TUfpOBaGEZz2qZripm+QFesRzJ9+NPT2KDY2ji9vulslEliNb8VC+AFOznfnysrATpfaiH1hdGyw9iyyy5DgBSHD6Joni+7gdxMKVciYP21cBKqXIryFMJbgVbbgv0rPrVsNd+x88No9tfW/U1rw7fxEvzmpVlqfzArIwBgMZxuV5InnLJKJtdX4u1Qm9Wjz42pPd+dbEur4XlrrAekyde1PDcL/TMb+1UxU/HWpMP7x3Qe7+aq+kYFfOTKuZ3UDBtasS+qC9bryhiLVZg3Ua3d9fmGPzuizr5/H/PskBtqNda0F/P/oiaRmoUtKAX7H/DShjrZRL0OpZfi1OTpVDqL4riJS94eFfbOgoDKZSRZRl5riXHobU+xxKkbVuHgVEYSLZt4uWv2M/R7LI28b3aICRoCwCbO46uniIYPfj2/v0PtpYV/3rwNRljD6QVHXQSqlxef9Ly4ak+bRvsrNtroZMO7mfyxIvqn53WoceG5Gac1NzA3b4jX9MuOpI09cZ3lVs8R9G0oYwp6W9Y/0yZqMRgABs0Orb1QEOmeJllgdpQh1XW73X8S3VYJWoaqZBVWb9r/1/qEPOJVmXbcfecJDPGqFyJ25oTzqnnOMfL4hRLEUuLAClVXf6qWIpU8Rv7iXpAikO2FT/uluAHhHMAIEnXAtWuNff7BSC9COgk2EZCOs98Ybs8r36bs392Wrvf+b6coMiGwYpqOGd0rFvDYz2p6Jyz2sN7B2r6/Rx/Sbvf+SP2ozbjhkX9Teef8zAN2KSxGnUcGTr9igpzxxnQNvJXMj/ViD1HTSM1vmK/omFrjoFoYV6CwznGxO3cS2XDzeAG8wOCOkDahWG8VEapHO/rhqQE6iQyZuW8kpYu5wAAAGlDQCfh1hvS8Txbz3xhe11fS2HuuKZe/y7hAki6Fc4p9Gb1yGPDqbyJW48uOpniZfajNuIERX1j6R/zMA3YgtHtPTU9d9HJrD18yZvW4+4Jahqpccx6TYesEwxEC/Nca13LWDdDEMTBHDrmNJcfxA/v2Q5AehlT3dfjbmXxkkPs89hqXRkFYXwOKZcNgU8AAICEc5muJV+pbJTx9MA1iwcGO7XvwIBOfjhft9eSW5zRvte+o0+f+Lsq5newcdpUNZzjebYeeWxYtmOndkn2h/YO6P1fzdV8P5p6/bs69cwfKnRzFFSKPfbZn+jh3ddSs38wZ0C1DhpZC65na3SsW+c/v7Hl7+X4S5o88QOOv2k/9rrv6S9lXkvsMYuaxkY9ap3QMftVzsMtcM66J0tyXCtx2zAMN7fkhWnDOmrYzzJS2TeyQyPPS26oixoA27oGx+BICqP4J1Z8qgwbm7cYY+IaCul8BwAA0GrooNMi4paUD56i7zu4TaNj3XV9LZniZU298V1a6rchJyhq3/TfV//stCRp78FBdfdkU/2et+/Iq3+g9g+8qiEdOumk164P/pG+tOM8AwHUwOj22s1tcosz2v3OHzGoKXXIPqHfyf6ImkZqHDTv6uv2v2EgWpyVwJBFxY+XvqBxQzJFUdxR2acLAtAe+zy7OtZVJ/F5oVyJVCob+T7hHAAAgFZEQKeFVHyzrk9UHHlqVIXe+oYmHH9Ju9/5vkZOvcyGaRO5xXOaev27yi3OSJImd/dq+458W7z3h/YO1GlM45BOpjhPgaWIExS1+53v65nuk3I9TrNALUzsLMir4f7UPX9SkydeZGBTZnzpff1u7sfUNFJj7Ob7+qvujxgI1FQYGhVLkcKQsWgFwfKyVxFP7wGgbc/bFT8+d1eXryKUAwAA0Np4ctiCk/Jy5f6zcM+z9fRz22t60/9eRk+9rN3vfJ8uICnXfeWkpt64Fc4ZGunSvoODbfP++wdyGqtTGCm3OKN9099RbvEchZYCTlDU1Ovf1a7gI03u7mVAgBp6aKqvtsf22WkCDSmy7fOf6z/u/Qk1TU2nqqZ/N/f/MBCoqWrXHLQWY6RyJX4oCwBItyiKj/flSqRiKVp3V30AAAC0DpeFlFtwoh5K5XIk9z7rkec6PX3hixP6+c9m5Pv1jdUX5o5r32vf0adP/F0V8zvYQCkzcuplja7qlNSTz+rRwyNttwj7/gODunj+hoKg9vuT4y9p6o3v6uyhb2th+AhF16Kq4ZyepVk98hsT6dxHmDOgWgpNqIUdkwWd/LC2HceqSzaePfRtNmoL65+d1leCH6rb3dZSS7VQ07jfdvxLpX+lLneAc28N5i4s4RQ/7KtUTE3HtZ1qKCnv119+SOt5VtOXTTPUANK8vbnWRpMEgVGZMA4AAEDq0UGnRUWRVCnfP0Ff6M3q8aOjDXk9meJl7Zv+DktepYgTFDX1xvduC+e4rq3Hnxxty2V7XM/Wo48N12+8l5eNGzzzCsXXgnKL53Tw3/095RZn9PDeAeU6PQYFqLHOLk87Jgs1/750HWlt/bPT2v/rf6qHpvqpaWo6NTW979Q/0c5dfQwGaiIMahzOQVNFkVQu000BAAAAAIBWRUCnxfn+/dscj4516/EnRxr2ekZPvaypN76nTHGejdPCuq+c1MF/9/fUPX9y5c9c19ZTz423dfBgaKRbQyNddf0Z4x++pMkTL7JsXAspzB3X1BvfleMvaWikS5O7WNoKqJd9Bwbq8n37Z6e1b/rvc+xtMSOnXtbkiRf1yGNDDVnalZpGo2p638HBtgzEox73CyL5LIuU0m1LSAcAAAAAgFbkymIQWl0QGkXGKOOu3eZ4cmdBlqTjb19oyOvpnj+pfdPf0fmpb+jSzq+ygVqIExQ1cuqHGjp9dxeXp74wrp58tu3H6NHHRvSLn51VsRjU7Wf0z04rtzijs4d+n2XjEm77Ry+t7C9xl6URpfq8ypwBTS6Fri5PD0316S9OXa35984tzmjq9e9y7G2R+cr4h3+i/tlpbRvs1NhYd8u+F2oad9Z0/0BOQ6PdDEoNT1jtOH2JjFHFN/EyRFZ9xrWtJj0Jfb9+YBRFUsazmjIs1AC40GGnArUAAACAjeNjeSkRRVKpcu9PUE3sLOhIAzvpOP6Sxj98iW46LaT7yknte+07a4ZzHnlsmHDOMtez9fhTY3X/ObnFGU298V31z04z6AmUKc5r6o3v3ba/PH50jE+7Aw2w78C2unVLqR57C3PHGegkH39fj8+Pnmc3dH5LTaPeNe16th6p45KqaA9haFSuLIdzkP7tHRmV/YiBAAAAAACgRfAkMWUqgblnC+tGh3SkW910Rk69zMZJKCcoavLEi5p6/XvKFC/f9fePPDas7TvyDNQqPflsQx6eOP6SJk+8qN3vfJ8lKhKkMHdc+6a/c9sScPsODqp/IMfgAA3gebb2HdhW12Pv7ne+r+0fvcRgJ0z3lXhemVuciY+9B7aps8ujpqnp1NT0w3sG2no5WWxdGBpVWNKq7USRCOkAAAAAANAiXIYgfYLQKIziJa9s+/a+mBM7C5Iat9yVFD8UGD31sgZmp3X28Ld1o38fGykhBs+8otFTL8vxl9b8e8I597Z9R15X5ov6/Nxi3X9WYe649r32HfafJnOCoibf/cFdXQjGduQ1ubuXAQIa6KGpPp3//IYuX1qq288YOv2KeuZPsjxQUs67q5YUlKTRsW49NNVHTVPTqanpoZEu5hPYEj8wCkLCOe2qGtLJ0tETAAAAAIBEc2l7nE7GxEteua6R594e0tmxMy8j6ZcNDOlIUqZ4WVOvf083BvZpdv+3eDDQRN1XTmr8w5dWPq27lkcOD2tsPE9r9Pt45PCwri+UdX2x3LD9Z2H4iM4e/n2FLt1aGql/dlrjH710V5itJ5/VvgODbbOfcDzAciXIqPnF8PiTw/r3Pz0rv46fGM8tzmjf9Hd0fuobujD1DTZ9E+QWz2nyxA9um7N0dnp6/OhIIuqQmkYtajqXc/XI4RHOs3Wau6TtWLGWim8UhswJ61ZDLfJ+w1AqmUjZjNWQ2SA10E6z//ba57nWRjP3NWoBAAAg/eigk3JBELe5zni6rZvOxM64K0qjQzrSrWWvrowf0/mp31ElN8CGapDc4jmNf/Qnty3Ns5ZHDg9rjM4563L02XG99eezDQnpSHE3nYP/7u/p/NQ3dGnnV9kATdxnXNfW0WfH5fIpVaApOrs87T0woPffvVT3nzV66mX1zh3X7IHfo5NZgzhBUYOnf6LRO5ZJ9TxbTz03Ji+Fx15quj1r2nVtPXZ0jPkENq3R4RwkWxRJ5YppSEgHAAAAAABsHAGdNmCMVK5IjmPkuZJlxTdqJnbm5WVs/fKtC3X9pO699M9Oq392mqBOA2SK8xo99UP1z04/8N8SztngQdSz9diTo/rzV2cUBI3Zjxx/SeMfvqSB2WkerDVpn3FdW0efI5wDNNtDU326fKmoC5/fqPvPyi3OaOr17zFvaYDC3HGNf/iSMsXLa8xThlTozVLT1HRqanrfwUH15LMMEjaFcA7WEkVxbWQ8QjoAAAAAACSNa+ib2DaCIP7luZK7vOzVyGi3nvuNHfrFq+eaEtKRCOrUU/eVkxpYHt/1OHh4SKPjPeK4sDEdOVdPPrtdb//5Zw0L6Ui3HqyxbFztrCfM5rq2nnx2u7p7Mu23r3BsgJLX5v/xJ0f085+d0+JCYzqZ9c9OqzB3XBd3flWXdn2NJQdrPG8ZPfXyPTv97d0/oB2T6V9+k5pun5rePdXP3Lsh56x0hhTicA5rsTTgzbbkPhoE8WaqV0invQ5bhuN0W503OK6iuRMXI2oBAAAg7eig04b8wCgIjTzXkuNYKvRm9cWvTOrNX3zesAcBa6kGdW4M7NP5qW/QFWQLCnPHNXTmlQcuZbXawcNDGhunc85m9eSzTQnpSCwbVwsb6TJ18PAwn3QHEsTzbD3+5EhDw8aOv6TRUy9r6MwrhBoadAzeMZnX3gMD1DQ1nZqaHhvv0UN7+hksbEpTwzloGWFoFNiS69BJBwAAAACApCCg06aMiW/q2ctBnc5OT1/44g798u0LDWmpfz/d8yc1Nf89VXLbdHHXV3Vl/HkeEKyDExTVP/uahk6/smb7/HseBJa7gRA42LpmhnQkQm6bOt5cOamh06+oMHd8Xf/+4OEhDY10MXBAwhR6szr67Jh+8epsY8+9d4Qarow/T0hyg8fg9XT62zGZ1+NPjlDT1HRqanpsvEcHDw8zYNgUwjnYCN83si3JtgnpAAAAAACQBAR02lwUSeWKkW3HQZ2nnh3Txx/O6+OP5pv+2jLFyxr/8CWNf/iSrowf07XhI1oYPsJGu0Nu8ZyGzvxEhbnjcvylDX1tTz6rg4eHCOfUUDWk86u3z6tUDJryGqoht2J+Qhd3flULI08QcltlM2E217V18PAw4RxASmzD7W2DnXr8yRH98u0LjT+uLIcaRk+9rCvjxzQ/foyQ5H30z05r4LPpdXX6GxnrbrtwDjWd7poeHO4inINNI5yDzShXjDqykmUR0gEAAAAAoNlcLs8hSSaSKstBnal9/Sr0ZvXLty80rK3+g1Q7g4RepxaGj7R9WCdTnFf/7GsamJ3eULec1foGcnr8iVG5ns0OUGP5fFbPPT+ht17/TNcXm7dsXG5xRpMnXlT40UtaGD6iizu/pmJ+R9tul8LccQ3MTq+7W87KidK1dZQuU8CKMDAKbJPI5RJ2TMZLNTYj0HDnnKWS26b58WN0IFk1dxk88xP1Xji+7rnLjsm8Hjk81NbjRk2nq6bHxnu078CguAZvnDSNdRgaRaGhfqijTfF9o0yG6uFYArY1qEEAAAA0Gx10cJtoOajTv61Tz39pQm+/cV6LC+XEvD7HX1ozrHNjYH/qO4TkFs+p+8pHGpidVm5xZkvf66Gpfj20p5+Cr+fB1bN19Jntev/dOV2cu5mY/aaS26ZrI0d0ZfvzbRHWKcwdV+/c8U11mJII5wD3EvjxQ0LPsxL3aewkBBqkuBNgtQNJMT+h+fFjWhh+oq2CDZnivApz72xq7tKOy1pR0+mu6bHxHj1C5xxsUhga+T6dc7B5USQFgZHLx/QAAAAAAGgqAjpYUxRJrufq2ed36NNfX9Gpk1cS9xpXhw4kqZifWA7r7EtFC34nKKp7/iP1zh1X9/zJTXfKuW2Hd2099uSo+gdY7qghB1gvHu+TH17WzOlriXhNmeJlDZ1+RUOnX1kJ6ywMH0nNshXVB2c98yc33CnnTj35rI4+s50uU8B95grlspHrKXHddJISaKjKLc6sLNtZzE/o+sC+VB17b3+v51SYe0e9c8c3HSgmnENNp62mCedgS+dbQzgHtREERrYt2TYhHQAAAAAAmsU13OfBfRgj7dzdr0Ihpw9OzKlYDBL7WnOLM/FN81Px76sPC4o9EyrmJxPfLSRTnFf3/EfKXZ9Rz/zJLXfJuVNff06PLS9pxX7fWHv3b1NPT0Yff3hZQRAlqOZuhXUk6cbAPl3v39dSIbfc4jnlFs+q58rJmgXZJGlwuEuPHBqW47K/3H5SYAhwa35Q5VeMQjt53XTGJ/LKF7L6xavnErNk5+r5yp3H3mJ+oiU7AnZfiecsPfMn1X3l5Ka6la22Z/+A9u4f4NhLTaempndP9euhqX5quonnq1Yf+3IpgW/AtF8dpUWlYpTNWtRAG9cA2zuh25p5AjjeAAAAtA3r1D/5a0z7sC6BH+kvTl3RzJlrLfsebgzsUyW3TeXcNhXzEwq9zoYHETLFeWWKl5RbnFGmeFmdyw81tnrz/15c19ZDU/2a2NVLETfZ9cWyPjhxUdcXyy3xeov5CRXzE1pa/v9ifrKpD9m6r5xUZumyctdn1Lk4o+75k3X5OXv3b2N/uYer80W9/cZnDEQKVR8gb5XnWnIStnTC4kJZv3z7QqKW7LyfyvIcpXrsbcZcZS1OUFRu8ext85daHoc9z9bBQ0MrnWJATbd6Tbuurb0HtmlsnJpuJtuWMpnW7YZYqUSKouS9rlafE/b15/TkM9vbdr+oxXxt/tKSfvHaLDXQJt5+/TNdvVJs2df/W7/9MNfaaPlrbQAAAKQHS1xh/cXixTeZh4a79P6JOZUS3E3nXu530736wCB0O7WUn7jrzzf7czoXZ+QES8osXa5Zd4/16uvP6eDhIeVyHgWcAD35rJ58ers+/uiSPp+9nvjXW/1E/J23EW4M7LttP1m9j2wmxFN9QHbn/lPdd+oZYFutI+fqkUPD6mMJOGDT/MAoCI0815KdkGWv8oWsnvuNHfrV2xd04fyNxI9hphjPF+5cpi/0OuPj7T2Ov6HbtelugbnFc3KCm/HPXzVf6bly8oHzp5qcbzo9PfXsmPKFLDsRNZ2Kmu7IuXrsiVH15KlpbF4QmESGc5CO+ZrtKFGdDwEAAAAAaBcEdLBhfQM5PXtsQmfPXNOnp66k5n2tXlLqzgcILbdj84nd5G4bz9bBQ8MaHO7WB+/OJWrJq/WqPtRq9f1kteqSVq5nU6TAFhkjVXwjO0zOsleeZ+vos2P69NdX9cGJSy05ro6/lMrj78C2nI4+u10ex19qOi3XSquWlQU2KwqNgoBmx6gf3zfKZAjoAAAAAADQaC63fLAZjmdr91S/Rsd79OG7F1u61W3aTOzs1e6pfrmezRLWCTY43KWnn9/B/tPsk6Br6+DhYQ0Od0li2fcHYXzYvhsRRlJYNvJcyU3Isle7H+7TtsHOlloeKM0OHhrU7of7GAhqOjX2rFomk3Mmc5dNv2ZjVPYN48p7qKswksLQyHHaN6TDcZptzWsE2xcAAADNQAcdbEku5+mJZ7br6nxRn3x0WdcXeTDQLH39Oe05sI1W+i24/1yau9my3XRa2eh4j/buH+QT7kCd+YGRHxhlPCsRD4Hyhay++OVJffzRvD75aJ4N1KRt8PiTIyxpRU2nRk8+qwOHhpiHoyYqPo/x0Lg5WjsHdAAAAAAAaAYCOqiJvoGcnj62Q5/PLurTU1dUKgYMSoP05LPas3+b+gZyDEaLGhzu0rEv7dSnp65o5sw1BoR9Bkilim9kLQd1bLv5D4P27h/Q6Fi33n/3ouYv08msETzP1q6H+7R3/wCDUWPGGO16uF99A5365MPLdOdr1MW0a2tiV9y9EqiFIDCKyOyjYeeOuOaS0ukQAAAAAIB2QEAHNTU2ntfYeJ6gTgN05FztnurX2HiewUjDwdiztefANo2O9/BgjX0GSC1jpHLFyLaNPLf5QZ18IavnfmOHzp1d1Mcfzau45LOR6mRktFsHDw+qs9NjMGosWO5SJcUh1Cee2c5cvAEGh7u058A25XLUNGojMrf2ZaBRfAI6AAAAAAA0lGsMN4BQe6PbezS6vUfnP7vOw4Ea6+vPaXQ8Hl8p/sQ00qO7J6MjT4/p6pWiPvnwsm5crzAoW1QN5rDPbJ1h5fT0bltjGrpvhKEUhka2LXmeJdtq7oOh8YkeDY926fSvr+rTv7imwKd9Qa0MbMtpz/4BDWzLcQyusdXBnLXm4oNDXZo5c03nziywjGaN5+K7pvrU109Nt8b5rXW2UaUSqVXKKQ1zQvbdW3w/2nBIx6Ti+EANtNO1DsdVtMu1NgAAAJKPDjqoq2pQ5+qVok6fukpXkC0YHO7Sjp2FlYcBSLe+/njZOEJum3dnMAdA8kSRVC4bOY7kuZLVxKCO59nas39Aux7uI6hTA7lOV3v2D2jHBF3Lau1+wZzbLvQ8W7un+jWxs5egDvMKtMB+zdJWaBa66AAAAAAA0DgEdNAQff059T2dU6kYaObMNZ2fvc4DgvXsoK6t0fEeTezsVUeO3bUdEXLb3PFmx86CBoe7GAygRYShURgqkUGdczOLKi4RklyvgW05jU/mCebUwXqDOXfNJ+8I6pz/7DrB3w3OK1Z3rwRqzbC0FRJyjiGkAwAAAABA/bni+hsN1NHpas+BbdpzYJvOz17XpbmbujR3k4G5Q3c+o4mdvRoc7pLr2QwI1DeQU99ATtcXyzp3ZkGXLtwk5Lb6ZFYNs+0izAZsirX8q8nCyCisSLZt5DmWbLv5QZ09+wd0bmZRs2cXNX+ZkORAf6ysAAAgAElEQVS9jE/ktWMyv7KUFWonCFc9vN/CLuFmbO3e06/de/p1fva6zs9eJ/h7H9VQTt8ANd3y57eEqwRG3JehNpp+rolM+90gpAbY1kAbXWsDAAAgOXiKiaYZHe/R6HiPAj9aCeq0c1inI+dqdLxHY+N5Aga4p558VgcODSnYH+83M2eu6cZipW3HY3C4S6PjPXTLAVImiqRyZBIR1JGkHRNxR5ilJV+zZxfpqrMs1+lq90N9Gh7rUmenR+HWkDFGQRR3NKjnPLxUDPT57KLOz9JVpzofn9jZq8GRLubjaIgwZGkrJOW8E9ej4/AUGQAAAACAeuKuI5pfhJ69Zljn6nwx9R1CuvOZlbb5PfksxYBN7TelYqBLF27q888W2yKsMzjctfKLDlNAulWDOpYVB3Wa/dCos9Nb6aqzuFDWubOLunD+RluFdXKdrkZGu7VjMq98gblLzWveGAVh/JC0ETpyrnZP9Wv3VL+uL5ZXOly2U1inI+euBH6Zj6PRKixthQQJIgI6AAAAAADUGwEdJKsgV4UOJOn6YlmX5m7q2nwpFS34XddW30BOg8Nd6hvI8clc1ERHztWOXQXt2FVYCetcmruZmmUrqg/OqvsOgPZjzPJDzMDIcy05tmRZzX2AlC9kdfDQoA4eGtTiQlnzl4q6cP5GKpfByheyGhnt0shYN6GcOglDoyBqbieNnnxWPQey2nNgm64vlnVtvpSq+cRq3fnMStiXUA6aJQgJ5yBZoigOitoWIR0AAAAAAOrFNdwTQoJ192TV3ZOVHo5/f2OxrKtXSrqxWNb1xbJuXE92t5COnKu+/py681n19Xeo+44HAOx/qLVsh6vxnQWN7yxIkq5eKerafFFXr5R0rUUesHX3ZNSTz6p3IKe+/tuDbOwzzcXwp3vjtsr+VfHjF+o4kuuo6ctfSVJPIaueQlY7H+6VJM1fLmr+0lIc3LlcVOC3VkfAgW055QtZ9Q/mNLCtU96qbmUcB2orCIyC0CRu/6vOwe+cT1y/XtG1Fuxy2dufU08+o97+eG6xugMfc4uUn95MMo9bxpiV8xlzwua8fvb9tfmBlPGoAaRsexvGGFxrAwAAIDmsk//7X2WKiJZ29UpRpWKg0pKv69crCvyo4UGEjpyrjpynnnxGHTlP3fmMenqyLL+DxLmxWNb165XlkFv8/818yNbbn1Mu56o7n11Z8g0ANjSZtRR31UnwkgzFJV8LC2UtXitrcaGswI8S0WnH9WwVClnlC1nlOj3le7Ma2MZxuN6iqLHLWNVDqRjEYfnleUUz5t9r1rRrqzufvW1Oztyivdm2lM0k75qs4puWPgYg3XIdydhnosioXGE/AQAAAACkCwEdpNqNxbL8IFLgR7qxWF758+qDhI3o6+9Y+e/ufBy+yeU8lqlCKly9UrxtP1m9j2wmxFN9QHbn/lPddwiwAagHx7ES01VnPXw/0uJCWb4favFafPytBnhW//1m5AvZlc43uU5Puc54vjIw2Bn/P0GchjLGKIzijjlp/gRt4Ee6fr18zzlF4Ieb7oDZ3ZOR6zlxTefclTl470Buea5BTeNuSQzoRMaoXOY2DJIr4yUn+FwsRWwQAAAAAECqWB/9YwI6AAAASNEE17oV1rEsiwFB04ShURgZhSFjATRDEgM65UqkiMwBEsxxpExCPkxR8SPOoQAAAACAVKH1BwAAAFLFmLhTSRBItm3kOJYcm7AOGiMO5YjlawDcJYoM4Ry0wHlMkpeM1+LYFudTAAAAAECqENABAABAakVR/EDUF2Ed1A+hHADr4QccI9A657UkLHNlsyoyAAAAACBlCOgAAACgLdwZ1rFtS44j2YR1sAksXwVgY+cguueghc5xUTICOpZlybKMDNk2AAAAAEBKENABAABA26mGdYJAsqzlsI6tRDyMQkJrxhhFYfzQkofsADYqoMMWWkiSlrmyWeYKAAAAAJAiBHQAAADQ1oxZ7oYSSvKNbFtybEu2HT8UQrvWRRzEoUsOgFocTziOoNUkZZkrxxb7DwAAAAAgNQjoAAAAAKtUu+vECOy0i1uBnHj7s5wGgFrxA8YArSeMJMdp/uuwbLYFAAAAACA9COgAAAAA97FWYMeyJNvS8n8T2mnN7WoUmer2ZTyAtDIJSNuxPA9a9TyZhLAqsywAAAAAQJoQ0AEAAAA2oBrmqK62YFnmtsAOXXaSuM1uhXFWb0MAqLcgIJyD1mRMHHBLQhDZtjl3AwAAAADSgYAOAAAAsAXxAywpkpZTO/HDWNuOQzvW8i+CO43YFvGn/aNIqjY94oEe0L6iSCqVCcgAmxVGkpuAZa5sa3meBQAAAABAiyOgAwAAANRBFN35MMmshHUsK16ywbYlWZLNMlkbHFtzKxhFEAcAgLrNZZSEgI6tW60LAQAAAABoYW4S1mMHAAAA2sG9p96rwzuWLEvLwZ34b9up+05kjGRudSaS4kBO/P/UEAAADTsnR5JR8+cglm3JGCYBAAAAW/Gjt65u6N+/P1vUzdLWU9KVIFLGtWv+fg7t7FRuA9/3S4cK6sraFAKA5l/jfviPXiChAwAAALQIe/leQjXMc+ef3/p98x+oVcM2VatDN9Kt4E3832xbAACSJpu1bptvNEu5HInPGAIAgLRZKzRz6kJJV24Ed/35/PVAi8W1AzOlionvwWBLOu8R4Mm6lsb6M3f9eVeHo0fGc3f9+VN7ezSUZxEbAGsjoAMAAAC0EbsOHxa6M3gDAADSwfMsOU7zAzq+HylkmSsAAJAQPz95XVev3wrR3NltZq0wzVKZTya1s6xny1l1T26t0M/TD3ff9vsXjvYxcEAKEdABAAAAAAAAcBfPteS4zQ/ohIGRH3ALEwAA1NbqDjarO9cslSPNLfgrf0eHGiTB6g4/wwVv5fd3dvIh2AMkGwEdAAAAAAAAAHexbSmTsZv+OqLQqOJzCxMAANzf6sDNG7++IUmqBEafXams/DmdbNBOPMeStxy4Xx3q2TvWod7OeBkuAj1AYxHQAQAAAAAAALCmjo4EBHSMUaXMLUwAANrRR7NF/cX5kqRboZvVHW4I3AC1Uw3w5HOOBnriAE916a2HRju0f1WnHgCb4zIEAAAAAAAAANZijJFlNXeZK9uyJBHQAQAgbaodb96fLepmKSR4AzRZdb9bKke6cC3eFz84V7zr390Z5Fm9zBYdeYD7sz6ggw4AAAAAAACANWQ9S7ZtNf11lP1IEc/pAABoGSfPFfXrCyXNXK7owrWKbpYjXVyoyA+MKgHjA6RdxpU811I+52qgx9VIb0YT2zLq63b1hf09DBDaFgEdAAAAAAAAAGvyHEuu2/yATsWPFBLQAQAgMe4M4Fy45qtYCbVUNjI8eQTwAJakzg5LGdfW9v6MujocHRzPEeBB+mufgA4AAAAAAACAtTi2pYzX/IBOEBj5IbcxAQBopB+9dVWlSqQTM0srHXBKFUNoFkADrkOkjsytDjx7xjrU2+myhBZaHgEdAAAAAAAAAGuybSnr2U1/HWFoVAm4jQkAQK39/KPrOn2xpE8+L2n+eqDFYqClkhFnXQBJVe2+Q3gHLVm/H7xIQAcAAAAAAADA2jo6mh/QiSKjSoXbmAAAbMbFRV9vfHJDH84WdXHBX9UJh3MrgHRxbEsdGUtDhYyGCp4OjOf08EhW+8c7GRwkgssQAAAAAAAAAEgyy2IMAAB4kI9ml/TrC2W9eeqGrtyIu+HcLLEeFYD2EUZGN0tGp0slnZ4r6Y1Prq/8XVeHrXzOVX+3q6emugnuoCkI6AAAAAAAAAC4pygysu3mJmQsy5JYbAMAAEm3d8SZuVQmiAMA63CzFOlmqaLzVyv64NzSyp/fGdx5ek+3hvIeA4b6XNu+/wOWuAIAAAAAAACwtkzGkt38Va5ULhsZ7mQCANrMzz9e1Om5sj75vKTTl0oqliIiqwBQZ5akXIetXYMdGunzdHhnp76wN8/AYOu1RUAHAAAA9+N5lhynfd9/FEmVClNmAADQvlzXkpuAPtyVilFEcwAAQIr96O2r+uCzJV26FmhusaIluuIAQKJkXEv9PZ4mBjM6uL1TLzzZx6BgQwjoAAAA4J4cx5LX5t08CegAAIB2l5SAju8bhSHbAwCQDtUwzsyliq5c91UJuPcAAK2I0A42goAOAAAA1p4oWlI2a7X9OBDQAQAA7S4poe0gkAIeXgIAWtDJ2SX92w8W9emFMp1xAKANVEM7B3fkWB4Lt7Hee/HrXNUCAADgLlnPkm0T0Ikio7LPlBkAALQv25KyGbvpryMMjCoh8zIAQLJdWgj05ic39Oavb+j0pZKKpUicvQAAnR22dg12aM9Yh776WK8GCy6D0oYI6KTUotWrj6zHWvo9PB39ezbkJn1kP6ZF9bbs699vfqW8ucaGBIAm8hxLrks4RyKgA4DrNDzYdnNG4+YMA4HUSkxAJzQs/wEASJyPZ4v6t+/H3XE+u1LmXAUAWJfVXXZ+85G89o7nGJQ2QCwrpRbVqzfsL7b0e8iqpMei19mYm/Ch9Zg+syZb9vVvD88or2QHdL7v/rctXSN/EPx37Cir/EvnP2vpfeavh/800Q+EZq2d+lfO30rnBFpl/ZfB91L3vmxLbRHOmTGT+j+i/zSVs+bt5qx+N/wniX+daT4+JM02M6esSiu/HzQXlFVJWZW0zVyQJMIF/z979x4lx3ned/5Xl74N5oaZAWYADIkBSYADUSFBUCJACjRJXUhGvoik7EiRk1ixpTgncezdOCfHuxs7m5PkROd47VV87FiJpFjxrmhmNzbhtSWLlCxKIiyBlAiClEQMCZIYAANg7ph7d1dX1bt/zAwwPRdgBtOXqu7vR6ePiAamp+t933rrraqnnofzNGzCoVCsx+pEkyaLHihJKadtC/NosybUZCaK3qsVYUTuM1rEjwMAImAxIOfH57MamSwoCAnIAQBsnOcbDV72NHjZ01+/NinHttSccbR3Z1pHept0//4mGqkGueTVQ1Qdtx/SLWEfmVTqkVl4obxtDPYZbH4BrZROWQe0PzxZU9uVSFgydTCmfmAOMdejboxanUV/XiswNam8tplBbTODajYT6jCDBO4AzLtYYlotmrZait57x7p91X/bZCbVrAl1m341m/ngnTjPqZFYH3LuAwCogr6BrJ7/0ZR+PEBADgCgfILQ6PKsr5dOz+il0zP6P//iklq3uNq7M6339Tbpfb0E7NQCMuggsjyl9HXncX3U/xKNAQCIrNft2grQSbiWrDp4NHlSrTptbmcAA6uswS9Yu1cE8HSYIXWb/vkyPmF/UTYeAMDqpq0WTatlxZy6y5zVNjPInHoDLNsSEToAgHIbnvL1p98dIyAHAFBVRioK2Pm9rwxqW0tCd3Rn9PC7m9VLSaxYIkAHkXbB2q1Tdu1lJgAA1NaxasTqqokyBrYtOU591A34kbmLwQtswKjVqVGrUyd1SHLmA3ZuNX26JeyruTIuAFCJ9eMFa3fRnNpt+nVL2EfWMgAAquQrP7is5388rYvjeXk+ATkAgOgJwiUlsX44qaRraWdbSnfvadDP/0QHDRQTBOgg8r7tPKZbwj6eKAMARNZJ+7A+FByN/XYkXKtu+qzmy1sBZbYYsPOi/aCazKRuNX3aH54kWAcANjGnnrQPKam8bg37dIvp061hX6S+pwnNQgYbAADib7Fs1Yl3ZjUx65OfDQAQO55v1D+cU/9wTs+8OK6tC+WwfuY9W8muE2GuYdVRm2roesliqauf9J+mX+sIcxPtixrq0zq4hv+23asH/HSsg0mTCUuWrLqoGPAj3aW8UswLzA8okWmrRSetQzppH1KHGdKB4DgB9oz5ulyLsR5DKXhK6ZR9l07pLiWdvPYHJ3UgPK5mM1H9cS7JMtHY3wAAuBHffWNaf/mDy+ofyatAlhxAQeBv6ufDIJQpw+LMcZ1N/bxtO7IsToJQf5aWw3JsSzd1JPXYgVZ94M4WGidCyKCDWHjHvl3v2L26JWJPjwEAIC3cSHEO6EBwPJbf33Ekp46ehv4h5a2Ashm1OvUN9yNK6rFI3VQGgLiuMV91DulV55B2mbPaH5ykBLjmy7KGIeMDALA+T31nVN87Pa2RSV9BSFAOoisMg5XBLkYKgmDNf78WY4xMhBZMlmXLmPV/H79Qie9kybLta6w5Vw8Schxn1QcgHIdb7oiWIDTqH87rc88N6T8/N6TOrQndt7dJn6AUVtUxWyA2vu4+rk96n+VJXABAJJ20D8c2QCfp2nXTT8Pq0nntZsACZbb0pvL+8FXdG3yLQB0A2IQL1m5dcHfrRfOQDgXfIlAHAIBrWAzKGbpcoHQVys6EocIlwScmNAqXBccsD6YxYXkyz2AD/WaMTLB2kFO4xt9tJHjIdoqDfCzLLsrsY1mWbMcu/rPt0Dko/XiXNHi5oGdeGtfRl8bVuTWhd3U36Gfva9O25gQNVGEE6CA2PKX0ovOQfiL4Go0BAIicaatFF+we7Qr7Y/W9EwlLpo4yvv7A3MtgBSrslH2XTtl3EagDACVac37D/UhVAnWMVFfrRgBAvHz5O6M6/ua0hiYIysENrnWWBtosy1wTmvBKnU1jJHON7DXAlXGzIshnY+PGsosDepYG7yzN5GNb9jWzAQHLz+sGLxc0eHlS3/zhpLZucfXgHc36eTLrVAwBOoiVV51DutX0xe7mJwCgPpy0D8fqGOW4lhynfu6y5JXWadPLQAWq5JR9l962e3UgOK5DwbdoEADYhKWBOj8RfK0iJcF5yBsAEDXffWNaf/LCKEE5WFMQ+AsLmasBN8aYK+WWolYKCihaf4dh0dy2NOBnrUw+S4N6lmbssW1blr34305R4A/q2+VZX0dfGtefvzSuztaEDu9rIlinzAjQQex83Xlcfzf8HKWuAACR8459u6as1lhkh7AsKeHW14nYj8xdyivFQAWqyFNKLzkP6pR9QB8KjhJ4DwCbNG216Cvux7TLnNUD/te0zQyW7XcRoAMAiIK+C1n9ybFRvXEhpyDk4FSvFgNvwuBqqajFMlKUj0I9Kw7quXbGHsuyrmTeWczOs7TsFoE8dTZ2JA1OFHT0pXH9xQ8u66aOpH7pA9vVuytD45QYATqInWmrRSedwzx1CwCIpFP2gVgcoxLJ+ju5+oE5xAAFIrSm/zP3F3RX8KIOBd8i+B4ANumCtVtPJ35Z9wbfrvnrJfM3CbjpBgD15g+fHdLxN6c1lyfbSa1bDL4J/PnggsXyUmS7AUrLGCOzkJVnZTmuJevvxaw8liXbmg/ecdz5gB6CeGp0Hg6N+ofz+s0/Oa+Ea+mB/c362fvbtK0pQeOUgMvpbI1OqjW+fS85D+qWsE8dZXwyDNUdv8xNzBGonX2m3sbbSeew7o34TZGEY8mePwurm345rx5NqYW5nu+IiHnVOaR37F79pP90XaztGfP0L98N5faS86DesXv1Qf9o6edVE431I+E5AFA/3hiY0xe/OaKzw3nm/hoSBP6SklNGYRjKGMmEAY3DuRKi2H9LsvIshsgtL7Fl2Y4sa76UlmTJcRzJIoCnFhR8o2/+cFLP/3BSna0JffxIh+7vbaJhNoEMOoitb7iP6+OFz9EQAIBI8ZTSKfuA9ocnI/n9bEty63AFSPYcILqmrRY9nfhlPRA8q7uC4zQIAGzSqNXJvAoAiLWnvjOi516dJFtOTJkwVGjCK+WnwjCUZK6ZoQNA3Pf7QEZXM/EsD+CxneKMO7Zjy7bsKyW2EIM+1nwJrM/+5SX9l68P6fC+Jv3jRztpmBtAgE6M5LO+hi5Nr+vfjja0SzfXdnuMWp16yXko8lkKSmX44oxyucK6/m3u5oLUwD4DANXS50Q3QCeRqL8nFibVqrd0OwMTiLgXnEc1YnXpAf9rsSp5xXkaAOZVAAA2b2SqoC89P6ITb88qCMm3EXXzgTeBTDgfgDOfBceQBQfAqsJrlNK6mn3HkW3bsmyLzDsRN5cP9c0fTurbP57S7TvT+qcf7tK2ZspfrRcBOjGSy/k6/87Euv7tTPtMXVz4fcl5UL3hSTWbiZrf1uFL05q8vL4LavntPgE6N+BvvnFm/f/4w7RX1P3o5Uvr3mcmD2elNtpsIyYv5/Sjly+t85iUkuoseckFa7dGra7IlWtJuJbsGj+vuTyW1cvHi8fmpb2PS3vZb5kfEAd99l0aTXTpicKXYnMzmfM0MN8iDvPqh/2n6+LaCQAgfkamCvqDrw7q1ECWMjgRtBiIM58NJ7wSjFNPZdMBlHmeWZZ95wrLmg/YsWxZliXHdci6EzFBaPT6QFa/8l/OqLM1oX/6WKdu7+YG9fW4hoNorBZCWOkbzkf0ROFLtd//dTbWGe/MJ+wz0d5n2Eev76R9SB/wj0bm+9i25DhWze8b585MrXhvvPuBupznq7WfMj9gs0atTj2T+AV9oHA0coGOjHmsvfZkPYZoz6tPJ35ZT3hf2tS8aiQZWXW5vwEASu+NC1n9p68NaXCiQGNERBD4VwNxgvkyVQTiAKjewn+xNN7Kslm27ch25oN3bMcm407Vz9Hmy1/95tMD6mpN6J881qnbd2VomDUQYobYu2j36FXnMA0BAIiUPueA8kpH5vsk66C0VS7ra2Rotui98e4j8jLtDEggZkatLj2T/KRGrS4aAwBKwFNazyQ/qXfsXhoDAFBVb1zI6te+2K/fenqA4JwqMcYoCHx5+bxy2azm5mY1NzOtfDargpeXXygoDAOCcwBEVhgG8gsFFby88tmssrMzmpubVS6blZfPK/B9mTCkoapgcKKg33p6QL/2xX69cSFLg6yCAB3UhJfchzRttdIQAIBI6XMOROJ7JBNWXTxBcPH89Ir3xrqPMBCBmFq8mUyQDgCUbl79q8THI7NGBQDUl5EpX//mvw8QmFNhqwXjZGdnlM9m5Rc8hYEvcRMbQC0IQ4WBL7/gKZ/LKjs3q7nZGeXm5q4G7RB4WDFLA3VGpnwaZAmXZE/xQV+tzVNaL7iP6ScLT9P/NbKtjHfGE9sY7X2GfXR9XnUO60BwvKrfwXYkx7bqou7b+TOTxeuDTIdm2urzKfFqHkuZH1Dqdf4zyU/qyU2WZWHMg/UYcNVfu49LkvYHJzc25ixFZk3J+AeAePntP7+kH7w1I26Lll8YBgr8YP7/w5DgGwD1zRiFJljIuLPwnm3Ltmw5znyZLMdxaacyGpwo6J99/oz2d2f0T/92l7Y1095k0EHNOGP3kqoZABAp01ZrVY9NliUl3fpY7l0amJbvF190urT3cQYhUAM8pfWVxMcjVTYQAOLur93HdWqDmXQsomIAABv0lZcn9PHffUvfJzinbK5kx5mb09zMtHJzcyp485kiCM4BgFUsZNpZLI+1OHeSZad8jKTXB7L6Z1/o15dfGK379iBABzXlG4nHuXAPAIiUU1UsIZBI1M9dlEsDxeWtgkSDJrvuYQACNWLaatUzyU+y1geAEvpr93FdsHtoCABAyY1M+fpHn3tH/+1bIwq50VlS8wE5OWUXAnKulKoKAxoHAG7QfIadhdJYszPKzs3Jy+cI2Cl1OxujP3/psj75+2+r70K2btuBAB3UFE9pfSPB0/IAgOg4Y/dqymqt+O91XEt2nTzmPD3l6fJ4rui9yc6DCtwMAxCoIaNWl15wH6MhAKCEvpL4uEatLhoCAFAyX35hVL/y+TOamCVgpBTCMCjKkDMfkFOQISAHAMrGhIH8QmFZwE5eQeDTOCUwlw/1r58e0G//+aW63H6XmK8YTQY0wbqcsXs1YPdoV9hP/8d4WxnvjCe2Mdr7DPvoxrzqHNYR/2sV+322LbmOVTf9dL5/csV7l/Y+UffzvKni7wbKpc85oA4zqLuC46w5wHqMZkcJeErrz5Kf1D/If1Yp5a495oxkIhD/bQzjHwCiaGTK17/68jldJjBnk2s8o9D3FQS+Aj+Q4aiHGmCxfkPc5+YwUBgGKhQkS5Zsx5brJmS7rixRC/jGjnfSS6dn9Au//5Z+4/Fd6u2un4dtXbq/cpKbLDORcNnB1+ubiSf098LPXffiUpzYddT9CddS0jDeAdSOU86BigbouHW0ZvALoUYGZ4vem2nvlZdpZ+ABNeqY+5h2hf3qMIM0BgCUgKe0jiY/qce9L8XiOkrI3R0AiJyv/GBCf/ytEW7A3yBjQgWLQTkBAU4AEOk5W0ZBEMzP13nJtmy5iYQc15VlUbxoo+ZyRv/66QF95N6t+sRPdNTFNjNKKtnYtrWpl0W8wrpNqUXH7Yc23eZRetUTy6KNAdQWT2n1OQcq8rtcp35KW0nSpYFp+X5Y9N7YriMMOqDG/TVlbQGgpEatLh27ThnB6Jw3c/sXAKLk//jzi/pvBOds/GhmQvkFT7m5WWXnZuV5eYJzACCGQhPK8/LKzs0qNzcrv+DJmJCG2eAZ3tGXLutf/vG5uthe17BqquCCizaopBM6pFvNG7pJ/TRGDPcVdhfmo5Ic0etpn6GmQuS96hzW7f7Jsv4O25Ycx6qrNcfy8lZepkPj3QToVHWuZ35ABYxaXXrJeUjv9b/FmgORWXuyHkPc9TkHtDPsV29wMtLnkVU5/wEArOrX/mu/Bi97NMQGjmFh4MsveAoCbt6ijlicv6A+hCaUl89L+bxs21YimZTtuCThWKf+4Zx++Q/f0b/9xE3a1pyo2e0kgw5q2rPWR2gEAEAkjFpdGrW7yvo76q0c5sR4VrmsX/TeGME5QN34vvuQpq1WGgIASuhY4rGyr1kBAPE3MlXQ3/+PpwnOWaf5G7Y55eZmlc/lCM4BgHqY+8NQ+VxO2dkZefmcwpAsaetxedbXP/+jfo1MFWp2GwnQQU2bUou+Zz1IQwAAIuFV53DZPttNWLLqLBT/fP/UivfGux9goAF1hFJXAFBantL65ipzq80VRADAgpGpgv75H/XL80mHcT2B7ys3N6fc7Jz8gi9DCjgAqEt+wVduLs8cWRcAACAASURBVKvs3JwC3ycj6PXOS31T00E6nF6j5n1PD2pEPP0FAKi+N5wDylvpkn+u40iuXV/BObmsr9Gh2aL3JjsPysu0M9CAOnLR7tEFu4eGAIASGrW69H33och+Py5mA0D1EJyzvuNUwfOUnZtTPpdTGJItBwCwcIxYyKqTm5tVwfM4t7mGWg7Scen3Cu50myywSF/duK9ZH9HfM5+jIWK1tzDiy9vCoE8ZQ9XS5xzQnf7x0i7oXKvu5s1LAyuz5wzveYQBFoH9lPkBlfZ99yHt9L7EugpVn3NZj6HW5tbbg5NqMhPz480oMuvNkMEPAFXzr546T3DOWmszY+QXCvIL3HAFOHsBrn/MKHie/IInN5GUm0jUXXb89VgM0vmdf9ijbc2JmtkuMuigLoyoUyd0mIYAAFTdayUuc5Vw67MdBy/MFC/WMx2aaetlgAF16KLdo4tk0QGAklta6srhCiIA1L3f+L/OaWLWpyFWEfi+ctk5siEAADZkMetabm5WfqFAg6zC843+/f97oaa2idNr1I3j1kOaUisNAQCoqmmrVWec0gSSuI7kOPGMrN9M3fXBCzPKZYsvCpI9B6hvr7kE4wNAqV20e0q2bgUAxNufvDCi/uEcDbFMGIbKZ+dLWRlSvAEAbpAxkpfPKzc3pyAMaJBlBic8/Zfnhmpme1yyiqFe5JXSs9bj+jnzJRoDYO6vvf6kT2PlDfuA9vh9m/oMy5ovbRVHgW9k25Ju8OsPDkwXf16iQePdDzCwmOtRx87YvZpW65VSLADzLlAaf+M+pj1+n6KSbd2Ehn0NACpsZLqg/++lyzTEMn6hIC+fpyEAACUThqHyc1klkkklkkkaZInnfzipB9/VpNt3NcR+W8igg7oyoN2UugIAVN0Zp1fT1uayuiVjWnLVhEaFTWTEzmV9TYwXP7U32XlQgZthYAF1rs89QCMAQIlNW63qcw5EJkAHAFB5f/hXg8RGLmGMUT6XJTgHAFA2Bc9TPju3qSz0NXf8lfSHzw7XxLYQoIO6c9x6SHmlaQgAQFVtphxLwpUsO553SbxNltLtP73yqb3hnkcZUAD0hkOADgCUww8SD0Vm7cn1aQCo8Br7wpxeH8jSEFeOQ0b5bFaBT/kRAEB5BUGofDZLkM4SgxOe3rgwF/vtcOlK1JvFUlc/Y56mMQAAVdPnHND7Cl/b8M/ZtuTEtLSV75tN3VTxC6FGh4oX4DPtvco238SAQlUks2NqG3ih6t/Dy3TIa+hQ4G6p6/1h2mrVqN2ljnCQwVkmjeN92nv8M3Wzvd09rere00rHM9/W/Tw7bbXqx+aA7tDJqn8Xrk0DQGX9978ZoxGuHIPmg3PCMKQxAAAVEYbzQTqpTEYWaU0lzWfR+ewv9sR6G1xDcsIKLuCsTf48bVgqb+t2vaVe3Wr6aIwo7iuM9wq0MQ1ca/1Z6T5lDG2eZ6XV5xzQ7cErG1u8uVYs58j50lameF20we0YGZqT7xdfCBvbdYTBFLH9tJ7mh2R2RDtOH43c95pp79Vc882aaevVZOfBuhr3Z5xetYeXGPOI7RqLsReP+XamvVfTbb2a7LynbgJ2XrEO611h9QN0QsO8CwCV9MbFHI2wwMvnFIZkzkHt2PzN/o38vNn477O0qRtFZB1BrQjDQF4uq1SmgcaQNDThxf6ckAw6qFvPWY/rF81nlRInGQCA6njNPbyhAJ2Ea8U2Ut7zN79oPvtWcXmrINGg8W4CdIDlGsf61DjWp+1nnlOQaNBk50Fd2vuEvEx7zW/7GbtX79HzDAIAFZlnd5w+Ki/ToeE9j2i8+wEFbqZmt3lEnRpRl7apulnKQm60AEDFHH9jRkHIvCtJge8r8H0aAmW19jW/1d43mw5A2XwAiynvvzdR6A9r9e5Ype0ICEJZj0NBoEKhoEQiUfdtYSQ9/cKoPv5AR2y3wWZIo17lldJx6yEaAgBQNWN2l0btrvUt2mzJceIZnFMohJvO+jMxnlMuW3wxbLjnEQYRcB1OYU5tA8d0x/O/rt2vfUHJbG2nqB+zu5S30nQ8gIpJZkfV/fpTuuP5X1fbwLGa3tZXrMN0OADUke++MU0jLCh4Ho2ANVmWVfyybVnW1dd6GWPWeIWrvAgGKbc12z4MV+2ndY6WorGxYuxQwgjX4Bc4Fi06fSneyTcI0EFde8U6pAGrh4YAAFTND9371vXvkm48T9DCwCgoQXn2wQsrLwyOdz/AAAI2oG3gmHqP/aa29T9X09s5ZnXR2QAqzinMafdrX9DeFz9Ts8GQb1u9yqu6QZBhyFgDgEqZzVHOSZJMGFLaqk6sDJZYX5DNimCNsDigA1gyWlYEWm0k0Kd4XBLYU4/HoyAgm5skXbxciPX3dynbXNF5t7o/j1U9Zz2unw8/R6mrqO0rjPdoz0egTxlDJfOGc0D366+UMmsfhxKJhZSqMWx3r2DWHELWOrcnl/U1dGGm6L3JzoN1Ua4nlvsp80OkOYU5db/+lFqHTuide36tJsuxXLT3aGfQz5hH7fcvYy+SGsf61HvsN3X2zk9psvNgTW1bXim9rV69y5xk3ANAHegfydMIkkICLGKtOHBh/r/ngyDWU6KIhQcidgpoNnrzbGnwjrnGWEdcBEEox6EdPD+M9RRNBh3UvSm16Lj9EA0BAKiaN5y71/w7x5EcO6alrfzSXMRaLXvO8B7KWwGb0TjWp73H/4McP1tz27be0oEAUC5OYU63vPx7NVny6m2rt2q/O+RGAgAAWLCynNTq185WKxVF4A3qh1k1W8/a+5RNVh6gAgjQATRf6mqEVPgAgCr5YeLwmn+XcOO5XAtCo6BEGaCHLhZnz/EyHZpp62XgAJuUmTpXk0E601YrnQsgEna/9oWaC9KpZpnwkHtpAFBRTRke0Ud1LC8ztZj5ZqmV5aRYKACbcTWI7XqBPMUltlBZtkVoRy1wDfsOIGmh1JX5HA2B+lhs1cHcX0+nZKYKfcr6obSmrVadcXvVE/QVvZ9KxLOhjTHyfLPa9ZMNGx2eUy5bXFuX7DnRnBeYH+IpM3VOt7z8H3X60G/UzDaN2V0VHYeMedbNfDdcy+7XviCvoXaCi/NK6W2rV7eavqoscBj3AFA5bY2uhiYKdd8Otk2gUqldvalvaT7DR/GV3OI/E3gDROo89Dpl/+b3b+vKvkvwXGk5DgE60nwQcZzPDelFYMGI1UmpKwBA1Swvc+U6luyYPoXg+aU78bpwdnLFe+PdDzBggBJqHOvTtv7namqbyKIDIEpuefn3aipbWbWy6ASk0AGAitq7I00jaP5ms5tI0BAbbLOl5aeWKy45xfEdqCXLM/GsnB/shbmBDDwb5TiOLJvQDkm6qSMV6+9PLwJLHLce1JS4mA8AqLx+p/fKDWXbkhJOPE9Q/NCUrPxALutrYjxX9N549xEFboYBA5TYjtNHa+rmMQE6AKLEKcxp96ufr5ntGVF1SoQTnwMAlfXBu1pohAWJRJIbyasoLkN11fLyUwBwdX4IF+aGlQE8S4N3sMqxKJWiERbcf3tjrL8/ATrAMs/Zj9MIAICq+KF73/xi243nSUhojAolzJ4zsEr2nOGeRxkoQBk4hTltO/MsDQEsYVnzQbPXe3HpEOvRMnRCLUMnamJbBqzddCgA1IGO5oRat7g0hCTLtpVI1mdGoatBOCuzXSzNhAMAm7U0eGe981C9SCTTlFxc4NiWDt/eFOttcCnfWMGJZZONbeisihiwduuEdUh3m+MRGz/1ta8w3hlQiHifMobK4g3ngA4H35Jl5WI5DxZ8s+6xYYxkrLX/se+HGrowU/RetvlmZZtvYqBEfT9lfoit7f3PaWTPozWRpcpTunJjkTFfsxzbUjJx/Yt/YVDa8o6MvdrV/fpTmuw8WBPbct7arW7TX7HfF4aMeQCohgN7GvStH03REJLchCspLS+fq9lttCxrPkp9SWYLSlABqLa15qHV5qxa5CQSSiQptbjo7lsaYn9uSAYdYBUv2g9R6goAUHGelVZ/ojeW3z3wF26clMjY0Jx8v/gDh3seYZAA5TzhL8ypZfDlmtiWUXsHHYqK4SE2rFcyO6q2gWM1sS2VLnPFg/kAUB3/6EOdsm3yBS5yEwklU/HPpFNcmupq/14tS0VQDoDoW2vOsiy7ZrLtuImkUqk0nb3Yt5L+wYPbYr8dBOgAq8grTakrAEBVvGIdjt13Do1UCEp78WbgbPETekGiQePdRxggQJm11kj5FaDSHIJ0sE7tF2ojQGfKquxDTSHpcwCgan7qHh5kXcpNJJRKZ2J14/dqMM684tJUHGMB1BZjwivz3NV5MF5BO5ZlKZlKK5lK0aFL3HPbFnU0xz+bkEskbCUnhE3u9HRVRV2wevSWenWr6YvIAKqnfWX+hXK2cT00sKmzfcZU/peiLEatLp1XT0VLBmxWoRBufEiYtddGk+M5zU57Re+NEZxzA+1bpf20juaHVMrVzt0tZflsL+crn/cV+EZzM17FtqlxvK9mdoKK7QN1NOabWtJ674M3R2s/TFiyyvhU93q717Ykn/VYrObbqs2zY31KZsfkZdpj3Scj6qroEAwCwykIAFTJx97Xru/8eEoTcwGNscBxXaXtBuXzOYVBtNplseSLCY0Wr4/OnxtxIAVQv8yKlJyWFmN1ona/zLIdpdNpWTZ5VpbKpGz9zz+1oybub7p0J7C2rzuPq9v/rFLK0RgAgIo5ZR9Qd9Afi+/qB6akpa0kaejizIr3RnoeZWAgcpJpV7t6Wiryu6YncpqbKWhqMqeJ0WzZfo9TmFNm6ryyzTfRwYiFUFIUktfMl37gpkec59vpiZymJvKaGMuWPWCnZehljcS8dGdelU2zTnAOAFTXv/m7N+l/+mI/q50lLNtWOtMgv1BQwctX7YbhfDYI68rNZ8PTrwCwnjOMFVPlYnadas7nbiKpRDJJ9yxvG0n/8mdqp5w9oVfANXhK6+sOpa4AAJV1yjpQ8ZseN3QaExr5fmlPWHw/XBGgM9l5MPZPmQOrSSWsdb86tmV0855mvfvAdh1+6CbtfVe7UunyPG+RzI7QOYiNMIzOzQfKXMVbU2tau3padMc9Xbrz0E517mqS45bnslktlBMctbrqcj8HgHrV0eTqVz7cRUOswk0klG7YIjeRrEjplOUlWq6WqgIAbMbKsliVK4nluPPHEoJzVvfT79mqfbsyNbM9BOgA1/GO1au3rV4aAgBQUSftw5H/jp5f+pslF85OrXiP8laoVZZt3dArkXTU1d2ke3+iW/ve3aFUprSBOpmpc7Fv2/ZgkAFWJ8II3YtwbIsOqRGptKubb9uquw7tVEfnlpJ/fi3MsxXdz4nPAYBIOLyvUQ/d0UxDrHZuZ1lKplJKZxrkuImS3tBdPSCHgyMAlFslAnYcN6FMwxal0umKBQPFzUN3NOtjR2rr4V0CdCq6SivBC1XxHecx5a10afqQ/q/MvkL7Aoi51+0D1T/uXONVCMymMiabNT53efYcL9Ohyc6DDAiw5lnj1bmrUQfv36ldu7lQvlSSErV1wxjJyETi2Gg7nFTUGse1tae3Xb13bVeyhFnLnMKcktmx2LfPiN1VkX2LDDoAEB2f/tB2PfRuzj3WPMWzbaXS6U1n1Fl6E5iAHACIyvWHpfOxdcMBO4ulrK4E5tiEa6ylszWhT39oe81tFz0OrMO0WvWi/RANAQCo6LEnqhncwtAoKEP2nLHhOeWzftF7w3seYTAA1+G6tm7pbdOd7+2SW4JyLI4/R6MiViKVRYcgnZrU1JrWu+/pUmtH6VJq10I5wUqVZA2p2gEAkfLpDxKkcz2LGXUyWxqVTKVl2c51//3SG7QE5QBA1Jmiudqy7esG61i2rUQypXTDFiVTKQJzrqOzNaHf/eTumtw2eh5Yp5PWYQ1YPTQEAKCix54o8rzyXCRarbzVePcDDARgnVra0rrz3s0H6TTUQOmVpvAyA6KOROnmPdfXapfj2tp7x7aSlbyizNX6BAE3JwEgigjSWT83kVCmoUHphuLyV0uDcowxMkSkAkBsmTBcNVjHsiw5bkKpTEaZhi1KJJOUslqHh97dXLPBOZLkEoRbyb2zyj+PTfu6/bj+of/ZeI6fuO0rjPfyNrGpk3FUR/tMpfuU9UNlXLB6NKVWNZuJyHwnrxCWpv+XzfW5rK/J8eKSNOPdRxS4GQZCzPbTepsfNrW9ZWirLY1J3fneLr32/UH5/o1d4A3chtj3S2M4UbGlAGO++nzfKOFG4wKXY1sqyFSknRh71dFze7uMpLGh2c2NlUINZCurwLl7GHLuAQBR9akPbNe7b2rQ7391kEu562BZjpKp+Uw6hUJeYRAqDHwaBgBq7dw1DGU7rhzHVsJNSldKFtI21z1WSvrp97bqY+/rqOn24tkuYAModQUAqLQoZdEJAqMgKM9nX1wle85wz6MMAOAGbGlK6l0Hbrw+81zzzbHe/vZwkEFQh8IIXblxKXNV8/bc3q6mlhQNUYl9O+QqNgBE2eF9jfqtv7NLSZe22IhEIqVUOqNMw3wJLNuhAQEg7mzHVTKVVqahUal0RolE6kpwDq4v6Uq/8uEufex9HbU/VujuyglDs7kXoXWR8KL9kIZN5+b7c4OvemKMqXj7ctEPQFS9bh9QXulIfBevUL65cujiTNGfs803K9t8EwMAuEEtbWnturk+U843hhMMgHo83w6i810ch/6oB7fdsU2Oy2W18l8boB0AIOr27czoj37lNvVsJ3h1wxZLnywE66TSmaIyWACAKE/h1oqgHMdNEJRzA7paE/rtX+jR4X2NdbG9hOVWUN7b3E2tQoEAgqj4uvOEnpz7TxX9nfUUQFIoSHnqzAOAJMlTWu/YvdofnqzyOqZ8d0eGLs6sKMUz3PMInQ9s0s23ta66f11PkIh3iav28BKdX4eC0MhVNC6CWZYlx5nPPIfa5bi29tzerrd+PEJjlAnBOQAQL//+Ezfpa69M6P/+9iglr25sETl/o3chm44xgfyCryAIZKIUjQ4A9TxV244cx5bjurJtwiw23Z66WtKqnjBygBswZnfp5eTDusd7nsYAAJTdK9Zh9ZrqBej4QemfXjbmat3dC8vKWwWJBk123UPHo+aVO0Gm49jaeXOzzr2zsYwy2ZiXuNoZ9DO46lAYRque+3yADv1S61rbM2ptz2hiLFunB7Ly7nc+QW4AEDuP3d2qe27bov/wpxc1NOHRIJtgWbYSyaQSC+eOJgzk+77CMJAhihUAKjMX27Zs25HjOLIdZ1mGM85XNnU+vcXV//7xbm1rStTdtpOLF7hBP0rcp2m7lYYAAJTdqNWlC1ZPVX63MUa+X76TjdlpT7PTxRftxrqPKHAzdDxQAjt3N8vdYAmWbPPuWG/zjuAMHV+nopSxxrYsWVxxqQs33br1hn4u7sGQlcC9RwCIp21NCf3uJ3fr7//ENjk2ZT5KwbIk23GUTKWUzjQo3bBFyVR6vhyWzaITAEo239q2HDehZCqtdMMWpTMNSqZSclyX8oMl4tiWfuY9W/UHn95Tl8E5EgE6wA3zrLS+nXqShgAAVMQp+0B1jnd+eW92Xjg3teK9kZ5H6XCgRFzXVtv29ZesyjbfHOsAuR1kz6lrQcTKAiccLt7Vg1TaVXvnlo2P15iXE5SkpHLl25/JngMAsffYwVb98a/epv3dGbEqKi3LsuS4blHATiqdkZtIyHYcGggA1juf2o7cBAE5FWlrSfu7M/qdf7hbHzvSUddtQYkrYBMuOT36UeI+vbvwPRoDAFBWp+wDeiD4mlJlvBGynB8YmTI+uez7oYYvzhS9N9PeKy/TTocDJdS+rWHFvraW6fbeWG9rj3+KDq9jUcu2YduWLLu8x1JEQ0fnFo0NzW7oZ2baemO/3dvMYNk+O2C/AYCa8a9+tlsj0wXKXpWRZVmyFsqvXF0bBwqDUEEQyJiQslgAmCttW5Zly7ZtOa4j2yagsVI6W5P6xx/arn27yJovSa7hgZTYoKui6eXkw9pbeEVJk6MxSjXWy1zHHrQv+wzHpLg6aR/WvcHzFfldoZEKBVPWMTR0YXrF+8M9j9DRMZ/rDe28gZ+tTGs1b02t+9+O73og1v1xs3+KY2KdryP9wMiJUK5g17HklSkTCGMvOhpb0kqmXHl5f13/3st01EiflK9TyKADALWlozGh3/mF3XrzYlb/+evDBOpUgG3P33x2E4krx+3QhAr9QGEYKiRoB0ANs2xbtizZC8GLtm2TEacKGlK2fvH923V4X1Pkz+sriQw6wCZ5VlrfTj+pD2WfojEAAGV1yj5QsQCdgl/+1fLFc8UBOl6mQ5OdB+looNQnfa6tLU1JzU5f+yL4THuvss03xXY728JBNYUTdHidC0Ijx47ORTfbkixbZNGpA60dGQ2vEny81nwbdx1kzwEA3IB9OzME6lSJZVlyLEdO8mrGiMWgHROE8xl3QqMwDGgsALEyH5BozWfHcR3ZFsE41daQsvXkoXY9dncrjbEKAnSAEjjr9uqsu1+7SakPACijaatV79i9uiXsK+vv8YPy30gcH5lTPlf8lPlY9xE6GSiTVNq9boDOpb2Px3ob3+1RdhZSGChyVzoSriXP4zGxWtfavv4AnYkaCEguZ9nVIGR/AYBaR6BONCwG7ch2JCWurqnDcD54Jwiu/jeBOwCqPWctzYpj2/N/tm0aJkrnxVtc/dQ9WwnMuQ4CdIAS+Xb6CX189gylrgAAZfWqc19ZA3RCGfl++bdj5NLMyvf2PEoHA2WypSmh8ZG1/36mvVczbfHN6JA0OfUQLI8FUcyiY9sSFQRqW8OW5PrGZ6KhJjIG7gr7y7ce5f4fANSN5YE6wxMeZdWjsH5duOHtOE7xMXpZ4I6MUcCBG0DJ5yBHlmXJXgzAsS05tkPDRFhna1K//KHt2rczQ2OsAwE6QIl4VlrfS31YD+b+jMYAAJTNBatHU1armk15yrj4hQocM3O+xkeyRe+Ndx9R4LKAB6ohSDTo7J2fjvU2vLvwPQLlcXVMB5ITsYfoEgkpn6dvapnj2kqmXHn5a0c610o5z6YyrUXJngMA9WkxUGd0uqD//OyQ3ryU45gQQWsF7pjQKNR8qazFAB4jkXUHwJquZsOxZVm2LMeWLVuWTWmq2PShpN5dGf3c/e0E5mwQATpACZ1OHNC+wivaEZyhMQAAZfOqfZ8eCP6q5J9bCExFnu4furiy/APlrYAyn/i5a0crvHPPr8rLtMd225ImR3krFAlDycjIUnQu7Fmy5LhGgU//1LJU2rlugM6lvU/UxLZuM5fK8rkB9/EAoK51NCX0v/1styTpC98Y0ktvzWguTxrCqLNsS44WS2UVWxG8s5B5JzTzfwZQuxaz3tjOfEYcgnBq5Lw3aeu+vY361Ac7aYwbRIAOUGLfTj+hJ+f+E0/wAgDK5pRzQPcGzyul0h1rQlO5m4ZjQ7NFf8423xzr0jpAHGxpWr30ytk7PxX7/Y/sOViNH0iJiGXATjiWAp+bELUs05jU9OTaqZLGu4/EOiByUVI5dZjBkn9uKEMpOADAFZ/6YKc+9cFOvXkxq//2rRGdG8lT/iqGrhW8I+lKiSwCeICY7duWJduafxjMXsiqZbvz/085qhrsb0nbW5P6ufvadHhfEw2ySa5hSRMb9dRTjeN9CtwtyjbfFLvvPmO36uXkwzqc/yr9f8PbOv8/lLeNmTPZZ2jf+PKU1jv2fvWGr5TuMwuVGUVjQ7MK/OI7L8M9j9CpZdhHqzXXG9p5Az9fuSeG/GX73XxZq0/FvtRK0uR0h/fdqq5tGPPR5PuS60TvqTzXlQolCtJh7EWPc40xFyQaNPCun6+J/tgV9pelN3xfXAsAAKywd2da/+4T8/cJvviNYZ3sn9PELGkJa8WVG/lr3NA3YajQGMlcLZkVLqTcC42RMUT3AqVmybpS0u5K8I3tSJZkW5Ys26aR6kRDyta9tzXqI/e2qaPZXTg/55xts8igg8jqPvVlnT70G7H87j9O3qe9hVfUHl6iIwEAZfGqc7hkAToF36hSDyUNXygubxUkGjTZdQ8dCpTZ7LR35b9n2nt19s5P10QWh/u8r5I9B2sKAnPNgIlqcBxLQUiWkHp09s5PKXAzNbEtu0x/2fZZAACu5Zc+uF2S9OaFrL76yqReOztbsuBnRJNl21oM3XHkXGMdsZCJxxiZhcV2eOU9KTTU0QRsy5G1cIq8GHhjLQm4sW1blkX5qXrn2Jb27UjrZ+9r075dGRqkDAjQQWQ1jvVpW/9zGonpU/XfyTypJ2b/gI4EAJTFqNWlC3aPdoX9m/qcIDAVuxmSnS0oO1soem+y82DN3KwCoi5INGhg/yc03n2kJrZnp+nXPv8VEeeANcd8GL0AHUlKuJbyHjeS6sl495HYZyxbald4pvT7K8E5AIAN2Lcrc+Wm4YtvzugvfnBZA2OegpDjSb1ynPWV1LmSkUfFwTzGhDLh4vsE9CAeLMuWvRhQYy1kudGyoBsy3mA9c6htqbs9qZ9+z1Yd2tdIg5SZSxaiGKnDvtpx+qgmO++J5dO943aXTiTfr4P5bzJ2Ge+0L2qvTxlDkXDKuls7N/kEc6FQuc4cHphe8d6lvU/QkbW2nxraed0/WqG2mrZa9VrHwzp/26GaCYhLKqcPFJ6Zb0NTp/sa23tdYSAFjrl6wTIyLLmu5G/2GMzYi4XJzoM6e+enaqYbmsyE2sPBkndHwTecYwAAbsihvY06tHf+ZuLxN2f0ly9f1vkxTyHBOlhtJb4kI896BcHVkmomVFFZrTAoLrcWkCoTN8C2bC09bbWdJfk1LEu2ffUvbdshyw1KMx9K2t6a0Htva9TH7m+v32sNVUAGHUSaU5jT7tc+H9tSV6+kHtZu/5TaA0pdAQBK7w3ngO4NnleTmbihny/4lbtoEPihJsazRe/NtPfWRIkdIIrms2zt0RvOAY1aXVJHbW3fn7wXxwAAIABJREFUBwrPqMlMyKOrK8pTWpfcPbH6zrYsOSV4WLAjHFRKpSun5tiWQsco5MHcmjbT3quzd326prZp5yazN64mNATnAABK4/C+Rh3eR7AOSstZGiyxIronec2fDZYF8CwP8JEWs/csf08KDcE+kT7XXBZUI2khmMZZ9pYty77GmAIqOW5tSze1J3Wkt0mP3d1Kg1QJMwAir3GsT20Dx2Kbiv94+sP6ydkv0pEAgLLoc+7We/3nN/xzQVjZm4Jjw7MKlgUEje06Qgci1jYbrJCwS/PE00V7/jtMqVXTVqsu2j013e7vDb6lPWEfA7AKxp0ufbXhF+ty2z9S+KNNl5VcMQe4tvIBF91rydySUp7j3UdqKnPOolvCUyX/TN/npikAoPSWB+scPz2j1/pnVaCsIipoRSCGs7nPM8YoXOuCnpHC62TwCcNgQ+l8oxgoNF/WaUM/sCJoZrXPtNZ4sIOMNYi7hGNpZ1tSP3XP1ivHRVQXATqIhe5TT2my655YpuQfdHr04+T9usP7Lh0JACi5PvuA3quNBegYYzZfVmODhi/MFP3Zy3TENvgWWFTPwQrVcntw8oaCEoGoSiQtFTxuEtWKwA8VJBo0sP8TNbnOaTITJQ+QNMaIh8MBAOW2NFjnzYtZfefUtF7tn9PErE/jIFYsy7pm9hWHJgIgqXWLq1u70vrw3S3atzNDg0SMy2UgxIFTmNPuVz+vd+751Vh+/xOph3Wz/7oawwk6cx2MyG5diTYG+wxqw7TVqj7nbvUGr6z7Zwq+qeiYmZnMy8sXX/QaIziHuR7YoA4zqCP+XzHWUVNsy5Lrzh+bEf/j2rmm92rg0M/H8uGi9ShH9jI/YB4HAFTW3p0Z7V1ys/L/+e6Yfnh2jlJYAIDYWixd9bd2N+jv3N8eu3PpekMGHcRGy9AJtQyd0GTnwdh9d89K6zuZj+rDlLoCAJRBn31g3QE6QWgUVvgp5eGL0yveG+9+gI4DsG4dZlAf8f5IKeVoDNQcx7EUGqMgoC3iyLPSOp04qB8l7tPsna01va13Bd8r6ecZYxRQZgQAUGV/5/72KzczTy/JrjM563NTEwAQSZakliVZcvaSJSdWCNBBrHS//pRm2vfHttTVWXe/dvun6EgAQEldtHs0bbWqyVw7U5sxRoUKl7bycr4mx7JF7413H5GXaafjAKwLwTmoBwnXljFhxYNocWPGnR265OzRJbdH59z9dbHNO8P+6641N8onKA0AEDHLs+u8eHpGx9+c0amBOc3lWagBAKqnIWXr5o6U7rllix69u5UGiTFKXMUIfSUls6PqOv2MLuz/RCy//wuZJ9U18ztKGm4uMN5pX8S7TxlD0fOS87De7//ZNf+NVzAV77ux4dmV71Heqqb3U+YHlNLume/rA4mvK6ncqmPLmOqPOcZ8Pc2r5e1t17WU9wxjbxUzVqtOpN5ftd8/7nTJszLylNa401WX4//28JWS7gPGSD7ZcwAAEXfv3kbdu7fxyp+fe2VCL78zq7OjeWUJ2AEAlFEmZWv3QkDOI8sCcjiTijcy6CB2tp95TpOdBzXT1hu77+5Zab2QeVIfmHuKjgQAlNQZp1d5P71mhonAl6pRSn3k4kzxsTDTEctjOIDK6zz3dT3S/m25smkM1AXLklLJjQXp1IsZu1UnUw/TEFXSZCbWXU51vXyfdgUAxM8jd7cW3SR97pUJvXZ2VudGPU3NBdwwBQDc2PUASelrBOSgthCgg1ja/eoX1PfAv41lqatz7n6dc/frZkpdAQBKyFNaZ5z9q948MUYqVOEJ5fGhWQV+8RNll/Y+TmcBuCbHz6r79S/rzsQP5Xa20CCoK5YlJV1Lns/tHUTHe4LnS/p5xkhByBgHAMTf8oCdf/Ff39KlywU5jiPL5kEDAMDa5/7NGUe37kjr8N4mHdrXSKPUEQJ0EEvJ7Ki2nXlWgzG9yfdi+sPqmj1DqSsAiMUxZ0xepj0W3/UHzsOrBugUCtW5ATK+rLxVkGjQZNc9sWjLzNR5ZZtvYgcAqrDv3fLyf1SmMK6u9+2kQVCXbEdKiiAdREN5sucwtgEAtWlLUvK8/NV1nWXLSbhy7PmAHcuyaCQAgP6XJ3bp9u4MDVGnXGM4KY4L+qrYjtNHNdl5Tyxvns3YrXol+X7dm/sKHbnGWGe8M58g2vtMPY2hZHZEmamzmuw8GPnvOm216oK1RzvDM1feC3xTlSeUs7MFzUzmi96b7DwYm+x32/uf1dk7PxXniaFq+ynHGNyortNHteP00fn/3tMix7F1veFkZFTtIceYr5f1lio61ixbSji6ZpAOYw+V8B7/+ZKOfRMa+QFjFwBQywvHq/8ZmlBh3lNhyV+7rivbcWTbNkE7AFCvhwrDOX09I8ceYm33a5+P7Xd/PXWfBt09dCIAxED7wLHYfNc3nLuXLPRNVUpbSdLoxekV713a+0Qs2tDxs2qLUZ8Dcdc43qfeY791JTjHcW3tuKmJhkHdsx1LSZcbNqieJjOh20ucPadAcA4AoM75vi8vn1cum1V2dlZzMzPy8nkFvq8wDLlhCwBAjSNAB7GWmTqnroUL+XF0LPNReVaajgSAiGsZOqFkdiwW3/UN54Cmrfn6516VSlsFfqjJseIyjjPtvbEpFdY28AKDHqgAx89q92tf0N7jn1Fm6tyV93fv3SrH5VQVkAjSQXW9x3++pJ8XBkZhSLsCALCcXygon8spNzd3NWgnl5NfKCgMAoJ2AACoIVzmiRH6anXb+5/TePcDsbnpt9SM3arXU/fr7tw36chlY53xznyCaO8z9TiG2gZe0ODex2PxXd9w7taB/DclU52+mhrPKgiK776M7ToSn7XFmeeY65kfUEaOn9W2M89qe/9zcgpzRX/X3JrS9h1bYjXmGPOst8q+zziWkpZUWBZ4y9hDOe0M+9Vbhuw5jFsAANbH933J94vesx1HtuPIdRxZtr2wIOToCgBxxOxdv3gsEbHnFOZiXerqZOr9Gnd20JEAEHHb++MTtPGGc7cCv3pPVw2emyr6c5Bo0Hh3PAJ0Gsf7lMyOMuCBcqzb/ay6Th/VHc//unacProiOMdxbd36rnYaClht/7EtJRJcvkPlvM//akk/zw+MxMP/AABsShgE8j3vSnms7MyssjMzKniegkJBJggksu0AABBpBOigJjSO9Wlbf3yfdn8h81E6EQAizinMqW3gWCy+67TVqtPJg1X53TOTeXn5oOi94Z5HYtPPtZI9B4iSZHbsmoE5i27d365U2qXBgLXWIralJEE6qIA7g++pIxws2ecZY+T73CwEAKBcfM+Tl88vCdyZWSNwh+MxAADVxtVP1Iwdp49qsvOeWJa6Gne69Er6/ZS6AoCIa79wLDaZYN5K3K293onKH9OGZ1e+1/1ALNosmR1Ty9AJBjpQIo3jfWofOLau4MbuPS1q25ah0YDrsG1LyaTkFbi5gjKth5TTe/znS/qZHsE5AABUhe95q77vuq5k2/OlsixLWnwBAICyczlFjg/66tqcwpy6X/+y3rnnV2P5/V9P3q/bvFfUGF5mrDPemU8Q+X2mXsdQ41ifktmxWASDDrp7NG1vrehxxcv7Gh8uzowx2XkwNsGzbQMvMNczP2CT5gPdXtb2M8+tu1xcR9cW7eppubFM7BGomMKYr5P1lolOtQBLllIJS7PcQ0EZPOw9o2SYK9ncFoRGYUi7AgDqZM0YkzME3y/M//8qf+cmUrIsyVkavCMWngBQ2uOF4XpSHSODDmpKy9AJtQyd0GTnwdh9d89K61jmST02+0U6EgAibFv/s7qw/xOx+K4nU+/XkeyfVuz3jQ+tLFszvCc+5a3aY1LCDIgax8+qZfBltS6sxTeioTGpnr1baUTgBrguN0pQWn/L/572BKdK+pkFsucAABArfiE/fwxfbf2ZSC2sQx1JkmXbC3/DuhQAgPWyaQLUmt2vfUGOn43ldx909+j11P10IgBEWPvAsdgcZ84l9suz0hX7fZeXlbfyMh2aaeuNRVu1DRxbd7YPAFcls2PaduZZtV84psbxvg39bENjUu+6e7scl9NSAKj6GjccLHlpq4JP6hwAAGqJX8jLL+SVy84pl51TdnZm4TWtfHZWBc+TX/BkwkAmDESufAAAViKDDmqOU5jT7lc/H9tSVydT79fNhVOUugKACB9nWgZf1nj3kch/V89K61ziXbrNO1H23zU+PCsvHxS9F6vsORfIngPc0DyTadfg3sc1uPDnZHZMjWOn1DTet1AWcPXAN4JzACA6kianhwt/ppTJlewzw9AoID4HAIC6EYahwnDt7DsSGXgAAJAk1xC8Ghv01fq1DJ1Q43hfbJ7aX8qz0nox/WG9f/bLddv/xjDemU/YxqjvM/W+j27vfy4WATrSfODnrfkKBOgsK28VJBo03v1ALNpoPqCgr7bmhSrupxzD65uXadd495Erc2Rm6rwax0+pfeCYMlPnJEkdXVu0e+9W2a696WcpTQTGHGO+TtZbit6zvww9lMqj3p+oPRws2ZgyxihfYIQCAOp00Yg1LZbP8teI4LFsW44zn1fAcRxZlnXl/YV/QSMCqI3DBfdB6xoZdFCzdr/6BfU98G8VuJnYfffzif06l9ivmwun6MgKsVjbA9iAzNQ5ZabOK9t8U+S/64zdqkF3j7r8M2X7HV7e1+xUvui9yc6DsTkGb+t/lkENlEm2+SZlm2/SSM8jykydV8/M99Xd1ienhFkaAAA37iHvGe0MS7tOLPhcaQYAABtnwlB+6ElaO4hHKg7ksR1btmVfeX/Jv6JBAQCRRD5x1KxkdlRdp5+J7ff/m4aPyrPSdGSFuDYLdgAbsz1GQR1vJQ+W9fOHzk+teG+459FYtI3jZ9U+QHkroBKyzTfp1M4n9Ufp/1XPJ5/UtNVKowBAFT3kPaPbg1dK+plBYBRS2goAAJSRCUP5BU9+wZOXyymXnVMuO6fs7MyS17Sys9PKZWdV8PIqeHn5hbxMGFx5Xc2TSXAxAKByCNBBTdt+5jk1jsezZIVnpfVS5ifpxApxXAJ0AGxM28AxOX42Ft/17eTdmrG3luWzAz/U1FhxJoyZ9t5YZBeSpJbBl+UU5hjQQIW96RzQU+l/rmeTn9CY3UWDAECFlSM4JzSG7DkAgPrGJebIWRrMU/C8K8E8awX0ZGenlctlrwT1FLy8wtC/RmAPax8AHC6wMQTooOZ1v/5UbL/728m7NejuoRPLzHE4FAK4MW0DL8Tmu76VvLssnzs1nlUQFD8mPbbrSGzaZXv/cwxkoIr6nV79j9Q/IaMOAFTQe0aeLnlwjiQVCtygAgAA8WcC/0pQj1/wlM9mrxHYUxzck52dLgruKXh5BUGhKMBn9SAf1lEAUC9cmgC1LjN1Tl2nj2pw7+Ox/P5/0/BR/fT079OR5ZwIHdoAwI3ZfuY5jfQ8Eovv+nbyoA7kvlnyz11e3ipINGi8Ox4BOpmp88pMnWMgAxHwpnNA/Xav/lbwPb2n8DwNAgBl4PhZ9Zx+Wvf0nCn5ZxcKoQz3lQAAAOQXvGULpU2u4dyELGv1h4xd99q3eS17vXkaeIgZACqFAB1EUjJV2qG54/RRTXbeE5tyG0vN2K06mf6A2vUlBkYZOLa15uIWAK57vMqOqnG8TzNtvbE4nryVPKjbvBOl+8zJvLx8UPTecEwCliRpe/+zDGIgQjwrrZfdh9Vv79fDhT9TezhIowBAqc59/az2Hv8PumPXrKQtJf1sPzBallARAAAAJRL4a0f4rAgGiqDMliY6EQCWoMQVIimRdJRMlTatye7XPh/b9jiVuk+TLfsYGGXgOEbGzL8A4EZsPxOfEkmlLnN1eWR2xXvj3Q/EY/73s2obOMYABiJozO7S/0j9E73m3Hdlnbb2i/ZCZYRhuI7xWNkXWfCxXo3jfbrj+V/XdntI7Z0NJR2HYRDK9xmMAABIEicowKo7Bi9evJa9OFrUNwJ0EE2W1H1bW0k/MjN1Ttv6n4ttk7xzy8cYF6UeZpbIngNg01qGTiiZHYvFdx1y92jc2VGSzwr8UJeH54rem+w8KC/THou2aBt4gcELRNz3kn9b30o+Kc9K0xioOj8QQf2Ipa7TR7X3+GfkFOZ0821bS/vhxsjzaWMAAAAAANaLAB1EVmNLSh07Gkv6mTtOH43NTdTlZrd069LexxkYJZRwaAMApRGnYI/XU/eX5HNGL82seG+s+0hs2iFOmY+Aevame7f+IvVLBOkgErwCQTqIj8zUefUe+y3tOH1UktTZ3aSGxkRp9wmCcwAAAAAA2BCXi0txUl99ZYzR9u4mTY5nVcgHJflMpzCn3a99XqcP/UYs22Rw7+NqHTqhzNS5mu/7cs9NliVZdv3GKDL3s89wTCqt9oFjGoxJEOX5xH7llVLS5Db1OePDxeWtvEyHJjsPxqINGsf7lMyOMtczPyAmxuwuPZX+df10/r+qPby0bLRFocwVY76e1lueL6USZOFEtHWdPnolMEeSHNfWrp7mkv4Or2AUhsx/AAAAALBRRtynq2dk0EGkOa6tnT2tJf3MxrE+tQ0ci22bDLzrEwyMEnAdLqoDKJ1kdjQ2xxbPSuvt5OYCaabGcyuCZ4f3PBKb/iJ7DhA/npXWX6R+UWP2DhoDVWVCKV8IaQhEUsvQCd3x/L8oCs6RpD29bXLc0l0CLPgE5wAAAAAAcCMI0EHkNbel1dxW2pT23aeekuNnY9keM229sboJGkWWJTkE6AAosfYL8Qn+fD39vk39/Grlrca7H4jFtiezY2oZOsGABWKIIB1EBUE6iJrG8T7tffEzuuXl31uRJbCzu0lbOzIl+11BYBQEBOcAAAAAAHAjCNBBLHTfulWOU7rh6hTmtPvVz8e2PQb3PiEv08HAuNH+JzgHQBk0jvUpmR2LxXedtVs16O65oZ/18oFmp/JF7413H1HgZmKx7W0DLzBYgRgjSAdRQZAOIrH+XAjM2Xv8M2oc61vx9w2NiZKWtgoCo4JPcA4AAAAAADfKpbxZfNRbXy3dXtuxtevWrTr3ZulufLYMnVDL0AlNdh6MXdsEbkZn7/qU9h7/DOP9Bji2pXqf+5j76VPGUHls639WF/bHoxThqdT71Fk4s+GfG724MnvOcM+jsemj9hiXuYzLfsr8gHLzrLSeTX1CH83+gWTmqj7mGPP1u94ygZQ3oZIJm7GHimobOKb2C8dWDcq5ct7r2uq5vV22Y5dkrITGyCsw6AAAuOb6bOEFAMD1Dhic09cvMuggNprb0trSnCrpZ+5+7QuxLnU13n2EgbFBrkv2HADl0z5wLDbHlfPJ/Zqxt27oZwI/1MTIXNF72eablW2+KRbbvM9/ZUXZBwDxNGO16i/Tv0RDoOrCUPLIpIMKSGbH1HX6qO54/l9o92tfuGZwjiTddkeHGhoTpRnnxsjzuHoMAAAAAMBmuTQB4mTXrVv19mvDCoLSXAB1CnPqOv1MbLIdLDfwrp9Xy9AJOYU5Bsd6+5ywRADlnGMKc2oZfDk2AZRvpw7qruxfr/vfT13OrTgGD/c8Epv+2ee/ogsMU6BmjNldOtbwUd0/86c0RoVkps6r+9SXa2Z7una3KLNlfQEMW/1La/7dYpBOtTLpoIbXln5WLYMvq3UhA/B69dzepqbW0jzgRHAOAAAAAAClQ4AOYiWZcrS9u0mXzk6W7DO3n3lOk50HNdPWG7v2CNyM/n/27jc2jvy+8/yn/nZX/yW7+VeiREkzGms03rGjySaBPV7Ef+C5QzyAs5c8ce7BHWDvw+RBgEP2QfZBcgcbuM2D5IAF1jN3hzvAAxyChQUk2MVovQnuhnY8eyvNSfFInKEt6g9HEsX/FNnd7O7qugdNSiQlSiS7utlV/X4NiJEoqdj1q9+v6ver+tb3e/v17+rM5b+ic+yDZRmSYZBmFEBbDd26FJkAnRvJLx0oQGfh/s7yVr6Tisy+ZoJljfjTBOggVN0erPCocE6+k1I5dzKSc939+JV7QcOJab20cYUO2Yn5dH39hVk7omRweEBpN6Qghs0gHds2ZBidydrJuiau4+xwQTlbTn2uoOJIOpT+ERCcAwAAAABAqAjQQeQURzNaXapofXUjtG2OX31Xk1/5c/m2F7n2WBm+oJXhC4e6cddrLIs2ANB+3uodeat3I1H2qWYk9avEhX092F5f3VClVNvxvYUIlVr8fO0f6JwIf27R5cEKuz/byvAFLQ9f0MrIG5Gc9+7l/039jvrr91Xw79MpcaQaDalaDeS66liQDuIlP3ulpRdwtoJzwkBwDgAAAAAA4SP/MiJpdDwf6vbc8rwGp9+PbHvc/sL35DspOsbzTnYmN8kBdM7QrehcU36VuLCvv7c093Q5xblTb0ViH92golfqBLIC+dkrGr/2rl77+z/WyNRFWfVyLParZiT1s8x/wwFG16hWAzUaBDbg4NaKr6rqDRzq3xKcAwAAAABA9yNAB5GUTDsaGsuGus3RqYvyVu9Gsj1829P9s9+mYzyHbRGcA6BzCjMTkXnwPWuf1qI1+vzrTL2h5V0BOivDF1T1ipHYx3H/htygQscENlm1kkanLuq1v/9jDd66FIt9WrJGddX7OgcXXaNWI0gHh1vbz5z/zsHO6bZJcA4AAAAAABFhB6y5I6OnjlXw4v0dPJ7T6mLlqXIbrRi/9o4m3/yzSDbZ3Klvqm/2SleXWThIXw+zvzez5/TaIOJ80mvHs9PHlD70YoWZDzR36puR+Kw3kl/Sl9b+3Z5/Pn9/7anvRaq8VfVnvddpg6PbZc4P0WHVShq7/p76Zq/o5ht/FPmyVzeSX9KZyhVlGkv0eXTFHKpaDWRZkmPT+bB/K8MXtFY8t6+1vWWbeuX1QaUyTij9wW80g8sAAAAAAO0TBAFL+h5GBh1E2vGX+kPdnrd6RyNTFyPbHrdfp9TVs1hkzwFwBIamo5OV4q57XlUjueefL8/vzJ5T9Qa0MnwhEvtWaDxQsXGfDgk8R2ZhUuc++NPIZpPcUjOSupz+HQ4ouorvB6oS8ND6eWpxUr/27/+7p77ikgXsWWv7F8nmE/onvzHSDM4Jo68SnAMAAAAAQNsRoINIS6YcFUcyoW5zdOqi3PJCJNuj6hX1MCLZGjrFMCSLMx1ewLfTNAJC55bnlVmMRlazmpHUzcSzA24eLVVU2/B3fC9S2XNqP6MzAvs8Z5398PuRD9K5676qWec0BxRdpdGQNqqBGjRF6EanLkamrOhB1/bPK2M9Op7TK18YlGWHs9it1QnOAQAAAACgE3hsjcgbHMvKSVihbnP82juRbY8HZ7+tqjdIx9hk22TPeRYeXO1Uzp2I9Od3gwoHsUtFKYvODe/Lz/z+0tz6U9+bO/1WZMbGqfp1OiKwT1atpLMffj+ywepbrnlf52Ci6wSBVN0IVCdKJ/Tz1sjUj2O5b3On31LVG9jxPS/t6NULwzo2ngvt51RrgXyf4BwAAAAAADrBDsQiPCp66VgFB9hf0zJ07Eyfbt8I70FCZmFSg7cuaS6i2WiqXrFnjv8L+4dptGXkeKt3Ix3UEWYbc848en31ex3fW+YP+5OfvSK3vBCJ8/K62acHzmkN124+/l5tw9ejpZ0BYItjb8q3vUi0/9n6R3KCSk/21qM8z3N+iDarVtKZy3+pyTf/LLL7MOucfup8Rp/HXseu08evVgvUsCQnhMwn9LymoelLmjv1VuTXwbv5tqeZ89/Rmct/JamZNWd0MzAnjGPfCALV64EaBI0BABDuYhwAgH1cLrif1LvIoINYSOcS6htIhbrNKJe6QpPTxuw5Vn090m2zbvbRQTaVcydpBLRVYeaDyHzWyeSXdvx+4cHaU3+H8lZA/HmrdzQydTHS+7D7fAZ0E9+XKhsNNRrcjAtLlLPgPs/K8AUFp7+gz//GyOPgnFD6YCNQtUpwDgAAAAAAnUaADmJj+FROphVel7Zqpdje5OsVlkV5q72sWf00wibfSdEIaKvizERkPuuMe17r5pPzw/Jcecefl3MntVY4F4l9GfGnlWks0QGBQ4p6sPru8xnQjaq1QHVKC4UiszCp/OyVWO7bL8/995KXCW17tXqgWo1+BwAAAADAUSBAB7FhWaaOvxRuVpA43+SLf38gOOd5lqxRGmHTo4gEG+ylv36fg9juyZLZ2vnELc+rEKEgnV8lL0iSludKavg7X6t+GKHSj6/UP6LzAi0anfpxpD//pPdlDiK6Xr0eaKNKNp0wjF1/L5b7tWb06RdO61nBGkGgaq0hn6AwAAAAAACODAE6iJVsf1LZ/mSo2xy/9q6sepnGjRjbau/2MwuTkW4f3ih/ouoNRPrzO0GFg9juNnZbP6EUP4tOgM5ksvlAe/HBzlJ+vpPSysgbkdiHTLCsszUCbIFWFWYmIp1F51eJCxxEREIQNLPp1OrUG2qFW56PfHm+vXzkfk1rLazh/DolrQAAAAAA6AYE6CB2jr3UF36pq6uUuooSy5IMgww6z7Nkk0FnSzk3HunP7wYEELab41qy7NauK5mFycg85K4ZSX1ifEGVUm3H9xfG3pRve5HYB4JzgPAM3no/sp+9ZiR11z3PQURk+L5U2SDDSSuGbl2K7Qs2/3finx/43wSbWXNq9CkAAAAAALqCTRMgbizL1NBYVg9ur4S2zfzsFWUWJ7UW8VI4PdMHzPYH5yTK85Fvp1nnjIZrN3u6r/hOSuXciUjvQ79Piau2M6S+YlILs6WWNjN463199up3IrHLv3Qu6LT+w47vzZ16KzKHjPJWQHj6HlyJzLnrWWbc8zpRvc6BDEky5Wj81WJ89iftdOXnqtUD1f1Ajm20XGqz59aCtZLGrv9It1//buz27YF1WrftVzVev7G/tU49IDAHAAAAAIAuYwes1aOjx45VK32zfzit1cWySo+qoX2e8avvavIrfx6Z7AFRP/aHPf6m2cye0+5zmxuHAB37tIaqMQ7Q2UeRCRwxAAAgAElEQVQfiEPQndOo6Eiu5T12TRo8nm05QKc4M6EHZ383EteR5exZlXMn5a3eaY6V4jlVvWg8kD1Zv6G0vySmuNKRzfN7qPGTKUfj5zo7NtYfVdXwG6qs10Kd6z5vzuOt3o1sQOtd97x+K6DPh8W0TKWyCc6VHfpcG9VAphnItg2ZZAjdt8LMhB6eeivygfjP8nP3dzRSn5b7nDK3jUagWj0Q9/sAAGBNDADo4ssF14ueRQYdxNaxM/26+Ys5Nfxwiqw369n/ONJvEPfESc3qzI1rq1aKfFvNuOf1T0r/qaf7y/LwhcjvQ3+dDDqd4KUdeWlH5fVaS+eN/IPLWhx7MxL7/PDUNzV+7d3Hv46K16o/o8OiY0zLVCrX2WCF3T/v0VLl8VdY897dMos3Ivugu2YktWSPcr1EZDUaUrUayLIkm1K++zZ240ea+s0/id1+rZl9+tj9kn5t4++e+rMgaGZe8n2OPwAAAAAA3cqkCRBXTsJSYSQd6jaHpi8pszhJ43Ypw1DHUsBvZZWIsiV7VOtWf0/3mZWRNyK/D5nGEoO/Q4aOZ1rfxq1LkRofvpNS1RvQSkSC2TKNZY3603RW9JRsf1LHzvTp5S8OaeB4VqYV/hIvFfF5z6xzho6CyPP9QBvVrcwovGb3wjnBwqQKMxOx3LeP3K9pzex/Zv8gOAcAAAAAgO5GgA5ibfB4VsmUE+o2x6++S8N2KdsyFEiH/joot7wQ+Ta7657v2f6yMnwhFiXr0j4BOp0QqFk+0bJbmzp5q3fkrd6NxD77tqeFsTe1EJGMP5J0vvaz0M/1QFRYlqnB41m9/MWh0IPUo17a86Fzmg6C2HgcqFML1CBQ57lGpy7KqpdjuW//T/KfK5BU9wNVNhqq1ekLAAB0A67IwDPGRcAXX3w96wu9iwAdxN7omb5Qt9csdXWRhu3GE5rV2XTvbnku8m02nbjQs/0lDuWthmpkCum0wnCq9eN26/3I7O/cqbc0d/qtyHzes7UrdFL0PMsyNXwyr/FzxdCy6WQWop1Bcsk+RsdA7PiNQPUad/RetHYfnH4/lvv2wDqtX+mc6gTmAAAAAAAQKQToIPaSKUcDx7OhbnN06mJkMiD0CrvDwTlS9B9WSc0yV0v2aM/1l6o3oMUIZQXZS3/9PoO/wwaPtV7mqjAzEZm3uateMTKZpl6ufSQ3qNBJgU2pXEJnPj8YejbJKFo3+1Q1knQKoAcN3boUi8ynz3I5/S3ObQAAAAAARAwBOugJg8ezchJWqNscv/YODdtFLLvzATqJiJd72PKJ9+VY9omGv/fbpAsxCM6RpH7/HoO/w9ykrUw+0fJ2CjMf0Jghe636MxoB2MVJWDr5apEgHZFFB+jZdWKtpLHrP4rlvq2bfbFdywEAAAAAEFcE6KBnHDsdbqkrb/WOBm9domG7gHUE2XO2+kAc3Exc0LrVH7t+USnVnvl930lFqmTP85BB52gMHm89i87QNNePMBUaD1RoMB6AZ8+TTJ18tRh6sHrU9GLGQABN+dkryixOxnLf/jH19Viu5QAAAAAAiCsCdNAzUrmECiPpULc5OnUxtumyo8QO6XmTlz7Y2+VxCdCRmjd2e8X9s9+OTMme53GCCgE6RyRf9OS2+KDbLc/H9kHRUThP9hzguSzL1NjZQk+3QY0yMEBPG7v+Xmz37R8yv8cBBgAAAAAgIgjQQU8ZCLnUlVUrUerqiFmWIRnhZNCx7IOfEuPygP1m4oJmnTOx6Rd7Zc8p505q7tQ3Y7GPw7WbnACOUGG49YBPsuiEww0qGq9fpyGAF0imHA0cz/bs/pNhAuht3uodFWYmYrlvD53TmnHPc5ABAAAAAIgAOwhohKjotUPVjr5pmqZGT/fpzmR4WW8yC5MavHUpNg/9u6Wz7/f4m2ZwpIMjszCptcK5WDT75fTv6L9e+l9isS9+vfHM799+/XuxGSZD1Wkd5TW856YPuxq7MJTSgzurLW0yP3tFbnlBVa/Ieb8FL9euyG2UaYgOzaU4P3RPOx/GwLGsVuZKqlX9nhsPa2Z/244VfR7Mx6Jh7MZ7Whl5IxbZNJ9ey31Lg9WbcoMKBxoAAGZoAOMC6PpREXB/pYeRQQc9J5VNKNMXbor70amLsuo8HOz4CcyUzJCy5xy6P8WozNWyPaormW/FYl9Kq9Wnvjdz/jsq507E5ngNkUHnSLlJS4WhVMvbKcx8QGO26DXKWwEHcpgsOuXcSRoOQORZtZJGpn4cy31bt/r0SerLHGQAAAAAALocATroSaNn+mRa4XV/q1bS+FVKXXWabYe7vUzePfi/iUmJqy2feF/STCL66dF3ZwZYGb4QqyxXaX9Z/fX7nASOWGG49QCdYkxLLXTKiD+tTGOJhgAOID+QkuMerORr1Rug4QDEwtD0JbnlhVju2y9SX6ecHwAAAAAAXY4AHfQky2qWugpTfvaK8rNXaNwOMYyjz54jNYOz4hak8/Ps72nJHo30PlRKtce/LudO6vYXvherY0T2nO6QySfkJqyWtuGW51UgSOfQXq5y3QUOo38kc6C/X4pBBp11k4fWQLTXf+Gt/cavxfflmp9nf4/OAgAAAABAF7MDav9FRtBz+9vePc70J5TKuio9qoa2zfFr7+rjr/5FLGvad/rYv+j4O5YRen1GJ3G4lDyZhUmtFc7Fpv1rRlL/qe97+tryDyOZpaXhN7SxGaBTzp3U1G/9y9iNyePVj3XU1++euiYF2vN8M3Aso3vTKy1tvvjZhBbH3uTkf9Bzb2NZL1evMJM9wrkU54ejbeeWxk9fQg8PUKVzrRj9ec661de2Y0WfB/Ox9nOT4aVPzSxMKrMYrzXclofOad1NvKqxjesMEAAAmKABALr4esH9ld5FBh30tJHTfTKt8N7Es2oljV3/EQ3bZoYk0ww/e85hM2H0xTBzUs1I6u/6/kUkM+mUVptBd3ENznGCCjfcu0hhKCWrxZKJmYXJ2JZaaKeXa2TPAQ59LUlYSqScff1d30nF8iE2gIidtxxTXtoJbXvjV9+NbVt9lH5bVSNJpwEAAAAAoAsRoIOe5iQsDRzPhrrNwsxE7EoedRvbak9pK8s+3CnRW70Ty4frW0E6D50zkfrca8sVLY69GcvgHEkE53QZyzaV6U+0vJ3BW+/TmAdEeSugNamsu6+/tzJ8IRb7m/aXOehAhAWSRk/lQtueW57XyNTFWLbVutWnT1NkZwQAAAAAoBsRoIOe1z+c3vcDiv0av/qurHqZxm0Tq00BOq28kZmfvRzLtm4G6XxPv0h/IxKft2ok9Y9j/61uv/7d2JaaO179mJNAN42ReqD+4XTL2ynOTHDdOICTtRvKNJZoCKAF+82g8/DUW7HY3zTnDCDSgkByUq7yA+HN8YduXYrt/OsXqa9r3eqn4wAAAAAA0GVsyptFSMD+tsvIqT7d/MeHoW2v+Tbej/XZq9+h34Z8/C3LaGvXcBOWqhv+gf9dcWZCc6e+GdvD8YvU1zXjntdvrv61+uv3u/IzPnTP6B/Sv6eyE98b0Wl/WWOV6109RuN6OnrW7jb8QL4fKOE5SqQcbZRqh/4ZVq2k/IPLWhzjbef9eLX6U6aw3TxOmbNGguO+uLTnWvGcyrkTHCv6fG/vL8eiq/a3OJrVo6WKGn7rO79Vovr269+NZXN9mP19fW3ph4wTAACYpAEAuvFKweWiZ5FBB1Cz1FXxWCbUbQ5NX5K3epfGDZlltbkvJO1D/bu4lrnabtke1fuFP9SHud/vqrcxH7pn9Hf9/0J/1/e9WAfnSNLpymVOAl2kVn8yg+4faj2LztCtSzTqPmQayxqpT9MQQIv2k0Hy9uvfo6EAdN3aPYzshVsKMxOxXbc/dE5rJnGeTgMAAAAAQBchQAfYNHAsu+9U//s1fu0dGjbME5ZpyDCMtv6MTO7w5c4KMx/0xHGYTl7Q3xT/B32Y+30t2aNH9jlmEucfB+Y8dE73RNsToNM9arXGjt/nBzyZLZbf81bvENi5D69Wf0ojAB1w/+y3VfWKsdkfp0EZQSAuCsPpfWUB26+xGz+KbVt9lHlbVSNJpwEAoENec7L6XDpNQwAAgD3ZNAHwxOipvG5dnw9te97qHY1MXdSDs9+mcUNgdeCM5SYP/0OKMxM9daynkxc0nbygvvp9na5c1tjGdaX9pbb+zCV7VNPJN/RZ4jWtW3091f+Pd6B9sT++H6jRePr7+YGUlmbXW9r20K33Y1tmISwvV6/QCECbrRXPxW5O060lOgEcnGmZGjqZ02e/DGdunFmYVGFmIpalRtetPn2aelOfX/8JHQcAgA54zU3rvxpvvuhwd6OiT9bXdbfS/P9CrUoDAUAPG3JcnU4m9Fo6rfSGRYP0MAJ0gG0SKUf9w+mWH7BuNzp1USvDb6icO0EDt8AwJbPN2XMkKZk+fBYltzyv/OwVrQxf6Kljs2yP6qPMt/RR5ltK+8saqt1UX/2e+uv3NVS9eejtrlv9Wrf69dA5oyV7VA/dM6r18NufnyuTNaQbBEGgev3ZxWH7h1q/fhRmJjRz/g/k2x6N/QwvVa/IDSo0BNBG5dxJ3Xzjj2gIAF0t05dUKuuq9CicB12jUxe1MvJGLOdgv0h/Xacrlwn2BwCgw04kkjqReHIvs9RoNAN2Nir6dH1NdysVlXyfhgKAGEqblk55SX0+ldapZFJnkkkNOE+eP37ceEQj9TACdIBdBo5ltLZUUa0a3uR47MaPNPWbf0LjtnKysoyO/Bwv3VqZs+LMRM8F6Gy3bvVp2rogaWcbDNWmJTXLS+z1BvtD94wkqWoktXyEpbO60VBtuqVgJ4SntkdwjiQ5CSuUB0WFmQ80d+qbNPYznK/+jEYA2qicO6mp3/qXsXxAPVTjOgrEblyfyIWWAdctz2tw+v3YZkT9MPf7+trSD+k0AAAcoZRp6teyWf1aNisNDEqS5ms13a1UCNoBgIh7LZ3W6URSp5NJndr8AvZCgA6wi2mZGjndp7ufLIS2zczCpAZvXeKB6yEZpmSaRsd+Xjqf0PrKxqH+bX72itzygqpekQO3zUPn9ONff5Y4T4Mc0OnyZRqhC9T9QEHj+X+nfzjdcoDO0DTXi2cp+PdV8ClRA7TLWvGcbr7xR7HN4EXmCCB+EilH+aKnlYVyKNsbunVJi2NfieVa7qFzWjOJ8xrbuE7HAQCgiww4jgYch6AdAIiI7ZlxhhyHYBwcih3QBpER9Ni+HuX+elm3baWuCNw4+PG3TENB0Lkekc65hw7QaR7rH+v269/lQCKc/ugv61TlctddA3pt/tBo7F3aasfx6kvKca2WsrC55XllFie1VjjHANjm1Y2fdvRawFyK80MU5qxhuX/227HNGrEl5S+17VjR58F87Oj63uDJnB4tV9TwW28Nq1bS2PUf6eYbfxjLNvwo87aGqjflUC4UAICunqMVHUdFx9EXtwXtlBoN3S2X9WmppLuVshZqNd2tlGlsAGijQcfV6WRiMyuOp9O7ylS1dN4PuL/Sy8igA+w1ET6W0cp8KZQbfVLzZt/4tXcodXVAhiTL7OzPbLXMVWFmQvfP/i7BWAjFbzz6axqhC9Tq+78W5AY8Ldxba+nnDU1fIkBnGzeo6ESNN76BMG2UalorntPMq3+gcu5ErPd1cLPUJoD4MS1TxWNZzd1dDWV7+dkrsQ2UXrf69EnqTX1+/Sd0HAAAIiZlmvpcOq3PpdM7vv/J+roW6zXNV2v6tLSm+WpNC7UqDQYABzzHnt4MwDmVTGrIcXR+1/kWCBMBOsAetkpd3ftleOnwMwuTys9e0crwBRp4nyzb6PjPTOfclrdBFh2EYbA2raHqTRriiAVB82u/csVUywE6lMvb6aXqFbm87Q2E5qF7RteyX9PCqZd6Yn+5lgLx1j+c1vLseksZDLcbu/6eJt/8s1i21cfpr+t05TJl/wAAiImdATuDj39F4A4APG17IM6g6+h0IqnTSU9ep7MEoOfZVAqIkB7LX90NfTOdTyrdl9T6cngPBcevvauPv/oX8m2PPr3X4d92/I/iumjZZrPM1erhFy1k0UEYXlv7ibr2Ot1D16SDBujYrqVc0dPqQmuphgszH8S+5Mx+vbrxUxohSnMp5qxd6aF7Rp8lzuuzxGsqWX09NRz6avfae5zo82A+duR9b/hUn2Y+XQjlR3mrd1SYmdDi2JuxbMoPs7+vry79kPEDAECbpmfdMEV7ZY/AnU/X17VQq2q+VqdUFoDY2sqC0/y/q0HH0fnU3hlxjuI+R6CA+ys9jAw6wAuMnMpr+h83wi11dfWd2Na1D/UEZR3dz07nEy0F6Ehk0UGLk8jyFd74j7BcMdVygE5xZoIAHUnD9WllGrzlje60bvXr48w3uvbzLdujWrf6tWyP9vRxOr5Bibxe6fNHabB6k7nbEfKyrrysq/KjcN4MH7vxnlZG3ojlizVz7ml9ljjPuREAgB7UDNx5+iH1Qq2mhWpVdzcqKvkNfVpaU8lvELwDoHvX4LbbzIKTTCptmXotldaQ62rAdmgcdD0CdIAXMC1Tgyfymr21HNo287NXKHW1D9YRBujkC0k9vPuopW0UZia0MPam1grnOJg4ECeo6Nce/Q0NEWFe1pXtWqq3UGrBLc/H+u3t/Xq5epkOha5Vsvr0cfrrNEQX4wE0fb5TXhPl1I7a8Kk+3frHh+GsRWsljUz9WJ+9+p1YttVH2bc1VL0phxKiAABAUtFxVHScbZl3nmTdeVbwjtQsowUA7XQqmVTKtPT5dEppy9KpRDMYZzxBhRJEGwE6wD40S5WUQnsbT2rWtV8rvkqpqz2YlmQYxpH9/GTakZOwVNvwW9rO6NRFTf3mn3BAcSCvrf2Em+Ux0D+c1tzd1Za2UfystwN00o1lvVS9QmcCcGgE6AC9w3EtFUYzWry/Fsr2hqYvae7UW7EsW1yy+vRp+k29tvYTOg4AAHiu5wXvlHxfM5WKSo2G7lYqKvv1x4E8ZN8B8CJbAThbWXCaATjN33umRQMhtgjQAfZp+FSf7lyfC63UlVuej/UbeS2fnKyjr9ebKyS1cL+1NwEyC5NkwMCBDFan9UrppzREDOSKnhbuPWrpupFZmJRbXojlg6H9eKl6WZTiBdCK45WPaQSgh/QPp7X8cD20dfv4tXdi+8LFx+mv61T5stI+pUQBAAhTL93H8CxLZzcDd76QzT715xXf191K8yXET0olSXqcgeduuaJSw6fDADGVMk2dSjYTFHw+nZKkXQE4JmdT9CwCdIB9clxLxWPZlrMhbDc0fUkrwxcogbSLZUiGjCP/HP1DqZYDdCRp7MZ7Whl5g2xJePF5JqjoN1b/moaICdMylelLanWhtTeGBm+937PBnGTPAdCK4xvXyUgH9OD8K8wS1ZmFSWUWJ2O7Zv/Pud/XV5d+SMcBAABtkdwWwHP2GRl4JGlxs4TWVhYe6UkQz3y1poValYYEusyg42rQcSQ9HXzTLEGVpJGA5yBABziAvqG0VufL2ijXQtvm+NV39fFX/zWNu41hSeqC4PmwylxZtZLGr76jm2/8IQcXz/Xa2k94gzWO140WA3SKMxM9GaBzonZdmQbjAcDhnSpfphGAHpQrelqeXQ9t3R7nNfuce1q3vDc4XwIAgCNTcBwVNh/0P8nCM/jU35tab75Iu1Crar5Wl/QkkIeSWkA4tkpOSU8CbwYdV0ObY3R/mW8AvIgdBKSIioreOlZB1+7v0Kmc7t5YCG17zVJXF/Xg7Lfp5JsMGeqWw983mNLczKOWt5OfvaL87BWtDF/gAOOZjm1c19n1icgkbuSatM9zvGcr4dnaKNcP/dOtWqknS+Wdq/xMTFOjOZdifYFukPKXdKzycUeuq/R5bPWDTvcF5mN7GxjL6rOpRdbs+/BR9ls6VvlYToOHWgAAtD4/ow3a5XEmHqW3fffpQJ6FbVl3FmpVLdSaQdt3KxWVN0tqkZkHvaJZZqqZzWartFTz+9bj7w85zuNsOOjs9YL7Sb2LDDrAASU8R4XRjBbvr4W2zdGpi1oZfkPl3AkauMv0D4UToCNJ49fe1eSbf66qV6RhsYMTVPQbK5S2iqv8UFoPb6+0tI2hW5d6KkAn3VjWcP0mnQfAob229hMaAehhXtZVtujp0UI4QSdDty5p7vRbsSxbXDOS+jjzDX1x9W/oOAAAIPKKrqOiuxVskH7h398e0FPyG5rZeDJ/3B7UI0mfbGbxAY7CeDKp9Gb2mu3BNlKzvFTKama+IeAG6H4E6ACHUBjNaH250lJGhKcurtfe0eSbf0bjdhknYSlbSOrRYqXlbVm1ks5c/kuOM57y5aX/kzdWYyxX9DQ/s6qGf/iIeG/1jrzVuz0TyPlq5ad0HACHlvKXKNcC4PG6vZU52Pa13Nj1H+n269+NZVtNpb6sU+XL6qvdo+MAAICesjOgR/qisvv6d2Xf193Kk2cGu4N7JOnT0s6AHkpx9a5B29GguzNo5vPp9K6/4+74OwTaAPFFgA5wSANjudBSZkvNh6+UuupO/YOpUAJ0to7z+LV3Y3tjFwf3xUd/q8EqmULiLlf0tPyw1NI2hm693zPnjjNVHqwDODyy5wCQJMe11DeUDi37bWFmQg9PvRXbgOn/L/st/fbiD+k4AAAA++BZll7ZFWCx3+Ce7Rb2KLe1O7hny+6sPjv+rFxRaY8/w/NtLwX1LLuDabacTz39fQJrALyITXWz6AjY366SzLrKD6W00uID1x0X7luXtDj2FUogdZlsISknYam2Ec7ktjAzoUeFcz1VrgbPNl6+rJfXJyJ5fueadDD5oXTLATr52Suy6uVYllbY7kz1itygwgkiwuOU9QWOUspf0nj5ckf7IX0eR9UXmI/tZw6W0upCWfVqOGu5sRs/0tRv/kks23fOPaNp7w0ykAEA0NJ8JVAQsELA/hUcWwXn6VwKZ1Optvy8qdLB7k+WfF93N1q7T+c4rvKOo8AIZx8G7YMHwJxOPikBxVoN3bK+pZ/0LjLoAK1MnkYzWl/eCO1mn1UrafzaO7G94Rdlg8ezundzObTtjV97V+XceM+Uq8HT8vX7+uKjv6UhemXC5VryMq7Ka9WWrhGFmQ80d+qbsW4rylsBaMU/XflrGgHAY6ZlamAsqwchreUyC5MqzEzE9mWLq7m3dXzjOuV3AQAAYuowgT9fyGZb/rm2bWskkeAAAIAkkyYAWhhAlqmh8Xyo28wsTGrw1iUat8tkCp5sN9wI67Mffl/e6l0atwfZjYp+e/GH3PjuMfmh1t98GZqO9/Wh37+vfv8+nQXA4eZWpZ9SNhLAU9J9SXkZN7TtjU5dlFWP5zy+ZiR1PfMNOg0AAAAAAG1CgA7QIi/rKp0PN/J3dOqi3PICjdslgiCQ3whUGM2Eul2rVtKZy38Z25u72OO418v67SWCc3pRui/ZcqCfW55XZnEytm10juw5AA4p5S/p/NpPaAgAz1Q8kQ1tW255XoPT78e2raZSX9ayc4xOAwAAAABAGxCgA4Rg6FRepmWEtj2rVtLY9R/1dqMG3fPV2Kxgli2Gn0XHLc/r7M+/T5BOj7DqZX3p3r9RX+1e9PclxHNeL8kWvZa3UZyZiGXbOEFFJ6rX239eBxBL/3Tlrwl+BbCnhOeEMg97fA/g1qVYv1RzNfstOg0AAIfA3TLg2bglB3C9wBME6ABhDKQ2lLrKz15RfvYKjdsFav6T6WPYWXQkyVu9Q5BOjzh38//QsDsX/cmjIVnMIA4lF8KDocLMRCwfCL20cUVuUKGTADiw82s/obQVgBcaGMuG9mKNVStpdOrHsW2rOfeMbnlv0GkAAAAAAAgZj9eAkKT7kqGXuhq/9i5BG0fMb+yM7c4WPXkZN/SfQ5BO/J36xf+qz6Xj8fDQsYnvPizbtUJ5e7sw80Hs2obyVgAOdX2tXKa0FYB9MS0z1BcuCjMTsS49ejX3tmqmR8cBAAAAACBENnnF0LUi2DcHxnIqr82r4Yfz4bdKXd1+/bs9duib/3WDuh881Rf7RzMqTy2G/rO2gnRuvvFHqnpFzgExYdXLGr/6jl6yp2Sa6cjn87RtQ4bRg2lJQ9zhbMHTo4XWgvGKMxN6cPbbsWneofq00o1FpqXMpYAD6ffv64urf0tfB+dd2nff8oNpLT8sqV71Q/lIY9ff0+SbfxbL5q4ZSV1Pf0NfWP0b+h4AAEwHAcYHEOZ4CBgUvYwMOkCIbNdSYSTcEkhxfyuvmzUaUtB4+vtexlW20J43Cb3VOzo38afyVu9yAGLAqpd19uff18j6L5QfSkd+fwxTsiyOa8vjPOPKdltrSLc8H6syiC9tXKZjADiQfv++vrH6QzkB2QcBHEyY5am91TsqzEzEtq2m0l/WsnOMTgMAAAAAQEgI0AFClh9Kh14Cafwqpa6Owu7yVtsNjGVlWu0p82PVSjr74fdj9fC9F20F56TX74b6EOAo2ZS2Ck3fYKrlbQzduhSLtkg3lnWGAB0AB7AVnOMGFRoDwIF5GTfUNfvYjfdivV6/mvsWnQYAAAAAgJAQoAO0QdgP493yvEamfkzDdlAQSI3nZD03LbOtQRdWraQzl/9KgzF5AN9rvNW7eu3v/7j5Ru1IpuVsKd3Atg2ZxOeEJltsPQtXZmFSbnkh8m1BcA6Ag8ht3CM4B0BXrdmtWkmD0+/Htq3m3DO65b1BpwEAAAAAIAR2EFDgLCp67VhFeX8tx1T/SFpLD9ZD2+bQ9CWtDF/QWuFcDxz7zfqLR8j3gxf2wVQuoXQ+ofWVjbZ9jrHr7ym1ekcz5/9Avu0J3S8/e0Xj196VVSspnU8oN5iK/PnbNCXTNHaOyx6bPoR9DA3TULbg6dFia29bD956X5+9+p1It+2ZymUxHY3XXIr1BdoltXZX36z+b3KCypPLUBAc+TmEPo8na5iAvheR/Q17zT46dVGLY19R1SvGsu2v5t7WscrHchpk9gUA4IVzFpoAeJjkvzUAACAASURBVOa4YO0MbB8TAWOih5FBB2iT/pGMXM8OdZtj19+jYTukXt/fhXHwZL7t2VEKMxM6+/Pvy1u9y4HpcsdvvKczl/9KVq0k0zI0eJLSVthbPoQyV8WZiUi3wVj1utKNJToDgH3Nh968/2/InAMgxLlYOtSyxePX3oltW9XMpK5nv0GnAQAAAACgRQToAG00FPLDeW/1jkamLtKwbdZo7D9q1bQMjZzua/tn8lbv6OyH31ch4g/j48otL+jshz/Q0PSTkmTDp/tCveF/VBzHkGEQoNOWfuPZLQdyWrVSpM8Ln6v8lI4A4IVGpi7q5U/+dw0UaAsA4TEtQ8Xj2dC2l1mYVGZxMrbt9cv0m1p2jtFxAAAAAABogU3yJHSjQPFIBel4tvpG0loOsdTV6NRFrQy/oXLuROz7wFGp1YMD/XzHszV4Mqe5O6tt/VxWraTxa++qb/aKbn/he5S86hLbS1ptKR7PKplxI38es6xmKaagy8ZonK5J+cFUy+eOoVuXtDj2ZuTaNe0vaah2k9TPzKWAva9D9bLOXP5LZRYmNXCmb8/rEX0drGG4rh1WpuBpZa6karkeyvbGr76rj7/6r2N7HK7m39Y/m/+3dEgAAPaaswQBc0KAsQHsa5HLmOhdZNAB2iw/mA69BNLYjR/RsO26JjYCHabsY6bgKVPoTMBMfvaKzn3wp7F+OzMKmg8N/+pxSavtfSEXQumibmDbTBPaLZVPtpxpyVu9E8kSeK+UyZ4D4Dlzq8VJvfb3f6zMwqSchKX8IIHJANojzCw6bnleg7cuxbat5t0zup36dToNAAAAAACHxJM3oN2DzDI0eDIX6jYzC5Oxvul3lPzG4WNWB0/mWi5Xs19ueV5nf/6DZnBIvcyB67DCzIRe+/s/Vn72ys7j4tmh3uA/Sq5DWatOXSPCCO4buvV+5Pb9dOUyHQDAU6x6WePX3tXZn//gcQDs6Jk+GgZA2yQzbqgvW4xOXYz1Gu1a7m3VTIImAQAAAAA4DAJ0gA5IZtzQM2qMTl2UW16gcUMUBIF8v8Xj8nKhY0E6UjObzmt//8cEbHWIt3pXZz/8wVMlraRmoMXoy4WWs6F0A9syZJgE6HRsHIdwfcjPXonUg6Dx0mW5AcGFAHbaCoAtzEw8/l7/SFqpnEvjAGir/pF0aPN4q1bS2PX4Zr2tmUndyH6DTgMAAAAAwCEQoAN0SP9IJtRSV1atpPFr79CwIfLrIZxULUPDp/s6GqTRvAH8ns5N/CvKXrWJW17Q+LV3dW7iT5VZmHzmcY9LcI5pSpZNcE4n2a6lZMZt+TxQmPkgMvt8svxfOPAAHsssTurcxL96KgDWSVgaGMvQQAA6Mh8L86WawsxEJEuQ7tcv029qxTlGxwEAYJeAJgD2ZPDFF1+Pv8QjmJ5GgA7QqcFmGaGXvsksTO54wxitaaW81Xa2ax1JsIa3ekdnf/4Dnf3wB7G+GdxJW4E5u9/m3z22O505qZ1sgnOORLaQbHkbQ9PRyKSVr93X4MZNDjoAZRYndfbDH+jsz38gb/XOU38+eqZPlsWSFUCH5iiD6VBfqhm78aNYt9fV/Nt0GgAAAAAADoi7nUAHpfIJpfKJULc5duO9WNe375SGH+77Da5nH1lGlczCpM5N/KnGr71LGbTDHr99BOZsGTyZj01wjmMZMgwCdI5CpuC1/EDILc9HIovWy+sElgK9Lj975XFgzrMy00nSwPEMpa0AdJRpGeofSYe6LsvPXolte827Z3Q79et0HAAAAAAADsCmCYDOGjyZ193rc6EFhFi1ksavvqObb/xhfBopCJpfHVSrh//ztoJ07v9yMfQAoP0ozEyoMDOhteI53T/7ba0VzjEAXyCzOKmh6Uv7vpE+eDIXetDdUTEMybS0/7EXkLQ39P5XSGr5wXpL2yjOTHT1WHcaFR2rfPy4Cxn0I6BnuOUFFWY+UHFmQm55/rl/Nz/gaeB4Zl/XGk4jAMKdj3l6tFhRZa0ayvbGrr+nteKr8m0vlu11Lfe2jlU+ltPgpSEAAJ6sUVikAE+NC1ECDth5raANehkBOkCHbZW6mruzGto287NXlJ+9opXhCzTwITT89m17K0hndnpZ9ap/JPuXWZjU2YUfqJw7qYenvqmVkTdie4P4MKx6WYWZDzQ0femFDwy3j+PBk/nYBOdIkkNpqyOXLXgtB+gUZiZ0/+zvquoVu3IfeYAD9N41Nv/gsvo256r7kUjZGhrP0ngAjkzxeFaffRJOJlK3PK/B6ff14Oy3Y9lWNTOpG9lv6PWVv6HjAAAAAACwDwToAEcg7LfyJGn82rv6+Kt/QeDFIdQb7Q1VdT1bxz9X1P1fLqparh/ZfnqrdzR+7V35N97TyvAFPTz1lsq5Ez173POzV1ScmThw2nnTMjT6ciE2Za0kybYMUdmqC46DaymVT6i0stHSdgozH3TtQ6BXH/1HDjQQc255QfnZy8oeorRLImXr5KsFWRaVmAEc4XnMs5UpeFpbDCeoeOjWJS2OfaVrA6hb9cv0mxovXVa+do/OAwAAAADACxCgAxyRwZM5ffbJQqilrkamfqzPXv0OjXsAnaqmtRXUMXdnpeWH72H0la3yV1VvQMsjF7R4/Cs9EayTn73y+C1+q1Y69HGMU3COYUiWxbmga/roYKrlc0RxZqIrA3QGqjeV8pc4yEDMuOUFZRZuKLs4qczC5L6z0e1GcA6AblI8nlVppRLKet2qlTQ69WPdfv27sW2vq/m39c/m/y0dBwAAAACAF7CpcRYdPXWsgvjvr+VY6hvOaPHeo9C2OTR9SSvDF7RWOBf1w9+xeqS1euf6mmEaGjrVp8XPHml1vtQVbe2W5zU0fUlD05ceB+vEoQ892b/Dv8X/1LY8WyMvFWRaRqzOT65rHGq89dT0oYPXpETale1aLZXEc8vzXVn2cHz98o52pPZ0fOdSrC/iy1u9K7c8J2/1jrKLk/JW7xwq4PWpc99mcI5pmQc+LwRd0Ofo8ziqvsg9gvau3XIDKS3ProeyvcLMhBbG3ozNOmu3efeMbnu/rpOl/8LJAADQ83NCAHutXxghwPbrBUOid5FBBzhCucGUSqsb4Za6uvquJr/y55S62qdGo/NXwMLxrFzP1uK9R6FlUArD9mAdSVorntOjwjmtFc9F5kayt3pX3urtlt/i3y2VT2jgRF6mFa86ULZNXauuvDYMpFoO3hy6damrAnScRoUHNkCXyyxOPvn1QvPXifK83PK83NJ8aNfU3bYH5wBAN+kbyWhtqdJS4PR2Y9ff0+Sbfxbb9rqWf1ujlY/lNMp0HgAAAAAA9mD8+//pq8RnRURlraoHv4puaYhkxtXIS/0cyF2q5brufboQ+/08ca6gVM7tqs9Ur0v+EQbIVMt1zd9dUbVcj8QxLOdOqpw7qdLm/8u58SMNBMssTsotzct7dEep1TuPHyaGrXAsq9xgKnZj0jQNOc7h/31ptaq7k4tck9qg4Qe684uHkW3bVD6hoVN9L/x7jmPIPILn8Z/85wf0W+as6BL5AU9D49mWgnOqtUBBgz6P9ugbTqtvJMP5toeva3Ef37mBlArHswx2AABC8sv/UNKYlaQhgF0s29aI69IQwKbrx9Y0fIY8Kr2KIw8cMdez1TecDi11dlfrsnDAo8ies/vYj7xU0OK9R1pb7P63DL3VO/JW76iw6/trxXPy7ZRKuZOSmoE8vpPa/PXBg3iselne6u3Hv98KvEmt3pFVL4VWTuOFF0jX0sCJnJKZ+C0cDENybJF3t0uZlqFMwYvEeeFZcgP7DWgLpIAsTkCvKh7LaOB4pivniACwJZlxlcy4oWa97Sar8yVlCp5cj9uDAACEgbscAID94WZYL2MFDnSBvpGMSqsbkcmkEgd+I+iK+o6mZWjgRE6pXELzd1e6quTVfm0F0ORnr8Smf8S1pNXjiz9X/66XG0hFMkDHdq1YBrUBCHfuc/xsv1JZzhUAomHgRE4zN+Zju3+L9x6R7RgAAAAAgA4xaQKgOxSOkVa6k/xGd32eVD6hY68UebB91BdFy9DQqT4NneqLbXCOZUmmwfs83c717Ei+ybz/7DkAelEq6+qlLwwSnAMgUmzXivUcp7JWjWzmRgAAAAAAooYAHaBLJDMuDzY7pBEEChrd97ls19LIS/2xDg7pZpmCp7FXB5XKJ2K7j4Yp2fStyIjiNSFT8DhwAJ5edFqGRk7ndeJcQabFEhRA9PSNZGK9Rlu89yiS2VwBAAAAAIgaOwhYgEdF5I9VEIj+9nz54bRKqxuqV/349V91T0XFut/d48nLuTp+bkDLs+t6NF9iYLSZm7TVfyzzOHtRnM9TtmWENg4j30oRuCZ5uYRMy4jMw5JMf1KGuf8xFASGAuLFYjmXYr6H7XIDnoZOZmVaZnuuHcHRly2lz8f4tNvlx5d7BJ1jmFL/sawW7q7Gsq83/EBLD9ZUOJZh4AMA0Nr0RqwOgD3WVjQDEK81PQ6N1xeBbhqQlqHiGKWu2i0KD7tNy1DhWEajZwtKph0OWhvYrqXiiZxGXyn0RGkx2zYobRXBa0K6PzoZadL9SQ4agMe8rKvx14oaOZ0naw6AWMj0J+Um7dju36P5kqrlOgcaAIAW3KyX9NlGhYYAAAB7smkCoLskM64y/UmtLTGRbwc/Ymm7Xc/W8Ev9qqxVtXRvTdUKN0xbvvC5lvLDaWV6KJjANCWL0laRlBvwIpFJy03aPRHoBuDFvKyr4vGMUlnOCQDip/9YRrM3l2O7f0v3Hmn4pX4ONAAAh/RR9ZH+r88eyLNMjSWTOptK66yX1lgyIc+yaCAA6HE3SiVdL5V05iT3zXoZATpAF+o/llVpdYMa8G1Qr0ezTZMZV6OvFLS2VNHK7Hosy6C1/YLXg4E5j/fdJjgnyv02mXZUWa919efMDqY4WECPy/Ql1DeSJjAHQKwlM65SuYRKqxux3L/Kek1rS5WeXDMBABCmst/Q1HpJU+slSXOSpLFkUmOJpI4nE3olndbxBNdbAIiz2xsV3apsaLJU0nSlojvbMqz9oT0iieoZvcrm8X90BDH4/PS3/TEsQ8UTOc3dWolVBz7qcop+I4h8H0z3J5XuT6qyVtXK7Lo2uvyhfTdIpB3lBlPycolYnEsPfKG3DUlG+OMv4g0ZpWtSuuB1dYCOaRnycokDt2ego78u0G+Zs6LFa4xrKTfgKVf05CSab4N2elx3w7igz7MO57P11j2CvmMZVdarsX2hZuneI3m5hEwycAIAEOosbaZS1kylLG275X82ld4M2klqLJkgaAcxHhYBa2fE2u2Nim5XNnS7UtHtjYqur5diuR5GOMigA3QpL5eQl0uoHNM3845CoxGfy10y4yqZcVUt1/VovqQyGZd2MC1D6X5P2QFPttu76WNNU7JMbqxHXbo/2dWZs3iAA/TeNTbTl1S6P6FMHzePAfQe27WUHUhpZXY9nutmP9DK7Lr6j2U42AAAtNlUaV1TpZ1ziu1BO0XH0cspshYDQDc5aDAOsBsBOkAXK57I6d7kPIEXIWgEgRqN+O2X69kqnsip4Qcqr27o0VxJ1Uq9Z4+zl0soU0g+zpbT6xzbpBFiYitIpxvlh9McICDui0bXUqY/IS/rEpQDAJKyAymtL1ViW3r40XxJ6f6kXI/bhgAAdNqzgnaOJz2NJRIquq7OeimNJZNKmtz3A4B2KvkN3a6UHwfk3Nr8P9AqVtpAFzMtQ/nhtJburdEYLWr48e8rW+Wv6lVf5dUNrS9WeiJYx8sllMonyOKxi+PQFnHSrQE6ibTT01mqgNguEl1LibSjZMZVIu3IS9syjS69rhDHDuAI1+oLd1dju49L9x5p+KV+DjYAAF3gs0pZn1XKO77nWZbGEkmy7SASWLqj291YX9dcva65WlU3SiXNVWuaq9Xa9vN4etPbCNABulx2IKXSyoY21ms0xqEnf4H8Ru9MAbdSrmcHUo+DdeLUh2zXkpdLKJlxyJSzB8syuvdBKlrq991W9jBT8Dg4QMS5SVuWa8n1bCXSjlzPIeAVAPYh3Z/U2mI5tmv1jfWa1pcqSveTOQ0AgG5U9v1nZtspOG4zWCedVtF2CNwBgG06HYgDPAsBOkAEFE/k9GBqkVJXhxT37DnPPclvC9aRpMpaVRvrtcf/jwI3acvx7Mdv8ZOt4/kMQ7J5sBpL2QGvqwJ0tjJ3AeheibTz+NfJjPt4bmA5pmzX4poKAC3qP5bVg6nF2O7f0r1HZCoFACBiFmtVLdaqewbujCWSKrhb/3dVsHlMCCBeyr6vW5WKbm9UtN5oEIiDrmP87f/42zzxB3AopiE5TvfXut2oNjhYe6iW66pV6qqW66qWa6pV6kcaCLYVgON6tpyk/fhhIvbPcQ2ZEU6Q6PuB6gQj9kZfdaKT6akRBKrV6JdgvHajWq2hBsMTANBhhrEzLb1hSEaI18ogCBRsu74F0o7fAwC60//8727p08/WIve5z6bS8iyrWSprM+vO8WRSnmlyUBEKy7Y1kiAbPsKzFYSzlQ3nTqUZjHN9vRSJz/9HvzOil0d5+bVX2aztAByWaRoKurx6aMOnvunzOF4zO02qf+f3N9aqajQCVct1SVKtXFfDbwY6HSaIx7QMOcknb2MkNgNvXM+WaRpy9iinwbE74EXdNGRIXT8u9xIEUo3gnN4RSIERROezcsTAeO3Wj8b4BACExtBW8I2hrXibx88mDalz8arP/0FB48kaaitwp7H5CwJXAeAo1yfRvCv36Wa2nauPVp/6s1dSaSUtS2PJpFKmqeOJpAqOo4LjcMBxsLU70cY4oPl6XXPVquZrNc3Va7q9GYRzY309+mOC+809jdx1AA7FkGRGoCoCmTgOZyuAxssR1R4VpiFZEb+q1+uMVwAAAACdWT9tBeGYpjocfNM6YzNoaPtHtnYF9QSNJwE8zQcAAcE7AIAD2wreufaM4J3iZtms44mkPNvSWKKZdYfsOwD2o9xo6FalolKjodsbFZX8hm5tVFTyfd2uVGggxBYBOgAOd/KIQA36oEEEKnpoTNpGpD+/X+dNTwAAAADhMw3JNJrBOIYZrUCcVhjm7jw8zd8FwfbgnWbQDksxAMBhLNSqWqhVHwfx7NbMumM1M+64rop2M/OOZzUz8QCIt9sbGyr5/uMMOATgAE02KcUAHIZhGl1f/7zuN6jRjt64mFtPbrRGUdAIKG3Vg4JAUmBE5LMGpOEF47VLx2tzfHKMAABNptEsx21oKxjHePZ1rcc9Cd4xZG1dTzdfcmo0yLQDAIdfoNAE283s4wH82VRakjSWSMizbBUcWwXH3fyzFI3I8ECXmiyVJElztZrmarVm0M3GhiTpdqWiUsOnkV4wHrjf3LvIoAPg4CeOKGTPCQL5DY4V4s80JMuK9iugNUpbAQAAADgEQ831ULMMt0GDHLYdDUPGZhnzrfVlsBmoQ8AOAKCdpjaz70ztkYVHkgqbpbSkJwE92wN5msE9Fo0JhGB34I0k3dmoaN1vqNQg8w0QBgJ0ABxYFIIBGgTnoEc4TrTrOft+wNsTAAAAAPbNMjdLVu2RIQfhMMxmdh0CdgAAR22xVtVirSrp+YE80pMAHs+0NJZsltHaXlIrRXkt9Jg7GxWVNt9mv70ZaLP1/a1fk/EG6CwCdAAciGVG4+ZXnXI56AFOxN8QDRoBYxUAAADAC1mm0SxfRZacI7M9YGerJFaD7MUAgC6zPYDn2trqC//+VkCP9KTMlrQzqOfJn5GlB0en3GjsyF6zPcONJN3YzHwjEXADdDub8mYADiIKc1DfD6gpj/iPRTP6N6erdcZqLwvULEkQlc9KXwXjlfEJAOj0mseQaUa/pG8cbZXEMmXIVvM+TKMh+aTWAQBEzPaAnhdl59nubCq14/cvbwv0kaSxRFKe+STzuWdZOp7s3cw9AQv3zaCZJ5HNJd/X7Y2d5aK2B9k86/eI1aDgflYPI4MOgH2zTCMS6aPJyIG4M4zol7aq1RpMQAEAAADsYJmSaRoE5UTtuFmGLEtyZGwG65BZBwAQb1O7AiemDhFIkTItHU8mnvr+8UTymdl6dgf97Pg3ySQZfkLwvICYG3sEcD3r38zV6prfLMsGALsRoANg38ieA3QHx472zWrf52YtAAAAgCbDkGyrmS0nCi8F4fmawTqGnMdrv2Z2HQAAsFOp4T8zsGeqDVlT9goG2otnhpfxx3Fc5WxbQcjTvJLfeCoDzfMQNAOgW9gsewHsh2FKpmE06wh0Mb8RiPMa4syyjEiMxeep1xmn2BShfkyfBeOV8QkACJdpbZax2h6Uwws38Vq/moYs01AjaL6k0SDjMQAAR2KvYKDnubb2KJSf7e0q/wWgiftZvYsMOgD2d7Iwu/9SEQSBAt7KQpwnbGbzzdIoq5E6BwAAAOhplmXIIltOTzENQ6YlyTLkN4JmaXJidQAAAAD0IAJ0ALyY0awB3+3qPPdH3C/aEQ/OaTQCNXyOIwAAQKyWi6ZkGYYMQ49fAazVePKO3R2l+eKPZRGU0+seZ9VpBKo3eNEKAAAAQG8hQAfACzkRuYFGqmTE+oJt7Ur9HjFBEKhWZ4wCAABE2fZgnObX0/PTRsCcD9s7TfOeQhRe+kFnmaYhl/JXAAAAAHqMzX0TAM+zdeM16PKThR9InM8QV6bZ/Aoi3Mlr9YAxih2CQAoiktc+4BoDxmv3jlfGJ9BWliUZZjMgx3zm+SHguok97yXYtqGtuJyAToG9+ook25QC05DvSz6BOgAAAIi5QKybexkZdAA8V1TST/tk5kCcL9Z2tN829QOpQdpyAACArtcMDN8MyCHhCQ67fnEMUckKB2VIsq3mfSgCdQAAAADEds1MEwB4Hsvs/s/Y4A1NxPlC7RiK8r3thqR6jQEKAADQtWs+60lQDjEVaGntYhuRuIeA7rYzUCeQ79MmAAAAAGK0dqYJAOx5gohI1g7eqkJcWZYi/+Yp2a0AAAC6c55pmgZZchBSfzKa5dBoCoSoGahjyDSb933IygoAAAAgDmwemwHYi2E06yB2syCQfG7SIKYsy1CUr9O+z/jEC87hfFaAMdCiRsD4BA6yvrOsnRlO2jV+GJe906ccu5l9ieOOdvYz2zbUaEj1ekA/A8C6CWBcANEfF9zP6mlk0AHwTFspzrtdnVTHiCnHjvb7p0Eg1cluBQAAcOS2gnIM0psgRJSzQqeZpuS6hnyftSYAAACACK+naQIAzzw5WNH4nI0GN2UQP9ZmGu8oq1HaCgAA4MgYxpPSMEDYfWt71hyg8+vl5ktltXqggGUnAAAAgIghQAfAU8yIvF3p88YUYqj5MCXa+1D3uVGKfQiC6LzKT4cG47Vrx6thMESB3Ws525QM8wjHLIMythy7GRgBdMP133UMNRqBanXaAwAAABGbz9IEPY0AHQBPnxgi8pal3+BYIX6ciAfnBI1APqXnAAAAOso0m0HeBmlN0Kb+FfUSvIhr3zSUcJsZXBvcIwIAAAAQAQToANjBMI74bct9ajTI0IEYXpStaIy/56kRnAMAANDR+aNlETiBNvYxW7LImoMu59hk0wEAAAAQkXU2TQBgx0khItk7yJ6DuDHN6D9cobQVAABAZ1iWZBOYgzavT8jKhGj1WbLpAAAAAOh+Nk/SADxmSIZpqtvPCkEjUMPn3IV4sSxDUe7VQSOQX2dc4gB9JkKVdgNJzJnBeO3SzxYEEsMTPcS0jOZLFUb3zh25bsakn22WtOJIImps21DDD1RnfQrgSCdDALYQ7g2wbsauNQtNAGBLVLJ3kD0HsRt7thH5N1NrNSaTAAAA7WKYzRIuIpsJ2sy2DZlkZ0LEmZYhx5Tq9UAB95AAAAAAdNO6myYAsCUSAToB2XMQL0YcSlvVueMJAADQnsliMzDHMAmYQPvXJXYMXhwAHvdpw5DjGKrXuY8EAAAAoHvYLE8ASJsBAhE4IdR9soQiXpyIjL29+H4g3+c44uCCQDKC6HxWrj1gvHbpZxPjE/Feo9lbgdwR6uhcN6PHNCXHNiPX14D9sC1DvqQ6QToAOrVAAfDU+gDA7nERcMno5TUKTQBAkiwzGp/T54YK4nQRtqL/hio3OQEAAMJlmM0gbjKZoCP3ArYHggEx7ufGVskrlrAAAAAAjpBJEwAwzWjc/CU4B/Ead9EvbVWltBUAAECobMuQa5sE56Bj/Y3gHPTMGtww5DqmDO6GAwAAADjKtThNAMC2ovE5fV5zQkwYxrYU8hFV9wMFxOcAAACEYkeJIaADHMeQSSAYepBrm6rVAzUa3GMCAAAA0Hk2SxGgt5mmIvF2ZqMRqEEwAGLCifhbqkEQUNoKPYceDzA+gbbNDW1DlmkwLtERzZcFCM4B512/IdXqnK0AAADAuhmdRQYdoNdPAhG5EewTnIO4jDnLkBnxBzA1gnMAAABaZprNwG3KWaGTfc4lUxMgSc3ASJsgHQAAAACdRYAO0MNMU5EIFAiCQD6phxGTMWdHPHtOnWxWAAAALbMtI/LzQkRvLUJwDrCTZRoyHKla454TAAAAgM6wA9YfQM8yDUNBBE4CdV/iXIU4sMxojLm9NAKpxo1LhCSQIjMemp+VYwbGa1d+tgbjE9HjOoZMQ5GeF3LdjNrav5mtKeDAAE8x1Cx5RZAOAAAAOrp2ZvrZu2t0mgDoTYYhWRE5A9Qpp4MYcKzmg5goq5P6GwAA4NBMQ0q60Z8TInr9znXodMB+xgnnZwAAAABtX3/QBEBviko6dZ9SOojDxdaQLCva++D7zQw6AAAAONz6iyAJdJpl0u+Ag6zbCdIBAAAA0G42TQD0JrLnAJ3j2NG+w9cIpBpj8f9n7w56LUmuxDCfiMz7qthNsaoH7K4xe9jdgsQmZYFDzYLj8WJsejFj2JZhwzvvLO2M2finWL9A/8Bey6tZGIYNeKHRxj2LMUiQsFkUPE1C7GF13cwIL+571VXVVfXeq/fuuxEZVaoHDgAAIABJREFU3wdUDdkUoNuRcTLzRJ44AQDw1u+Ck+1R3LGcInZW/U6q1sORb1eV4tDtmNM62x2Ou7JBBQAAOAapOowY+NP1FolOpZbqDEb6j7c5IlIfMfc6jrbiODf5GrWXLxAeRojXfuIVGnO2O3xwH+pJ4rl5cjlF7HYpXIlbntrnFRsXhRu1vjjdj1HQ8Xw3l5QPRTyRvmqJnrR7OYrdLsVekQ7wNs8KT194ZWQA0ma+okAHBjQ53gruJtbyoa18z5bVoiQAwHXldCjUTorbOMHc2znW6q3VWp8V3lz8OWU+9ML/3+srf/Gz657O/1z8Z+14bkaRDgAAcAwKdGAw3bRWr1WBDv0/ZDs/2qqWGuvqOgIAXIcCCcy9TvKdeii+qOX0hTg3VWq8YnN6PRTr5MPcyIp2rm23S/HlUxU6AADA7VGgA6MF/dTH71wUBdC53QaesPvFdQQAuI4p91+kTcc5iOKcN6rlUJBTSgzTFaXUiFi/ar6TokbOXxXt6PJ1ubNdxNO9cQAAAG7HXB1yBsOYpogauYsjP5fVvYmeYy1FSqnrc0QPR1uJQ46nRIpce/mthx3WIF7bU6M6t5um3gGnKQ0/Jz03T2O3M/e+9oy46JBTdQb96rkZUdZ4VrGTUo2c06HDTlas82op5rnGfi/AgKvfawHgsmeFvHlcOujAQHpZbFkd8E3HUoqYp74XNkupsSqSAwC4smlK3b8D0q/dLkXWCeWQy9R66JBTFHBeRa0R61rP63VqTNOhq47uOi/KKcVujtgvJhUAAHAzCnRgEDlHNwt2CgPo+sG6gSMNLDoCAFyd4hxOaTcrzlGUc3sOnYYOg5hzjSknnXXO5axIBwAAuDkFOjCIqZMFFQtqdP1QnfpfHF+W4kJyN2pEpI5+K4hX4DV5luIcz82T5h8DF0+spUYph+Icbt9F0VPERaGOY7ByTjFlnZ8BALgZqwiD5/KGAAa40SfHW8Gx5XzYPd2zUmqsFrcBAK5kymkT3RPpd/5NAxaHXRTkWDu4W+t5rphSjWlK3WwCO4Z5TlEXhWEAAMBb5hSGAAYI9E4W7Wq1wEG/el8cr7Vq1Q0AcNV3P8U5nFDOMdz8O2wmsGZw+rwxYllqLOdddaYpIg14xNpuzvF0X3SABgAArk2BDgygm+45q2tFpw/TeQNHW61WFgEArkJxDifPPwbqnFNKjWV1FHaLLrrqTLlGzuMdtzbPKfZ7ExMAALhmLiHBhY0H+ZSiRh+BrkCAHuV8+NNLnL3KuiqQ4zR6ihvvzIjX2mxsik/u0jSlmOa+3/2OpayHeCxVMcUxne1SRNr+HFwXawS9WNaIWGvkXGOeUqQ8xr93SodnwqITLfBi4gQAlz8u5M1D00EHNm7qJMrXxbWi0wfp3PvRVmFBEQDgKrnVFDFbRfnqPbJElHIoyHHs0N3lHlsvfihrOHq312tXIp6WGtN0KFwZ4eSraTrk1Da8AAAAV87tDQFs19RR2+u1WICjP7u5/0VHxTkAAJfLORxrFYfiiVKrj9Enye8Pf7Y8txxltQ2HDq01pikNUdQ4zylKMXcBAIAr5hCGALYr5xq1tr+IXCzC0WV8RaTc97EaZbXbmdOptUbU1M9vBfHa5m9zebgD6bw4Z9THQVlrlBreG086CQ8bcLY4B2utsayHjkxsy7oeivnmKSJP2y5wnKeIvc7QgCwFAE8KrpI/GALYppwjUietPRwrT5cP0O6PtjoshAMAcMl73zTev7OinLbs5u3OMznJ9i1rRKo15hyR8jYLdVJOMU/mMwAAcDkFOrBRUyfn0tda7ZSjO1tYILdwCABwhfe+XT8bH24rN1tK2M7XkHna3hyspcZ+Nc9GUkvEvkRMU+3qOPbryFOKZI0LAAC4LM83BLA9qaNdSasiATozTf3v+iurRUMAgMtssTDiVWqpsRbdclrN7bd2NNDFsUeMaV0j1lJjN22zm848HQqRAAAAXps3GALYYGB31ILdIjA9SSm63+3naCvaCSi/FcTAbTzYXB6OI2+wMOLrudihUKKKo2btNnS8Wq01lsV84/Ds3i/b7KaTkqOuAACAN1OgAxuTUj+7PMtqZY7OHppbONpqcR0BAC7LqeZ5u8U5CnM6yj020sGprAoW+Lp1PdyP5nlb3crylCKV6h4LAAC8OmcwBLAtU0c77CzQ0ZMtHHGwrhYJAQAus9voVqZSauz3upj0IKWIvJHjf/Z7xTm8Xq0R+/3h/rSp9QNbYgEAgNflC9WqDGxGShE55S5a/ZdSw/2HXuQckXPu+hiNUmssi5ijHbWmbk6OqjU8sxCv7f46hQbcqt2cIiJt6vi0Umusa3W8cE/zcNf/HCz1UBAGV7HfHzbFbOXIqxQpcqqxFjEAw+VOhgCAqzwvrDcPTQcd2JCpox12FinoyRaOOFCcAwBwyTvflDbTteT5d8D9XnFOb7lHP2XMr3bRrQmudb9aa+yXsqlYBgAAeJkCHdiQXnYalWqBmH5sYYF8WYruAgAAb5Dzdjo3RBw2RHz5tNgY0eM8zL3nHjX2NgfwlkqJeLovUTbSg2KeFOkAAAAv5f6GALahp6S/OH+eXh6SG1ggL6XGqiAOAOCNpo10Oqhx6EChe6J5eAr7RVEYt3AfqxH7p3UTRTrTlCKp0QEAAJ4zS5thG1Lu44zbWmssFuzo5SE55+6XBJ/6OEOzz4OImjr6rS4Z4lV8suF3vkPHxN7n0lqqwpye5+HU9zzc70tI9bnVXPZpjd0c3R89OE1JVykAhqazO7wmNgzBsHTQgS0Eck6ROtmS42grerHbwC7q/SLgAADemEul/jsmXrz3Kc7pV0r9HrFWaj0cSWT6cZR7W43S+eTKOUXWRQcAALjIEQwB9G+e+vmty2rVjg4ejjl1v0uvlKogDgDgslyq86LsUmt8+bR47+s+p++3OGe/r3ZFc1RbKNLptQAPAAC4fQp0oPcgTtFP9xzFOXQgRf/dc2qtWmjTRaz5rSAG4JTmqZ9OpK+yrofiCPrP6XvcHFCr+cfd2S+16zUlXXQAAHgpozIEI68DGALoW0877XTPoQdbONrK8QYAAG+Wou+OBvulyq/k9CdTa42ninO46/ve2neRzqyLDgAAEAp0oO8AThGpky04tVT1oDRvmlI3MfU661qjCDYAgDfquSh7vy/dH/fCeU6f+8s/FOdw0vtfx0U6SRcdAAAgFOhA16aOMvvFAjKtPxBT/zvaarWTGgDg0ve+HN0WZe/3RTH2hsxTj3PQBOTEc7DjIh1ddAAAgFlLC+hTShEpHz7IN69GlNU1o23TnPqIpzfYL9XRpXSj1ou/evmtrhnitdHXTPHJtc25v/e+WhVGbE0+/1Df01zcLzWqaUgjc3GOQ8FlV9JhPa8W1xAAYGzJetbI6wGGADoN3qmn7jmuF22bphSp841s62qRDwDgKu990dl7n+KcbZo7W5HbL1W+QVOWTgvGJudcAQDA0BToQKemjqK3OHKHhqUcMU19/zvUGrGKMwCAy/Oozt77FOdsU+6sUGyxGYBG7ff9dZHNObrfIAQAANwgJzAE0J+po+45xSIejdtt4Az4RXEOAMDledTc13uf4pzt6ql7Tik23dC2fYfzc5pU6AAAwLBrAlJs6E9ONWrtI5lfluoYRdp9CE7nm+06nqRLqQrh6FKNGtHJs6yGZxnitdV4rdWR3VxNioicoqvjUPZ7z59N5vO5nxyk1hr7xTWj8XlaDkewzR0VvaTk/QW2nTsZB3g5MoCv51oiY+B1AUMAnQVtjm564ZbiAUPbsZQ7P/u91hpldS0BAC7T29FWexsdNqun7jmKc+hFKRFr6euumSfXDQAARqRABzrT02LeqqsHLcfSFo62smAOAHCpFH0VZu+X2lWnH66upw03+8UkpC/retjE0ovZKVcAADCk2RBAP3KKSKmj40Cs59Hqw286fKjp2bLaVU3/eolDsQbtxmsSo1zB1NG7n+Icc7GJXKOYh3SaJy8RZ7teXq5S5FSjiDUAgOF4BRybDjrQkZ7asuvsQbNxlCOmzo+2KrXqUAUAcAUp+nn3W4sPtVuWU0TuoDynRI3VMbp0qkZf3Z+ylXkAABiONAB6CdYUkVM/RQUWlmlRim0cbbVXAAcAcLU8qpNNDiVqLIoitj0XO1mBW+UadK7UQ8FjD3rfPAQAAFyfAh3oJVg7itZFdQ6Nmnf9/zv0tBsQAODk73+dfPxc9q7VlvXSyWlZdXFiG5b1cPR6Dyar8wAAMJS5OlQa2pcics7dnEm4rNUBijRnmlKkSF1PzbXUbnYCwmVqR/FYI8I7M+K1TaXWEJ686f2vh+mxX2oUE3nT8tz+XKy1HnJ52Iin+4izXfuFcSlHVLEHW0qeAODKORiDrhEYAmhfT0fyrEVxDu1JaRtHWy265wAAXFkPXQnWUqMowN5+Tt9B9xydOtma2slRVzmlQ5stAABgCAp0oAM9nUm92vVDg+a5/9Wu/VJcSACAK8o5IqUOjhRSFDHAXGx/Hq5FNzK2qZd77DSp0AEAgFHMEnBoPEjn1E2bsxIRRQ0BrcXQLkWKvtsFrjViXV1LtqXWiNpJy7Vaw0crxGvD8So+eZWc28+jllVRxBhzsf1cZFnMRbZrv9aYG9+imlOEek0AgHFYbx58ncAQQNumjqK0KCCgtYdcjuh9I1qNiGXvTQ0A4KpSOnzsbJkCbHOxmblYLAyzbevS/raAFIf1CwAAYPu8+kPDemtx63grWrOFo60cewAAcM08qoN3wNU7npxevgHm+XOyY64AAGAICnSgYdPUz29dHW1FYy6OturZWh0bBwBwXTqW0MxcbHzVbdHFiUGUElEav+8m9TkAADCE2ZoQtOniaKteYnRZa7if0FL85BRdz8lSa+z3riXbVaNG7aSM7vBbQbw2+dtqiE+6yqNqrbFfXKcRXBSKtTwXFegwkmWpsdu1m3+k878UcAIAjMFr37h00IFWg7Or7jnVAgLNSGkbR1utPtwAAFz/XbDxVY5VQYSc3lyEkyj1sBGm6fuGlXoAANg8r/3QYmCmiNxRb9tiYY+GzHP//w7rWptvvw0A0KKp4fOtaq2OBh4srzcXobFcu/GNMI65AgCA7VOgAw2aOorMUhQS0I556qu47ZUxpdU8o6h+K4iBW+BDFh3lUTqWjCPniNRwXlIU5zCoUg/rWO0+x7zYAADA1inQgcakFJGnjrrnWNijlQdajpimDRxt5cMNAMDbvQ/qWIK5eCU2BDCy1u/Fk9V6AADYNK/80Ji5o6i0yExLpqn/f4d1rYreAADeUssbHRRhDzYXG87ry6o1IGMrpe0uOo65AgCAbVOgA60Fpe45cG2bONqqONoKAOBttdxxwMaGsaTU9vFWi7kITa9nJav1AACwaXNUO2egFdOUugrJZXH/4PRSjsg5d/842y81QkgxkFr7eebVevEXiNf2fpvnJ+fvhKndebqsniMjybnduVhKjVrMRVjXQ6erFovpUqSIqpIOus2dQnoCwBWeF7VaJxiYmnxoyNRV9xwPDtowT/33f15XHxcBAG4i53bfCR0pNJaWG3tK4+G5eGi4BiZPrg8AAGyVAh1oxNRZkcFqZY8W4mZOTbePv4pS6qFABwCAt9LycSDypvEoFoM+tHx/7n2dAwAAeD0FOtBKMHYUjYe22K4ZJ46ZKWLK/S9aOSoOAOCmuVS774QKscfScrGYLrjwktpuXKjPAQCA7Zql53B6hwXl1M1xg2txGg+nN+Xc/RGdy1rEEkPrKYbFKuK13d8lPkmNztFaqyPlR8tRUrt5/bJW90t4yVraLIZJkULEArAVciJ4TWwYgmHpoAMNmDqKxFqrnXec3Dz1v52slNr0mfcAAL1o9SiQ1bvegHOx3TzehxF4dV7ufgIAANwlBTrQQMLd09nSanM4tWlKTR9jcFWL4w4AAG4sO1KIpvL7NvMUxTnQ3716C0d6AwAAX6dAB06st04gq6ICTijFNhap9ovt1AAAtyE3WhChOGfAXKXhNGU1H+H192sVbAAAwB1SoAMnlKKz7jkW9Tixed7G0VbW/wAAbimnanRVwwff8UwN5/amI7wpR/d8AwAA7o5XfTihSfccuLI5p64K2l6lRnW0FQDALUrRagcd12a4udhqsZiNNtBlnLT6fAMAAG5GgQ6cLNGOyB0d1VNrDct6nCxeUkSe+l+cWhZRBABwW7KCCJrKWRotFtM+B64QJ63eV1wbAADYmlmeDqcxTSl6KnlZV8fycMKH1dxXvLxKWe2khufV5/7u4bd6BiJe2w0C8TmuFG2+IzrSdMC5mKLZfGVdXR+4PE5qTFN7vyunFIuiT+gxeQKANz8uqvWskemgA6cKvqmjH1sjVoUFnMg8p+53jdUajrYCALhlrR4pJHcaML9vNF+x4At9x4sOOgAAsD2zIYATBF5nR/XYccep5Nzu0QXXUvuLezi21NlvFcPP3dJqxGonL9DC/bnBW3NVnDPoXGzzPcF8hOu94zYXylIQAADYnNnSOpwgv841au0ny9ZOl1OZpo3s+kx2vsHL6rO/enl2u2ZfXbzqg99wl7xGq1+IatVFflQ5tfmeuJZqTg6Z5LeZ45uPcI14WWuTxXZiGLrLnkQueJqBpwVv5FMD3HXQ5YietsAUxTmcyG7qK1YAALhDjhSipenYaDW+dB76j5dsWQQAADZFgQ7csXnq6/eudshziodTjkhWoQAAeN37YqO/S0EErdA7B94iblRZAgAAR6ZAB+4y4FJETx1Baql2gHIS86Q4BwCA12vx6MGqOmfgPL/F+ejawLXjpsHbuL1LAACwLbMhgLszTX0d2LNY0OMEdrODrQBa5vPzmDybaXFOtjYvV5dl2MnY4j1SvRi8Xdw01/jaSxgAwAbTSAnbyHTQgbsKthSRU0fdc2q1oMedm6a+4gQAgNNIDb4z6lgybq7fZlLv2sAW7uOWSAAAYFsU6MBdBVtn0aZ7DnceIyli1rsZAIArvDe2yAaHMSXzETajxbCxSgIAANsy1ypjh6Mn0yki59zVBrZ1dW/gbk2zpn4AXaiHTnuMdM1T1NTqdKxhOo6ZYLV22Wup7o3ukeYjbEApEamlStCUomrRBj2lywBw+fPC+urQdNCBOzBPfe13UZzDKWIk6dsMAMAVtPja6NPpwPOxwZZOMnrY1v3ccgkAAGyHAh24i0Dr7NieVS9s7lBKEdNktQkAgKu/P7ZGcwOamo9SethU/CjQAQCA7VCgA0fWW/ecUhwTwN2y0AQAwLXeHxv8TVXPkiHlRlfViqQe3v5+3mD8WDYBAIDtmK0hwXHl3Nc5gsta9cPmTjlrE6Cz+/azvxjrmrd50Ws1H4eU2nt/LKvLIpdxb4QtKGtEndoKoHR48Lk40E3yBABXeFx4ZgxLBx04ZoB11j2nVq3ZAQAArpdIGYJhc/5G24HK6wEAAKBNCnTgiObOImy1iAcAADQsNZhjqc8ZeD4aAtik5prVuNkAAMBmKNCBYwXX1F8CXVZLywAAANehWwlNzUdpPWxOUqADAACbMcvb4ThyZ8dDr6Xa+cnJWEQG6Ome7Z1hxGveauV5Dd1L5FmnV8J9cVipRq1t3R+L3B5ubC01ptxObHv/hp7eDSQoAFzl/c7jYmQ66MAx3sNzROpse8u6um4AAADXVayq0RDTEbYnaaEDAACboUAHjmDq7WgrK8oAAABvRTdIAPd1AACAq1CgA7ctReTcWfec4rJxQha+AADvEVxRk6mWeThu+t/gfFRYAOIIAABolwIduGVzZ1FVa7XwAAAAANfWXoWO/B7cbgAAgHYp0IHbDirdcwAAAI6jsXSrqoYA2JwWb+3qcwAAYBsU6MAtmrqLqBpFgQ4AANCJ5BMlvDnLVzMGAAAAzZrt9oLbM3VWobOudnxyeilF2AsG0I8a3h/Gu+Ytl0Q4rnXAt8emfk0p7onmY2N3RfMRNhrf3nmgm4QZAORuvIEOOnBLptxfgcGyuvkDAAAAAAAAwLEp0IFbMk19/d61KM4BAAD6kTRdpCHZihpsWmlsR3P2EAQAgE2YfaKHmzt0z0ldtZpdlqrjJk2oNbRpBujtvm0YXHO/jRNI0d5741rkVfKYxn6XSwObfMfwzgOd3DsMAbzyGQa8HBfWEkZmvw/cRiB1FknFjR8AAAA2pfj6AQAAAE1ToAM3DaLUX5vZ4ngrAAAAAAAAALgzCnTgpkGU+yrOqVFjLa4bAAAAAAAAANyVORkDuJGcU1fHRZUSIe5pjZ5OAH3xLuFZbT5iLp7/nmoOmo/uiSDG7ya4xTcAwDYkudvQdNCBG5in/m6f66oUAgAA6E9Klq8AAAAA6JcCHbiB1NvxVkVxDgAA0Gn+pT4HAAAAgI7N1fd6eCvTlKK3g3n2a3WWEI0yMQG6uWPXwx/GuuYpVfORJq53a++N5p88xj0RvP+Ib6DdtwMAWn1WeLcblw468Jamqa/fW4rsAAAAAAAAAABOQYEOvIVD95y+rKvqHAAAAADojWMeAQBgGxTowNsETmeRow0uAAAA3G6eDQAAAHAds/UEuJ58vmOlp8W4ZalOt6JpFrcBurpre68Y8ZrX1Ogvc4rraC+Nrc1F808e4xkN3n/u5NcU8Q2d3DoA4EqPC4+McemgA9c0Tf395uIuDwAAAAAAAAAno0AHriGliNTZoc9FdQ4AAAAAXFlv638AAEAfZkMA1wiYDrvnrKvrRvuqM65gOL0teLtPPT8WxgAA2n2/8qAGAACAVinQgSvqtXuOpTlaV2vEfjEOMJrdVCPlPp6rtdTYK3hl6Id1RNhEDgAAAABwI464giuaOoyWtbhuAAAAcAzVkdKwSeqSAQCAY1GgA1dMzHPu7ygOR1AAAABbscpvALgLKnQAAIAjmasv+HCpPKXuil2W9VCkAwAtqpGil3MYa3imIl7bjVdF6SNJKaLWtr6aej64P7Z2f0ypRtFNFzb3vCmeOdDHu0ESp/Cqt2bgpaio3u1GpoMOXMGU+9s6U7TaBgAAgOPl3dJu2CgtdAAAgONQoAOXmKb+kvLVKiEAAAAAXFtqcCnQDmsAANgGBTpwWZB0GCW65wAAAMgXGU9KOn8AAABAq2ZH/8HrpfPuObWjQKnl8AcAmn5ePfd3F7/VOzPitc3fVsXnUHOxtpebmYNjK7W2t/PNnIQbS8nzBrhR8gQAlz8wPDOGZa8XvMHcYYQ43goAANgiGxFob1I2+Js00AEAAIBmKdCB10g5ulvYqtWiNQAAwF3JjhOiMaYkbDOOrPcBAMA2zN7t4dV2+bx9bEfWtYaYBqAHtdbopRK2Vs9XxGur8VpriM/h5qNnBA0pEVNrczLMSbiJFG2uB4prAIDtsJ41Nh104FWBkSJSd9vOaqzu5gAAwKa19dVUtxJak5xxBRu8rzvOHgAAtkKBDrzC1GFklNV1AwAAtq25rgZqIczJ6sM5bElu8XgrtxkAANhOzmEI4EUpIlLub5V10T0HAADgbvNHBTo0+OE8m5fgvg4AADRpNgTwUlBM/W2CLMVWGgD6kkLTARCv8BZqax9PUzh6ZPgp2dzut5QjQpddeLv4Se2991j2AwCA7dBBB14Oig63mq265wAAAANo8RulbiWDz8kGJ6UpCTeIHy10AACAI1KgA8+Zp/5+c63VThoAAGAIUh/ay8nb+02KxmBbsVM9/AAAYDNmq1vwXCKeU3chsaxhlRqA7tQa3WzvrtWzFvEaSXzShrJG1Ma2GqUUEbqajjsna4O3oZR80Ye3kdt8rSjF+w50lkEZAgA8LnhT2gFEROQOo6HWekjSAQAAOAmnoQBsgw46AADA0fMOQwAHU4fHW62KcwAAgIG0+JFSgQ61wXOnzUsQNwAAQHsU6EAcuuekDrPwsrp2AAAAp5R80R1ei3tnshU/uObNvM37eYsFgAAAwNubqwPOIHJO3bWLLaWG+AWgVzVSN+fs1gjPXMRrbfW3ic4RldLgR9RUHUEy9JxMTR6N4w4JV5dTm2uDpYpl6Cp3Eq4gLuCKceEdb+DcwxAwupT63PG4rG7cAADAeFpc4M1ZF52x52Q1J6FzrYaM1T8AANhY7mEIGN3U4aJVVXIMAAAMqsVsSCnE4HOy0RTd6Wtwda0WtRVHXAEAwLZyD0PAyFL0uatslZwD0Lvqt4IYgLeckrqVYF5eSVKhA1eMlZbvLa4PAABsiQIdhjZNHS5W1RqluHYAAMCYdCuhRS3uo1E3BleNFcECAADcUf5hCBg6ALrsnuO6AQAA42q1QMcHXvOyuTmpQgeuGCuN3ld00AYAgO3lH4aAUU2dLlQ53goAABhdm8cJuS5Dz8lGc3XzEi6JkWj3ODhLgAAAsD2zc2wZVc5tLuq+MTEvzp4GYBtqRDcPtRqev4jXloNAfI6plIic27r4KZmPo98r2ywcS1F85YfXylNqdn2w1Oq5At0mUADwpkeF97yhcxBDwIh0zwEAAOhXq5nRZJVlaKXBI6mdcgX9xkhxzD0AAGwvBzEEjKjHRVPdcwAAAA5a7XaQnCc09rxsck465gp6jA9rgAAAsE0KdBjOlNPhgOnOFJk5AADAIT9qtKtAtsoytFYLx7IKHXilljtsWwYEAIBtsnTEcFLuL8OttWprC8Cm1I5WnKvVccRrw7/N9RlZq5sYFOkMPCdLo/fM5GYJrwyNhmPDRj0AgA3zqjc0y0YMlnj3uXNsVZwDAADwgla/XWpWMrbS4LxsuUsInErObR9LaKMeAABsNBcxBIxk6nTGS8oBAABe1GqBjmII87JFOjvBSzHR8K1aB08AANhwLmIIGGrCd7hQuq6ScgAAgJe1vJFBjY552dyctAIIL8VEw91zLAUCAMB2cxFDwCjmqc/f7XgrAACAV2u1y0CeXJuRlQa/rueUHL8G51pfI6zWAgEAYLMU6DDOZO9wC2OxZQYAAOC1mj1OSDGEedmgySogHO7Rja8RWg5DtDHsAAAgAElEQVQEAIAN5yOGgBH0ugilew4AAMDrtXzMlWKIca3NHnOlagxavzfbrAcAANs2t9oOGm5Tyrm73Se1Vkk5AJtVI3XzbK7R7hEqMHq81lpDeI5trRG5Nlp0kFJEFHN01LlZIlKDbZRyilitNTCw1tcI1yL3gN6zJ0BcwFWiwjvfuOznYvOmTneIFd1zAAAALtXyotakY8m487LZLjquDePq4Z7sQw0AAGybtJztT/JOZ7nuOQAAAJdr+VtmyimSGp0hlVYnZkqOumJYeWp77usMCAAA2zd76WfTiXdOESmitxZ6ZQ0JOQCbVmtESrWb3+q5jHhtMwhqiE8Ox/W0vDEj5xTLYqKOeO8sjc7NlCPq6hoxlnlK0fr6YCnea6D75384zAeAq+WL3vvGpYMOmzZNff5u58EDAABcTW38g2bOoYvOoFo9ujqnQ5EOjCKliNzBGuG6Wg8EAICtk46z3eS700VQu2UAAACup/UcappU6Iyo5aOrJ8dcMZAe7sGtFvQBAAC3S4EO202+O11s0j0HAADgekrjeVTOOpaMOzfbnZNZkQ4DSDmaPgax9XsFAABwu2alAGxRTofuOb11oqm1SsgBGESNWlM/v9UFQ7y2+tPEJxERsZaIqfUuOjliL98bb26uNVKj7X1zrrGak2zcnPtYH7RhDzaTOgHAlR4YHhnjsn+LbU7sTme24hwAAIC3zafaXt5KKcVkFWa8eVkPm3GanZOTa8R2zVM0WyDX0/MLAAC4PZaG2JwUfbZprtXONQAAgLfVw4aHaXKkkLnZ2Jx0zBUb1dP6oA17AAAwDgU6bE6vu7+qZByAkVS/FcQA3K6WO5U8b9axZDitb8YxJ9miXuZ1rTU00AEAgHEo0GF7k7rT3V+LAh0AAIAb6aELQc4pNC0ZcG6u1ZyEOzLniNTJpNZNGwAAxqJAh80l4D1y1jQAAMBt5Fad5K6zaojRtP4RftJFh43IKSJ3dJyg460AAGCwnMUQsKkJPfW5yLmurh0AAMBN1ehnA4RjhczNlqSUut30BM/rqdis5c5aAADAccxVHsBG5BzR43x21jQAI6rP/urjt3pnRryKT/qxlojUwd6NlFLkXG3YGMiyRuwanpspp0i16uhBt3ZTRETq5t1g7/4PADCkWq1njczeGDZj6nQ2O2saAADg9pRy2AjRRx6bIluZGUatEbXxHTqT+UinpulQZNbN/cBuPQAAGJK0m21M5HzYfdibamcaAADAretpI4SCiLEsjc/NlNJ5FxLoR86Hgkf3AgAAoPn8xRCwBb0uaNosAwAAcIRcq6MPnyml2M2u2Sh66KKTdHaiIylFzFNfxTm1VEcaAADAoOYasgH6llNEpNzlTF5W8QfAmGpNEamX3xrhnRnx2upvE5283rpG5F4+2qYU81RjL0ccwn6N2DXe7WOaUtRabCyiefOUunsX2K/eXwAYh6JUeE1seCMclv0wdK+3FrbPbrxWuQAAAI5m6SznSjl1m99yzfWATtYE5tmyIW3bTam7I+9r8SkGAABGJtOma4fmOX0uYOqeAwAAcFyls7xrmhTpjKKXbkm72Xyk0bk5pS7XBHVKAwCAsUmz6do0ddo957ynn/gDYFipr9/qmY149fPo01pqP8dcPZ/n1oiiF/zmlbX9+ZlSinmKWBUV0Nh9ssfinLJW7y0AABxyLUMwLB106HsCd7qz0MIWAADA3Sgd5l/TnCIny3Vbt5Ya0UEhVs6p2w1SbM80pT7XA2s9xDwAADA0BTr0m5D32va71rAREgAA4G70+kFUkc4g87OTAjJFOjRxX+y1OCci1tX1AwAAFOjQ8+SdJOQAAABcrqyKdGh0btavjsFuXc7mIye8H3ZcnFNrdWwhAAAQERGz3IAe5Zyi1zY02tkCQETUZ3918Vu9MyNe2wyCKj65omWtsUsRPdYWTFNEXVMUueRm7ZcaZ7P5CK8zTylyim4f+suimzYMlToBwGXPC+tZQ9NBhy5Nnc7ctbh2AAAA8rHrmaeOj3nmcjViWfuaj7Pjrriz+ZYid7yCvRYfXwAAgK8o0KG/SZtT9NpRWfccAACA0yil7w4Gk6II87MhOZuPHN9u7rs4p9aIdbUWCAAAfMURV3Qnpxo1+lsEKmuNqoMOAERERK21m3NGatWSHvHaarzWsCud69mvNXZzv0UFKUfMKWK/dy3Nzzbm49RZ9x96mVwRu/nwf2vnMe09BQCAl9XwnjgyHXToKz/PEanTtt42zAAAAJxWLf13M0gpxW53yI8xP08tT4f5CLd2j8sRZ7sUKfXdoWm1UQ8AAHhVHm0I6Emv3ZNrlZQDAAC0YF3PO0N1LKUUuznFNLmem5yfnR2PnVKKs7OkaIwbyzm67nJ2odYaq85SAADAq/IeQ0A30mFnVo8k5QAAAO3YypE805RiVqSzOfulz9+9m1NkK428pXmKmDdQnLOlZwwAAHD7pM10laj3quieAwAvqH4riAE45bwuEWvZxuy+OGJI95Jt2S99zs95TjHPrh9Xl3LEvOt3U97LHG0FAMCl78CGYGiWb+hnsuZeu+f4pAEAANBcrrb0f9TVhWdHXimM2Ixa+l1PyDnFrGiMK5im885LaRufKIqjrQAAgMtyZkNALwl7t8m5XTMAAABN2toxJFPWTWdL1jWidNrpKV8UjTmCjdeY58MxfZuK2cV1BQAALsmFNCynBznn6HFjYyl1MzsyAeBW1dTPs70++wvEa3O/TWxywylUDkUQvXZsfbUU8xRRUtXRdQOWJWI3R0SnHUZyTpGixmIu8tycuCjM2dJjfFmK1xLgfO3AzQC+HhfA16NCbAybExkCmp+kHe+m6XWnGwAAwCjWtUbdYO6Wc4rdLm+s+GhMvRe3pPO5uLVuKVzfPKVNzoPDBj3XFwAAuJwCHZrXa95eq+QcAACgB1vu7jFNKeY59dqAhTh0GVnX/s/PztlcHNU0HYq0Ut5mcY5uZQAAwJVzY0NA0xM0p27bOJfi+gEAAPRiWbabxKWUYp5zzDqYdKuU2EQRwMVc1E1nDDlH7Oa02U5etSrOAQAArmfW4YOWpXRIdvvL0EOCDgBvflRGL63maj8/FYaL11rFJ7c7n5alxjRtOcmOmOd0KPYo1ZH3nblYZ8gb2G6Xnp+L1k+2d6tJh645KfX13n9d+725C3z9fRIArvK88MwY12wIaDmZ77XtcXFTBQAA6C+XKzVSSpsogHiTnA8daxXq9OdQzLKdOfrCXFSo078UMU9jHGO2LOYrAABwfQp0aFbP7Y4tKgEAAPSbz6U0xgfmi+KIet4F1g4+c/TUc1GhTp9SOly/rRc3XlgW90sAAOAt819DQJuZfcfdc4rLBwAA0LPRPr5eHDc0zylyTiaAOXoyOUfsdqnrTVsjefHeMca/87o6jgAAAHh7s3yCJidmxwsxpVbdwQFgYzzboVHJRzKOZ7/UONuNVSSQUsQ0HTraFl11upiju12KLc7SZx116uHoOZuhWrs+KaYpYrQyqmU9zEcAALhR7h3Wm0fmiCvauymliF437NWqgw4AAMBWLGvtegPJTeQUkefz46+Kj9Kt2u+3W6TzbB5OKep06FxiHp7wWpwXTY3aZEtxDgAAcBsU6NCcntsYr4pzAAAANqOUiCXGLdKJOD/CZoqISTeTVm29SCfisMPUPDyNaTocXzXyoWOKcwAAgNuiQIfm9N09R7IOAFd6bkY/i/ye7ojXduPV0TvchVIi9rXGbk7Dj8VFN5OYvuqqIw7bsN/XmOcxupu8PA9rVaxz62N83iknZ2OhOAewiACARwW3SYEOTZk6XkmyGAQAALBNtUbsF0U6L+bvX+XwpUQURRIntyyHbk8jFVVMOSLiUKxjHr69FIeinJRj2COsXhlTinMAAIBbpkCHpvS8iLRK2AEAADZLkc6bc/n8QpFERC3VrsATWNYac6QhO5+8MA9rRD0v2NHl6fXjldKhU05yW3tFLCnOAQAAbp8CHRpaGEjdLgjYnQUAALB9inSukttH5IiIKR2KJKqjsO7astbINcU8DTwPU0RMEdP5IY0XBTs1xuywkyIina+7paRLzmX2i3sWAABwHLNkg1bkXKPUPlcIllXiDgDXUWuNEqmb3+o5j3htM15rhPjkBDER8XRfY5ojUvjKfZmUIqYpffVMLRElDsUSHM96vk5xMfZEpHyI2UN3ocP4HIp2zv+ULf17XhTlHLrkvExjmNdb1ur+BNwoQXGLBeDydQXrzSPTQYcmpIszw91EAQAAaD4PjFj2EfOuKtK5Tu6fUqTposOOgp1jK+cdYw6ddMzTl2bjoZvM812GpsN4Rf1qPl5My9bmZzo/wiw//9+TosEb3dejxrI3DgAAwHEp0KEJU8dnozveCgAAYEzLPmKeaiTnxbyVrxXsRI0o58cRhaKd21BLxL5EzHN9ZScVXpqThyqXZ4U7z5arzv97fa41Qr1ovXPutqbry0tk6VkVjgKc48VJjWU1DgAAwPHNVcM9TiyniJT6rNCptcaqLzAAvMUz9LBruY/fev4xBsRrkwEqOjm1/Rox14jsKKEbS5Ei8rNaiIgpopxX61w8j6XgbzlPl4g5m6e3MkfPh/DlZ2M2PF0qa43FjQW4vQcF8PW0HXg5LsJ688h00OHkcsc7uHTPAQAAYCk1plpjmn2iv235he5Eh/9can3WrqSeF+r5vm6ewnWtS4nVvQMAALhDCnQ4qRR9797SPQcAAICIiLVG1KVEnlLXG1F6kFN6rs3OV2P9YuGOjjuvm6dlX2KazVPGVWqNsro/AAAAd0+BDic15Y6759hiAwAAwPN5Yo0oS3WU0Im8WLgT8ULxzvlRWRFfFe/Ur/7RUGpELOYpo96nHWkFAACckAIdTkr3HAAYU/JbQQzAhi2lRo6IWfFDM/LXNgh99d/reaVOjXhWsVNqPf+/G5+ntcY0pUi66TDCvXktjqsHAODkZF9jU6DD6SZfz91zSg3lOQAAALwpb9yXGvOs+KF1KaWI9OIiaX7Fkmk9r9Z5oZAn4tCSJ6LLjjzPuj5Nrypigm2opcayWssDAABOT4EOJ9Nz95yiew4AAACXqBGxd5TQZqTzApYXC3le/ifPXf/n1g6eL+qJeLGw59k/O+FSw7LWyEU3HbbHkVYAAEBL5io/4QRyTocW0h2qNWLVDhcAbvw8jU7eBWrt5qfCcPHa0a2Ewe3X86OEcgq1DwNJL/3H5/779PL/g2f/7BX3uvLm++B1lDfcNGscCnWmFJGyy0f/7y9rqY60Au4+dwKAKzwvPDPGpYMOJzF1vNCjOAcAAIDrKuXQjXWeUmTFD1zDm4plrlvvlUOFGGPcb5fVFw8AAKA9CnS4czlHRMeVgY63AgAA4G0ta41UIuacdCkBuEW1RCyl2o0MAAA0S4EOd66UiBIyZQAAAMZU68WxV+HYK4BbuKc6zgoAAOjBPE8GAQCAu5VzdPMxsmZV7YjXVuM1p4gsp6VztdZI4dgrgLdRyuE+6p0AaIGiawCuIucINRrjmt/5hhUgAAB4M6ts0KIzsQkAeB8AGjH52ArAFdy/n0KNxrhceQAAAAAAAAAAOKLZBgMAAAAAAAB4e9UQAHDV54UajWHpoAMAAAAAAAAAAEekQAcAAAAAAAAAAI5IgQ4AAAAAAAAAABzRXItBAAAAAAAAgLdWDQEIDLhaWKjRGJcOOgAAAAAAAAAAcEQKdAAAAAAAAAAA4IgU6AAAAAAAAAAAwBHN1dl/AAAAAAAAAABHp0ZjXDroAAAAAAAAAADAESnQAQAAAAAAAACAI5ojklEAAAAAAAAAADiiw+FWajRGpYMOAAAAAAAAAAAckQIdAAAAAAAAAAA4IgU6AAAAAAAAAABwRPP5IWcAAAAAAAAAABxLPf/DkHTQAQAAAAAAAACAI1KgAwAAAAAAAAAARzQX/ZMAAAAAAADgrfnaBsCVnhe1hhqNcemgAwAAAAAAAAAAR6RABwAAAAAAAAAAjkiBDgAAAAAAAAAAHNFcHW8GAAAAAAAAb6/WiPDRDb4WFsCLcSE2hqaDDgAAAAAAAAAAHJECHQAAAAAAAAAAOCIFOgAAAAAAAAAAR5YMwdAU6AAAAAAAAAAAwBEp0AEAAAAAAAAAgCNSoAMAAAAAAAAAAEc0GwIAAAAAAAC4oWoIALjkUeFZMTQddAAAAAAAAAAA4IgU6AAAAAAAAAAAwBEp0AEAAAAAAAAAgCOaq0POAAAAAAAA4EZ8cQPgKs8KNRrj0kEHAAAAAAAAAACOSIEOAAAAAAAAAAAckQIdAAAAAAAAuAGHlQAAl1GgAwAAAAAAAAAAR6RABwAAAAAAAAAAjkiBDgAAAAAAAAAAHNFcHYoJAAAAAAAAAHBUjx7OoUZjXDroAAAAAAAAwA38/Uf3DQIAb/TR+2dxb6dEY2SuPgAAAAAAANzAP/roXYMAwBt9/0PFnKObq/5JAAAAAAAA8NYePTyL33/vXvzy8y8NBjzjOzQ879MP74f6jLHpoAMAAAAAAAA39J/86KFBAOCVfvjJO/HgnclADE6BDgAAAAAAANzQD777bnzy+98wEAC84N4ux5//0QMDgQIdAAAAAAAAuA3/7U8exf2dz28AfOW//OP34t6cDAQxRzIRAAAAAAAA4Kbun03xz/7T78S//Ff/TzzZFwMCMLg/+9GD+PTD+waCiNBBBwAAAAAAAG7N7//evfjP/vjbBgJgcD/85J348fe/aSB4ZjYEAAAAAAAAcHv+yT/4e3H/LMX//L/+W510AAb04+99M/7sjx4YCF4w12oQAAAAAAAA4DZ9/w++Gf/sz3fxL/8Xx10BjOSf/vhh/PCTd0MtBi9zxBUAAAAAAAAcwaPfuxf/w3/zUXzy6BsGA2Dj7u1y/PM/ez9++Mm7BoNXUqADAAAAAAAAR3L/bIr/7s+/Ez/50XsGA2CjvvfhN+Iv/vNH8ejhmcHgtWZDAAAAAAAAAMf1kz/8vfhHf/Bu/E//27+Nx59/aUAANuDeLsc//fHD+PRDndK43OzgMwAAAAAAADi+R++dxX//X3wY//tnv4m//KvP48m+GBSATv34e9+MP/33vxn3djnUXXAVOugAAAAAAADAHfqTHzyIH/2Dvxf/6v/8/+Jf/82/MyAAHfnut8/iz/7Jw3j0ULkF12PGAAAAAAAAwB37xi7Hf/0fvh8/+cP34i//zecKdQAa991vn8Wf/uNvxcfvnxkM3ooCHQAAAAAAADiRh+/OCnUAGqYwh9syOwoNAAAAAAAATuvBO3P8V3/yfvzkhw/jL//Nr+Ozn38RT/bFwNAt36Hp3acf3o8f/8N346P375nT3Ir0L/7ij0wjAAAAAAAAaMjv9mv81d/8Nv6Pz34Tv/5iMSB05+zefYNAd+6d5fj0O/fjT//xN+PBNxxIxO0yowAAAAAAAKAx39hN8Sc/eBB/8oMH8dkvvoi/+pvfxme/+MLAABzBBw938cffezc+/c79uLfLBoSjUKADAAAAAAAADfvBH7wbP/iDd+M3Xyzxf/38C111AG7BvbMcf/jxN+KHH78Tjx7uDAhHp0AHAAAAAAAAOvDg3flZV51ffv5l/Ov/+7fxV3/z7+LJvhgcgCv64SfvxKffuR+ffscxbNyt9C/+4o+qYQAAAAAAAIA+ffaLL+Kvf/538dnPv1CsQzPO7il+oB3f+/B+fP879+PTD+/HvdkRVpyGAh0AAAAAAADYiM9+8UX89PGT+Ouff+EYLE5KgQ6ndO8sx6ffuR8fv3+mKIdmpP9RgQ4AAAAAAABszuPPv4zPfv5FfPbzv4vHv35qQLhTCnS4aw/eneLTf+9+fPTBvfie46to0GwIAAAAAAAAYHsevXcvHr13L/7jP/y9eLJf469//nfx08e/i89+/nfxpaOwgA343of34+Nvn8X3vnM/Hryr/IG26aADAAAAAAAAg3n8+Zfx08dP4rNffBE/e/zEgHDrdNDhGD54OMfH374X3/vwfnz0/j0DQlfmWtXnAAAAAAAAwEg+eHgWHzw8iz/+/rciIuKnj5/Ez371u/jZ4yfxs18p2AEauVc9mOOjD+7FR98+i4/eP4t7u/zsf1PrQG/0eAIAAAAAAIDBffLofnzy6H7EDw///aJg5/HnT+Onj584Egu4E9/99ll8/P5ZfPBw97WCHOidAh0AAAAAAADgBc8Kds49/vxp/PLXT+Nnj38Xv/zbp/H4108NEnAj33pnikcPd/HRt8/i0cNdfPf9M4PCpinQAQAAAAAAAN7o0Xtn8ei9s/jR3//ms3/208dP4vGvv4yfPX4Sv/z8afzmi8VAAa90b5figwc73XEYmgIdAAAAAAAA4Nouuuz8B99/EBERT/Ylfvn5ocvOb75Y4v/926fxK512YDgXnXE+eDDHo4e7ePRwF996ZzIwDE+BDgAAAAAAAHBj93c5Pvngfnzywf0X/vlPf/UkfvPbJX7566fx+G+/jF9+/jS+3BcDBhvw3W+fxYN3LwpydvHo4awzDryGAh0AAAAAAADgaD754H7EBxE/eu6fXXTbefz5l/HrL1aFO9C4i0KcB+9M8dH79+Lhu5OuOHBNczUGAAAAAAAAwB26t8vx8Qf34+OXuu08eVri8XnhzpN9iZ8+fhJPnhZHZcEd+NY7hwKcRw93cW+X4qP378W3zotyXkWtAVyPDjoAAAAAAABAE+6f5fj40f34+NGhcOc/+uFX/9vjz5/Gk6clfvar30VEKN6Bt/ByEc4HD3dxf5fju++fGRw4MgU6AAAAAAAAQPMevXcoIHhV8c5vfrvEr784/PnNF/v49W8v/vPhD4zi3i7FBw92ce8sx6MHc9zb5fNinBwfPFQeAKckAgEAAAAAAICuPfjmHA++OcfHr/nfLwp4nuzXePz5oePOTx8/iYhDZ54v98Ug0oXvfvtQqHbRAefBu1M8eOf/b+/+dbMgwzgMvx++BUwT6SAwaIybi8fg+R+GbuKgmEgsFPo4QP+INVKSOxG4roX2C+3wrL3ze7cABz4A28NwAAAAAAAAwMfswfFeD45fxwvffXW81lrrh+///n9Oz16tn399He/89Mvpm8/OL4OeJ78+X6dCnlvwh+jb+PpNeHP/7p316IujtdZVhHP/6M56dHLk5PCBk9ABAAAAAAAAn7z7R5+tbx9/vtZal//+mx+f/Hn59UXM8/bXgp5P28MHr+OatdZ6fHJ33dsXX199/ujkaN0/uuNY8IkQ6AAAAAAAAADcwvWA579inrXWevrs5Xr6x9nl90+evlinL67inethz1rinv+Li1WbC9dDm9ffX8U277xyA3yyBDoAAAAAAAAAoZPjvU6Or/40+y5Rz9uur/ZceDv0ufz8t+fr9Ozf3zv66Ybf9SG6vlJzk2++vHfz5w/v/uMzazZATaADAAAAAAAA8D93U9TzPqHPbT199nL9/uzs1j939uqw7u7DrX7m3tGd9dgKDfCREugAAAAAAAAAcKO3138AeD82ugAAAAAAAAAAILTPxxEAAAAAAAAAAKBiQQcAAAAAAAAAAEICHQAAAAAAAAAACAl0AAAAAAAAAAAgtGfGFQAAAAAAAAAAIGJBBwAAAAAAAAAAQgIdAAAAAAAAAAAI7bU8cQUAAAAAAAAAABULOgAAAAAAAAAAEBLoAAAAAAAAAABASKADAAAAAAAAAAChvdbBFQAAAAAAAAAAIGJBBwAAAAAAAAAAQgIdAAAAAAAAAAAI7XEDAAAAAAAAAADIWNABAAAAAAAAAICQQAcAAAAAAAAAAEICHQAAAAAAAAAACO05H1cAAAAAAAAAAICIBR0AAAAAAAAAAAgJdAAAAAAAAAAAICTQAQAAAAAAAACAkEAHAAAAAAAAAABCAh0AAAAAAAAAAAgJdAAAAAAAAAAAILTHDQAAAAAAAAAAIGNBBwAAAAAAAAAAQgIdAAAAAAAAAAAICXQAAAAAAAAAACC0ZxwBAAAAAAAAAAAqFnQAAAAAAAAAACAk0AEAAAAAAAAAgNBeB0cAAAAAAAAAAICKBR0AAAAAAAAAAAgJdAAAAAAAAAAAICTQAQAAAAAAAACA0F4zrgAAAAAAAAAAABELOgAAAAAAAAAAEBLoAAAAAAAAAABAaHvhCgAAAAAAAAAAOhZ0AAAAAAAAAAAgJNABAAAAAAAAAICQQAcAAAAAAAAAAEJ71rgCAAAAAAAAAABELOgAAAAAAAAAAEBIoAMAAAAAAAAAAKG95uAKAAAAAAAAAAAQsaADAAAAAAAAAAAhgQ4AAAAAAAAAAIQEOgAAAAAAAAAAENrjBgAAAAAAAAAAkLGgAwAAAAAAAAAAIYEOAAAAAAAAAACEBDoAAAAAAAAAABDaM+MKAAAAAAAAAAAQsaADAAAAAAAAAAAhgQ4AAAAAAAAAAIQEOgAAAAAAAAAAEBLoAAAAAAAAAABASKADAAAAAAAAAAAhgQ4AAAAAAAAAAIQEOgAAAAAAAAAAEBLoAAAAAAAAAABASKADAAAAAAAAAAChPeMIAAAAAAAAAABQsaADAAAAAAAAAAAhgQ4AAAAAAAAAAIQEOgAAAAAAAAAAEBLoAAAAAAAAAABASKADAAAAAAAAAAAhgQ4AAAAAAAAAAIT2+YwrAAAAAAAAAABAxIIOAAAAAAAAAACEBDoAAAAAAAAAABAS6AAAAAAAAAAAQGjPOAIAAAAAAAAAAFQs6AAAAAAAAAAAQEigAwAAAAAAAAAAIYEOAAAAAAAAAACE9jo4AgAAAAAAAAAAVCzoAAAAAAAAAABASKADAAAAAAAAAAChvcYRAAAAAAAAAACgYkEHAAAAAAAAAABCAh0AAAAAAAAAAAgJdAAAAAAAAAAAILRnHAEAAAAAAAAAACoWdAAAAAAAAAAAICTQAQAAAAAAAACA0J7ljSsAAAAAAAAAAKhY0AEAAAAAAAAAgJBABwAAAAAAAAAAQgIdAAAAAAAAACubq/0AAAcxSURBVAAI7TWOAAAAAAAAAAAAFQs6AAAAAAAAAAAQEugAAAAAAAAAAEBoe+EKAAAAAAAAAAA6FnQAAAAAAAAAACAk0AEAAAAAAAAAgJBABwAAAAAAAAAAQnvcAAAAAAAAAAAAMhZ0AAAAAAAAAAAgJNABAAAAAAAAAICQQAcAAAAAAAAAAEL7MI4AAAAAAAAAAAAVCzoAAAAAAAAAABAS6AAAAAAAAAAAQGjP8sYVAAAAAAAAAABULOgAAAAAAAAAAEBIoAMAAAAAAAAAACGBDgAAAAAAAAAAhPaMIwAAAAAAAAAAQMWCDgAAAAAAAAAAhAQ6AAAAAAAAAAAQEugAAAAAAAAAAEBIoAMAAAAAAAAAACGBDgAAAAAAAAAAhAQ6AAAAAAAAAAAQ2uMGAAAAAAAAAACQsaADAAAAAAAAAAAhgQ4AAAAAAAAAAIT2nHvkCgAAAAAAAAAAKhZ0AAAAAAAAAAAgJNABAAAAAAAAAICQQAcAAAAAAAAAAEICHQAAAAAAAAAACAl0AAAAAAAAAAAgJNABAAAAAAAAAICQQAcAAAAAAAAAAEICHQAAAAAAAAAACAl0AAAAAAAAAAAgJNABAAAAAAAAAIDQnnEEAAAAAAAAAACoWNABAAAAAAAAAICQQAcAAAAAAAAAAEICHQAAAAAAAAAACO1xAwAAAAAAAAAAyFjQAQAAAAAAAACAkEAHAAAAAAAAAABCe8YjVwAAAAAAAAAAULGgAwAAAAAAAAAAIYEOAAAAAAAAAACEBDoAAAAAAAAAABDa4wYAAAAAAAAAAJCxoAMAAAAAAAAAACGBDgAAAAAAAAAAhAQ6AAAAAAAAAAAQEugAAAAAAAAAAEBIoAMAAAAAAAAAACGBDgAAAAAAAAAAhPYaRwAAAAAAAAAAgIoFHQAAAAAAAAAACAl0AAAAAAAAAAAgtL1wBQAAAAAAAAAAHQs6AAAAAAAAAAAQEugAAAAAAAAAAEBIoAMAAAAAAAAAAKE9M64AAAAAAAAAAAARCzoAAAAAAAAAABAS6AAAAAAAAAAAQEigAwAAAAAAAAAAoT3jCAAAAAAAAAAAULGgAwAAAAAAAAAAIYEOAAAAAAAAAACE9jo4AgAAAAAAAAAAVCzoAAAAAAAAAABASKADAAAAAAAAAAAhgQ4AAAAAAAAAAIT2jCMAAAAAAAAAAEDFgg4AAAAAAAAAAIQEOgAAAAAAAAAAEBLoAAAAAAAAAABASKADAAAAAAAAAAAhgQ4AAAAAAAAAAIQEOgAAAAAAAAAAENprjSsAAAAAAAAAAEDEgg4AAAAAAAAAAIQEOgAAAAAAAAAAENpz7ggAAAAAAAAAAFCxoAMAAAAAAAAAACGBDgAAAAAAAAAAhAQ6AAAAAAAAAAAQ2uMGAAAAAAAAAACQsaADAAAAAAAAAAAhgQ4AAAAAAAAAAIQEOgAAAAAAAAAAEBLoAAAAAAAAAABASKADAAAAAAAAAAAhgQ4AAAAAAAAAAIT2jCMAAAAAAAAAAEDFgg4AAAAAAAAAAIQEOgAAAAAAAAAAEBLoAAAAAAAAAABAaM8aVwAAAAAAAAAAgIgFHQAAAAAAAAAACAl0AAAAAAAAAAAgtL1wBQAAAAAAAAAAHQs6AAAAAAAAAAAQEugAAAAAAAAAAEBIoAMAAAAAAAAAACGBDgAAAAAAAAAAhAQ6AAAAAAAAAAAQEugAAAAAAAAAAEBozzgCAAAAAAAAAABULOgAAAAAAAAAAEBIoAMAAAAAAAAAACGBDgAAAAAAAAAAhPb5jCsAAAAAAAAAAEDEgg4AAAAAAAAAAIQEOgAAAAAAAAAAENrr4AgAAAAAAAAAAFCxoAMAAAAAAAAAACGBDgAAAAAAAAAAhAQ6AAAAAAAAAAAQ2jOOAAAAAAAAAAAAFQs6AAAAAAAAAAAQEugAAAAAAAAAAEBIoAMAAAAAAAAAACGBDgAAAAAAAAAAhAQ6AAAAAAAAAAAQEugAAAAAAAAAAEBIoAMAAAAAAAAAACGBDgAAAAAAAAAAhAQ6AAAAAAAAAAAQEugAAAAAAAAAAEBoz/m4AgAAAAAAAAAARCzoAAAAAAAAAABASKADAAAAAAAAAACh7YErAAAAAAAAAADoWNABAAAAAAAAAICQQAcAAAAAAAAAAEICHQAAAAAAAAAACO0ZRwAAAAAAAAAAgIoFHQAAAAAAAAAACAl0AAAAAAAAAAAgJNABAAAAAAAAAICQQAcAAAAAAAAAAEICHQAAAAAAAAAACAl0AAAAAAAAAAAgJNABAAAAAAAAAICQQAcAAAAAAAAAAEICHQAAAAAAAAAACAl0AAAAAAAAAAAgtGfGFQAAAAAAAAAAIGJBBwAAAAAAAAAAQgIdAAAAAAAAAAAICXQAAAAAAAAAACAk0AEAAAAAAAAAgJBABwAAAAAAAAAAQgIdAAAAAAAAAAAI7XEDAAAAAAAAAADI/AXMpD+4k8t87wAAAABJRU5ErkJggg==;" vertex="1" parent="7">
                    <mxGeometry x="410" y="90" width="305.88" height="205.26" as="geometry"/>
                </mxCell>
            </root>
        </mxGraphModel>
    </diagram>
</mxfile>